<?xml version="1.0" encoding="utf-8"?>
<!-- Generator: Adobe Illustrator 23.0.2, SVG Export Plug-In . SVG Version: 6.00 Build 0)  -->
<svg version="1.1" id="Layer_1" xmlns="http://www.w3.org/2000/svg" xmlns:xlink="http://www.w3.org/1999/xlink" x="0px" y="0px"
	 viewBox="0 0 1000 1000" style="enable-background:new 0 0 1000 1000;" xml:space="preserve">
<style type="text/css">
	.st0{fill:#A1151C;}
	.st1{fill:#231F20;}
	.st2{fill:#229C2E;}
	.st3{fill:#FFFFFF;}
	.st4{fill:url(#SVGID_1_);stroke:#D67A0D;stroke-width:6;stroke-miterlimit:10;}
	.st5{fill:#D0AF2C;}
	.st6{fill:#ECB340;stroke:#D67A0D;stroke-width:3.3244;stroke-miterlimit:10;}
	.st7{fill:none;stroke:#D67A0D;stroke-width:5;stroke-miterlimit:10;}
</style>
<g>
	<path class="st0" d="M491.1,475.1l-121.4-458c-25.9,7-51.2,16.1-75.6,27.2L491.1,475.1z"/>
	<path class="st0" d="M481.7,519.3L127.6,833.7c17.9,19.9,37.4,38.4,58.2,55.3L481.7,519.3z"/>
	<path class="st1" d="M474.7,507.9L12.1,609.7c5.9,26.2,13.8,51.8,23.8,76.7L474.7,507.9z"/>
	<path class="st1" d="M493.4,525.8L337.6,973c25.3,8.7,51.4,15.4,77.8,19.8L493.4,525.8z"/>
	<path class="st1" d="M487,476.9L290,46.2c-24.3,11.3-47.7,24.5-69.9,39.5L487,476.9z"/>
	<path class="st1" d="M453.2,2.1C426.5,4.6,400,9.2,374.1,16l121.3,457.9L453.2,2.1z"/>
	<path class="st0" d="M489.2,524.3L260,938.8c23.5,12.8,48,23.8,73.3,32.7L489.2,524.3z"/>
	<path class="st1" d="M485.2,522.1L189.3,891.8c21,16.7,43.4,31.7,66.8,44.8L485.2,522.1z"/>
	<path class="st0" d="M473.7,503.5L0.6,525.7c1.4,26.8,4.9,53.4,10.5,79.6L473.7,503.5z"/>
	<path class="st0" d="M476.4,512.1L37.6,690.6c10.3,24.8,22.5,48.7,36.6,71.5L476.4,512.1z"/>
	<path class="st1" d="M518.4,519.1l299.1,367.1c20.7-17,40.1-35.7,57.8-55.8L518.4,519.1z"/>
	<path class="st1" d="M76.6,766c14.3,22.7,30.3,44.2,48,64.3l354.1-314.4L76.6,766z"/>
	<path class="st1" d="M989.7,601c4.1-20,7-40.3,8.7-60.7c0.5-6.4,0.9-12.7,1.2-19l-473.3-18L989.7,601z"/>
	<path class="st1" d="M3.5,440.9c-0.7,6.3-1.4,12.5-1.9,18.8c-1.6,20.5-2,41-1.2,61.5L473.5,499L3.5,440.9z"/>
	<path class="st0" d="M477.3,486.2l-382-280c-15.8,21.7-29.8,44.7-41.9,68.6L477.3,486.2z"/>
	<path class="st1" d="M475.3,490.3L51.4,278.8c-11.8,24.1-21.7,49.1-29.6,74.7L475.3,490.3z"/>
	<path class="st1" d="M150.8,142.1c-19.2,18.7-36.8,39-52.8,60.5l382,280L150.8,142.1z"/>
	<path class="st0" d="M474,494.6L20.5,357.8c-7.6,25.7-13.1,52.1-16.4,78.7L474,494.6z"/>
	<path class="st1" d="M523.7,511.9l404.4,246.5c13.9-22.9,25.9-46.9,35.9-71.8L523.7,511.9z"/>
	<path class="st0" d="M524.6,490.1l452.3-140.8c-8.1-25.6-18.2-50.4-30.3-74.4L524.6,490.1z"/>
	<path class="st1" d="M522.5,486l422-215.1c-12.3-23.8-26.5-46.7-42.5-68.2L522.5,486z"/>
	<path class="st0" d="M521.4,515.7L878.3,827c17.5-20.3,33.4-41.9,47.5-64.7L521.4,515.7z"/>
	<path class="st0" d="M996.1,436.6l-469.6,62.2l473.2,18C1000.7,490,999.5,463.2,996.1,436.6z"/>
	<path class="st1" d="M525.9,494.3l469.6-62.2c-3.7-26.6-9.4-52.8-17.3-78.5L525.9,494.3z"/>
	<path class="st0" d="M483.2,479.5L216.3,88.2c-22,15.3-42.8,32.2-62.2,50.8L483.2,479.5z"/>
	<path class="st0" d="M497.9,526.5l-78,467.1c13.1,2.1,26.4,3.7,39.8,4.8s26.9,1.6,40.2,1.6L497.9,526.5z"/>
	<path class="st0" d="M519.8,482.4l379.6-283.3c-16.2-21.4-34-41.5-53.4-60L519.8,482.4z"/>
	<path class="st0" d="M525.4,507.7l440.3,174.7c9.7-25,17.5-50.8,23.1-77L525.4,507.7z"/>
	<path class="st1" d="M584.4,992.9l-82-466.4l2,473.5C531.2,999.8,558,997.4,584.4,992.9z"/>
	<path class="st0" d="M512.8,476.8L776.3,83.2c-22.4-14.8-45.9-27.8-70.3-38.9L512.8,476.8z"/>
	<path class="st0" d="M515,522l232.7,412.4c23.3-13.3,45.4-28.5,66.3-45.3L515,522z"/>
	<path class="st1" d="M780.1,85.7L516.6,479.3L842.8,136C823.3,117.6,802.3,100.8,780.1,85.7z"/>
	<path class="st0" d="M542.5,1.8l-38.1,472.1L621.7,15C595.7,8.5,569.2,4.1,542.5,1.8z"/>
	<path class="st1" d="M508.7,475L701.9,42.5C677.4,31.6,652,22.8,626,16.1L508.7,475z"/>
	<path class="st1" d="M511,524.2l159.8,445.9c25.2-9.2,49.6-20.4,73-33.5L511,524.2z"/>
	<path class="st2" d="M538,1.5c-26.7-2.1-53.6-2-80.3,0.2l42.2,471.8L538,1.5z"/>
	<path class="st0" d="M506.8,525.7l82.1,466.5c26.4-4.8,52.3-11.7,77.6-20.6L506.8,525.7z"/>
</g>
<g>
	<path class="st3" d="M512,30.6c-0.2-5.8-1.4-10.3-3.6-13.5c-2.2-3.1-5.8-4.8-9.6-4.5c-3.8-0.1-7.3,1.7-9.3,4.9
		c-2.1,3.3-3.1,7.9-3,14v8.2c0.2,5.9,1.5,10.3,3.7,13.4c4,5.1,11.3,6,16.4,2c0.9-0.7,1.7-1.6,2.4-2.5c2.1-3.3,3.1-7.9,3-14V30.6z
		 M502.7,48c-0.7,1.7-1.7,2.5-3.1,2.5s-2.5-0.8-3.3-2.5c-0.8-2.5-1.2-5.2-1.1-7.9l-0.3-10.9c0-6.3,1.4-9.5,4.1-9.6s2.5,0.8,3.2,2.6
		c0.8,2.5,1.2,5.1,1.2,7.7l0.2,10.7C503.7,43.1,503.4,45.6,502.7,48z"/>
	<path class="st3" d="M566.5,17.1c-2.2-0.3-4.4-0.1-6.5,0.7c-2,0.7-3.7,1.9-4.9,3.6c-1.3,1.7-2.2,3.7-2.5,5.8l8.5,1.2
		c0.1-1.3,0.7-2.4,1.6-3.3c1.5-1.4,3.9-1.4,5.4,0.2c0.2,0.2,0.4,0.5,0.5,0.7c0.6,1.3,0.8,2.8,0.5,4.2c-0.1,1.5-0.7,3-1.7,4.2
		c-0.9,1-2.3,1.4-3.6,1.1l-4.1-0.5l-0.9,6.8l4.1,0.5c3.3,0.5,4.7,2.9,4.1,7.2c-0.2,1.5-0.8,3-1.9,4.1c-0.9,0.9-2.3,1.4-3.6,1.1
		c-1.3-0.1-2.4-0.8-2.9-2c-0.7-1.2-1-2.7-0.7-4.1l-8.5-1.1c-1.2,6.6,3.2,12.9,9.8,14.1c0.3,0.1,0.7,0.1,1,0.1
		c3.5,0.6,7.2-0.1,10.2-2.1c2.8-2,4.4-4.9,5-8.8c0.3-2.2,0.1-4.4-0.7-6.4c-0.8-1.9-2.2-3.6-4-4.6c1.8-0.7,3.4-1.8,4.6-3.3
		c1.2-1.5,2-3.4,2.3-5.3c0.5-3.8-0.2-7-2.2-9.5S570.5,17.7,566.5,17.1z"/>
	<path class="st3" d="M602.6,61.5L588,58.6l7.1-6.8c3-2.3,5.8-5,8.2-7.9c1.6-2,2.7-4.4,3.2-7c0.8-3.9,0.4-7.1-1.3-9.7
		s-4.5-4.2-8.3-5c-2.4-0.5-4.8-0.3-7.1,0.5c-2.2,0.8-4.2,2.3-5.6,4.2c-1.6,2-2.6,4.4-3.1,6.9l8.4,1.7c0.2-1.9,1-3.6,2.2-5.1
		c0.9-1,2.3-1.5,3.7-1.3c1.2,0.3,2.1,1.1,2.5,2.2c0.4,1.5,0.4,3.1,0.1,4.7c-0.4,1.6-1.1,3-2,4.3c-1.3,1.7-2.7,3.3-4.3,4.7L577,57.4
		l-1.1,5.9l25.3,5.1L602.6,61.5z"/>
	<polygon class="st3" points="633.6,37.8 631.5,44.5 640.4,44 630.2,75.9 638.4,78.5 651.7,36.7 650.8,36.4 	"/>
	<path class="st3" d="M669.4,87.1c3.2-1.7,5.5-4.6,7.1-8.7s2.1-8.1,1.2-11.2c-0.9-3.1-3.3-5.6-6.4-6.6c-1.7-0.7-3.6-0.8-5.3-0.3
		l4.1-8.5l13.3,5.2l2.6-6.8l-19.8-7.7l-10,20l5.7,4.1l0.7-0.6c1.3-0.7,2.8-0.7,4.1-0.1c1.4,0.5,2.5,1.6,2.9,3.1
		c0.4,1.6,0.1,3.5-0.8,5.9c-0.7,2-1.8,3.8-3.3,5.2c-1,1-2.4,1.2-3.7,0.7c-1.1-0.4-1.9-1.3-2.2-2.4c-0.4-1.5-0.3-3.1,0.2-4.5l-7.8-3
		c-0.9,2.1-1.2,4.5-0.8,6.8c0.3,2.2,1.2,4.2,2.7,5.9c1.4,1.7,3.3,3,5.4,3.8C662.5,88.9,666.3,88.8,669.4,87.1z"/>
	<polygon class="st3" points="707.4,108.4 727.6,69.5 726.8,69 709.6,67.5 706.3,73.8 715.2,74.8 699.8,104.5 	"/>
	<path class="st3" d="M750.4,102.5c1.7-2.7,2.8-5.7,3.4-8.9c0.5-2.6,0.3-5.2-0.6-7.7c-0.9-2.2-2.5-4.1-4.5-5.3
		c-2-1.2-4.3-1.7-6.6-1.6c-2.4,0.2-4.8,1-6.7,2.5c-2.2,1.5-4.1,3.6-5.5,5.9c-2.3,3.9-3.4,7.4-3.1,10.7c0.2,3.1,1.9,6,4.7,7.5
		c2,1.1,4.3,1.4,6.5,0.7c-2,2.6-4.1,4.2-6.4,4.8s-5,0.1-7.8-1.6l-0.5-0.3l-3.8,6.3l0.8,0.4c5.2,3.1,10.3,3.6,15.2,1.7
		s9.4-6.1,13.3-12.5L750.4,102.5z M743.9,96.7l-2,3.4c-2,1.4-3.7,1.7-5.1,0.9c-1.2-0.7-1.9-2.2-1.7-3.6c0.3-2,1-4,2.1-5.7
		c1-1.8,2.3-3.3,4-4.5c1.5-1,2.8-1.2,3.8-0.5s1.5,1.8,1.3,3.6C746,92.6,745.2,94.8,743.9,96.7z"/>
	<path class="st3" d="M795.8,148.1l-2.9-2.4l17.8-20.7l-6.5-5.6l-30,12.2l-3.3,4.4l11,9.5l-6.2,7.2l6.4,5.5l6.2-7.2l2.8,2.5
		L795.8,148.1z M786.5,140.1l-5.1-4.3l14.3-6.7h0.3L786.5,140.1z"/>
	<path class="st3" d="M837.4,201.8L827.2,191l9.7-1.4c3.8-0.1,7.6-0.7,11.3-1.7c2.5-0.8,4.8-2.1,6.7-3.8c2.9-2.8,4.4-5.6,4.5-8.7
		s-1.2-6-3.8-8.8c-3.3-3.7-8.4-5.1-13.1-3.7c-2.5,0.7-4.7,2.1-6.5,3.9l5.8,6.2c1.3-1.4,3-2.3,4.8-2.8c1.3-0.3,2.8,0.1,3.7,1.1
		c0.8,0.8,1.1,2.1,0.8,3.2c-0.5,1.5-1.5,2.9-2.7,3.9c-1.1,1.1-2.5,1.9-4,2.3c-2,0.7-4.2,1.1-6.3,1.3l-19.1,1.7l-4.4,4.1l17.6,18.9
		L837.4,201.8z"/>
	<polygon class="st3" points="865.6,194.4 839.8,215.8 845.3,222.4 879.1,194.4 878.5,193.7 863.3,185.5 857.8,190.1 	"/>
	<path class="st3" d="M905.9,254.2c-1.3,0.8-2.8,1.3-4.4,1.5c-2.2,0.2-4.3,0.2-6.5,0l-19-2.2l-5.2,3.2l13.5,22l6.1-3.7l-7.8-12.7
		l9.8,0.6c3.8,0.7,7.6,0.9,11.4,0.6c2.6-0.2,5.1-1.1,7.3-2.4c3.4-2.1,5.5-4.6,6.2-7.6s0-6.1-2-9.4c-1.3-2.1-3.1-3.8-5.2-4.9
		c-2.1-1.1-4.5-1.5-6.9-1.3c-2.5,0.2-5,1-7.1,2.4l4.4,7.3c1.6-1.1,3.4-1.7,5.3-1.8c1.3,0,2.6,0.7,3.3,1.8c0.7,1,0.7,2.3,0.2,3.4
		C908.4,252.3,907.3,253.4,905.9,254.2z"/>
	<path class="st3" d="M935.7,312.8c-1.4,0.6-3,0.9-4.5,0.9c-2.2-0.1-4.3-0.4-6.4-0.9l-18.6-4.8l-5.5,2.5l10.4,23.6l6.5-2.8l-6-13.7
		l9.6,1.9c3.6,1.2,7.4,1.9,11.2,2.2c2.6,0.1,5.2-0.4,7.6-1.4c3.6-1.6,6-3.8,7.1-6.6s0.9-6.1-0.7-9.7c-0.9-2.2-2.4-4.1-4.4-5.5
		c-2-1.4-4.3-2.1-6.7-2.2c-2.5-0.1-5.1,0.4-7.4,1.4l3.4,7.9c1.7-0.9,3.6-1.3,5.5-1.1c1.3,0.1,2.5,1,3.1,2.2c0.5,1.1,0.4,2.4-0.4,3.4
		C938.5,311.3,937.2,312.2,935.7,312.8z"/>
	<path class="st3" d="M932.9,336l0.9,0.2c1.3,0.5,2.4,1.5,2.8,2.9c0.6,1.4,0.4,3-0.4,4.3c-1.3,1.5-3,2.7-4.9,3.3
		c-1.9,0.8-4,1.1-6.1,1c-1.4-0.1-2.6-1.1-3.1-2.4c-0.4-1.1-0.2-2.3,0.4-3.3c0.9-1.2,2.2-2.1,3.6-2.7l-3-7.9
		c-2.2,0.8-4.1,2.2-5.6,3.9c-1.4,1.7-2.3,3.7-2.7,5.9c-0.3,2.2-0.1,4.5,0.7,6.6c1.1,3.4,3.7,6.1,7,7.4c3.4,1.3,7.1,1.1,11.2-0.4
		s7.5-3.8,9.2-6.5s2-5.8,0.8-9.2c-0.7-1.7-1.8-3.1-3.3-4.2l9-2.5l5,13.4l6.8-2.5l-7.3-19.9l-21.7,5.6L932.9,336z"/>
	<polygon class="st3" points="962,382.7 929.5,390.8 931.5,399.1 974.1,388.5 973.9,387.6 963.7,373.7 956.8,375.4 	"/>
	<polygon class="st3" points="972.7,417.4 934.1,410.4 935.7,419.2 976.5,425.8 981.3,425 976.5,398.9 969.6,400.1 	"/>
	<path class="st3" d="M973.3,451.9l0.6,8.5c1.3-0.1,2.5,0.2,3.6,0.9c0.9,0.6,1.5,1.7,1.6,2.8c0.1,1.2-0.3,2.3-1.2,3.1
		c-1.2,0.9-2.6,1.4-4,1.4c-1.5,0.2-3.1,0-4.5-0.7c-1.2-0.7-1.9-2-1.9-3.4l-0.3-4.1l-6.8,0.5l0.3,4.2c0.2,3.4-1.8,5.2-6.1,5.5
		c-1.6,0.2-3.2-0.2-4.5-1c-1.1-0.7-1.8-2-1.8-3.3c-0.1-1.2,0.3-2.5,1.3-3.3c1.1-0.9,2.5-1.5,3.9-1.5l-0.6-8.5
		c-6.6,0.1-11.9,5.6-11.8,12.2c0,0.4,0,0.9,0.1,1.3c0.1,3.6,1.6,7,4.2,9.5c2.6,2.4,6.1,3.5,9.6,3.1c2.2-0.1,4.3-0.8,6.2-2
		c1.7-1.2,3-2.9,3.6-4.9c1,1.6,2.5,3,4.2,3.8c1.7,0.9,3.7,1.3,5.6,1.1c3.4,0,6.6-1.5,8.9-4c2-2.5,2.9-5.7,2.6-9.7
		c-0.1-2.2-0.8-4.4-2-6.2c-1.1-1.8-2.6-3.2-4.5-4.1C977.6,452.1,975.5,451.7,973.3,451.9z"/>
	<path class="st3" d="M952.3,481.5l0.2,14.5H943v8.5h9.5v3.7h7.1v-3.8l27.2-0.3v-8.5l-29-14.6L952.3,481.5z M973.9,495.6h0.3
		l-14.6,0.2v-6.6L973.9,495.6z"/>
	<path class="st3" d="M981.1,558.6c-1.5-3.3-3.9-6.1-6.9-8.1c-3.6-2.4-7.7-4-12-4.7l-3.1-0.7c-5.3-1-9.8-0.7-13.4,1
		c-3.5,1.5-5.9,4.7-6.6,8.4c-0.5,2.3-0.3,4.7,0.6,6.9c0.9,2.2,2.4,4.1,4.4,5.5c2.1,1.6,4.6,2.7,7.2,3.2c4.5,0.9,8.2,0.7,11.2-0.7
		c2.9-1.1,5-3.6,5.5-6.6c0.6-2.6,0-5.3-1.7-7.4c2.9,0.8,5.4,2.6,7.2,5c1.5,2.4,1.9,5.3,1.3,8v0.5l7,1.4l0.3-1.3
		C982.8,565.5,982.5,561.9,981.1,558.6z M961.7,558.8c-0.4,1.4-1.5,2.5-2.9,2.8c-1.9,0.6-3.9,0.6-5.8,0.1c-2-0.3-3.8-1.1-5.4-2.3
		c-1.2-0.9-1.7-2.3-1.5-3.7c0.4-1.4,1.5-2.4,2.9-2.7c1.7-0.5,4-0.4,7.1,0.2l3,0.6c0.9,0.5,1.6,1.2,2.1,2.1
		C961.8,556.8,961.9,557.8,961.7,558.8L961.7,558.8z"/>
	<path class="st3" d="M966.7,615c-1.9-1.7-4.2-3-6.7-3.6l-2.3,8.3c1.9,0.3,3.6,1.2,4.9,2.6c1,0.9,1.4,2.4,1,3.7
		c-0.2,1.2-1.1,2.1-2.3,2.3c-1.6,0.4-3.2,0.3-4.7-0.2c-1.5-0.4-2.9-1.2-4.1-2.2c-1.6-1.4-3.1-3-4.4-4.7l-11.5-15.4l-5.8-1.5
		l-6.8,24.9l6.9,1.8l3.9-14.3l6.3,7.5c2.1,3.2,4.5,6.1,7.3,8.7c2,1.7,4.3,3,6.8,3.7c3.8,1.1,7.1,0.8,9.7-0.7s4.5-4.2,5.5-7.9
		c0.7-2.3,0.7-4.8,0-7.1C969.8,618.6,968.5,616.6,966.7,615z"/>
	<polygon class="st3" points="953,658.4 922.6,633.4 919.7,642 952.2,667.6 956.8,669.2 965.3,644.1 958.6,641.8 	"/>
	<polygon class="st3" points="934.5,697.7 904.8,682.1 900.9,689.7 939.7,710.1 940.1,709.3 941.8,692.1 935.5,688.8 	"/>
	<path class="st3" d="M929.9,719c-1.2-1.8-2.8-3.3-4.7-4.3l-4,7.4c1.1,0.6,2,1.6,2.5,2.7c0.4,1,0.4,2.2-0.2,3.2
		c-0.5,1.1-1.5,1.8-2.7,2c-1.4,0.2-2.9-0.2-4.1-1c-1.4-0.7-2.6-1.7-3.4-3c-0.6-1.3-0.5-2.7,0.2-3.9l2-3.6l-6-3.3l-2,3.7
		c-1.6,3-4.3,3.4-8.1,1.3c-1.4-0.6-2.6-1.8-3.2-3.2c-0.6-1.2-0.5-2.6,0.2-3.8c0.6-1.1,1.7-1.8,2.9-2c1.4-0.2,2.8,0.1,4.1,0.8l4-7.5
		c-2.9-1.7-6.4-2.2-9.7-1.3c-3.2,1.1-5.9,3.4-7.4,6.4c-1.8,3.1-2.4,6.8-1.6,10.3c0.9,3.3,3.1,5.8,6.5,7.7c1.9,1.1,4,1.7,6.2,1.7
		c2.1-0.1,4.1-0.9,5.7-2.2c0,1.9,0.5,3.8,1.5,5.5c1,1.7,2.4,3.1,4.1,4c3.4,1.8,6.6,2.3,9.7,1.3s5.5-3.2,7.4-6.7
		c1.1-1.9,1.7-4.1,1.7-6.3C931.5,722.8,931,720.8,929.9,719z"/>
	<path class="st3" d="M898.5,760l-4.9,7c1.1,0.6,1.9,1.7,2.2,2.9c0.4,1.1,0.2,2.3-0.5,3.2c-0.7,1-1.7,1.6-2.9,1.6
		c-1.5,0-2.9-0.5-4-1.4c-1.3-0.8-2.4-2-3-3.4c-0.5-1.3-0.3-2.7,0.6-3.8l2.4-3.3l-5.7-4l-2.3,3.5c-2,2.7-4.7,2.9-8.3,0.4
		c-1.3-0.8-2.3-2.1-2.8-3.5c-0.4-1.3-0.2-2.7,0.7-3.8c0.7-1,1.9-1.7,3.1-1.7c1.4,0,2.8,0.5,3.9,1.3l4.9-7
		c-5.1-4.1-12.5-3.3-16.6,1.7c-0.4,0.5-0.7,0.9-1,1.5c-2.2,2.8-3.2,6.4-2.7,10c0.6,3.5,2.6,6.5,5.6,8.4c1.8,1.3,3.8,2.1,6,2.3
		c2.1,0.2,4.2-0.3,5.9-1.5c-0.4,3.9,1.3,7.7,4.5,10c3.2,2.2,6.4,3,9.5,2.4s5.9-2.6,8.2-5.9c1.3-1.8,2.1-3.9,2.3-6.1
		c0.2-2.1-0.1-4.1-1-6C901.7,762.9,900.3,761.2,898.5,760z"/>
	<path class="st3" d="M871.6,777l-2.5-2c-4.2-3.3-8.4-5-12.3-5.1c-6.3-0.2-11.7,4.6-12.3,10.9c-0.3,2.4,0.2,4.8,1.3,6.9
		c1.3,2.4,3,4.4,5.1,6.1c3.6,2.8,7,4.3,10.3,4.5c3.1,0.3,6-1,7.9-3.5c1.7-2,2.3-4.7,1.8-7.3c2.2,2,3.6,4.7,4.1,7.6
		c0.3,2.8-0.5,5.6-2.4,7.8l-0.3,0.4l5.7,4.4l0.8-1c2.2-2.8,3.6-6.2,3.9-9.7c0.2-3.6-0.7-7.2-2.6-10.3
		C878,782.9,875.1,779.6,871.6,777z M865.3,788.4c-1,1.1-2.5,1.6-3.9,1.3c-2-0.4-3.8-1.3-5.3-2.6c-1.6-1.2-2.9-2.7-3.7-4.5
		c-0.6-1.3-0.5-2.8,0.3-4c1-1.1,2.5-1.5,3.9-1.1c1.7,0.3,3.7,1.4,6.2,3.4l2.4,1.9c0.5,0.8,0.8,1.8,0.9,2.8
		C866.2,786.6,865.9,787.6,865.3,788.4z"/>
	<polygon class="st3" points="842,831.8 818.1,808.4 812.1,814.5 843.4,845.2 844.1,844.6 850.6,828.6 845.5,823.6 	"/>
	<polygon class="st3" points="820.8,852.4 798.4,827.5 792,833.2 821.4,865.8 822.1,865.2 829.6,849.7 824.8,844.4 	"/>
	<path class="st3" d="M789.1,877.8l-6.9,5c0.8,1,1.2,2.2,1.1,3.5c-0.1,1.1-0.7,2.2-1.6,2.8c-1,0.7-2.2,0.9-3.3,0.6
		c-2.7-1.3-4.6-3.9-4.9-6.9c-0.1-1.4,0.6-2.6,1.8-3.3l3.3-2.4l-4-5.6l-3.4,2.5c-2.7,1.9-5.3,1.1-7.9-2.4c-0.9-1.2-1.4-2.7-1.5-4.2
		c0.1-1.4,0.8-2.6,1.9-3.4c1-0.7,2.3-0.9,3.5-0.5c1.4,0.4,2.5,1.2,3.3,2.4l6.9-5c-3.7-5.6-11.2-7.2-16.8-3.5
		c-0.3,0.2-0.6,0.4-0.9,0.7c-3,2-5,5.1-5.8,8.6c-0.6,3.5,0.3,7,2.5,9.8c1.3,1.8,2.9,3.2,4.9,4.2c1.9,0.8,4,1,6,0.5
		c-0.8,1.7-1.1,3.6-1,5.5c0.2,2,0.8,3.8,2,5.4c2.3,3.2,5,5,8.1,5.4c3.2,0.5,6.4-0.5,9.7-2.8c1.8-1.3,3.3-3,4.2-5
		c0.9-1.9,1.3-3.9,1.1-6C791.2,881.6,790.4,879.5,789.1,877.8z"/>
	<path class="st3" d="M756.7,882.5c-3.2-4.8-6.5-8-10.1-9.5c-3.4-1.4-7.4-1-10.4,1.1c-3.3,1.9-5.3,5.3-5.3,9.1
		c-0.2,3.9,1.4,8.4,4.6,13.5l4.3,6.7c3.2,5,6.5,8.2,10.1,9.7c3.4,1.5,7.4,1.1,10.5-1c3.2-1.9,5.3-5.3,5.4-9.1
		c0.1-3.9-1.4-8.4-4.7-13.5L756.7,882.5z M756.6,906.1c-1.2,0.8-2.6,0.6-4.1-0.5s-3.2-3.1-5-6l-5.7-9c-1.5-2.1-2.5-4.4-3.1-6.9
		c-0.4-1.4,0.1-2.8,1.3-3.6c1.3-0.8,2.6-0.7,4.1,0.4c2.1,1.7,3.8,3.7,5.1,6.1l5.9,9.3C758.4,901.3,758.9,904.7,756.6,906.1
		L756.6,906.1z"/>
	<path class="st3" d="M706.4,922.3c-1.5-1.1-3.3-1.7-5.1-1.9c1.2-1.7,1.9-3.6,2-5.7c0.8-6.7-4-12.9-10.8-13.7
		c-2.6-0.3-5.2,0.2-7.4,1.5c-3.5,1.7-5.8,4.1-6.8,7.1s-0.7,6.3,1,9.8c0.9,2,2.4,3.7,4.2,5c1.7,1.1,3.6,1.8,5.6,1.9
		c-0.9,1.6-1.5,3.4-1.6,5.2c-0.1,2,0.4,4,1.3,5.7c1.2,3.1,3.7,5.4,6.8,6.6c2.8,1.1,5.9,0.8,9.2-0.8s5.4-3.8,6.3-6.7
		c1-3.2,0.6-6.6-1-9.5C709.3,925,708,923.5,706.4,922.3z M693.6,920c-1.1,0.6-2.4,0.5-3.4-0.1c-1.3-0.9-2.3-2.2-2.9-3.7
		c-0.8-1.3-1.2-2.9-1.1-4.5c0-1.2,0.8-2.3,1.9-2.8c1.1-0.6,2.4-0.5,3.5,0.1c1.3,0.9,2.3,2.2,3,3.6c0.8,1.4,1.1,3,1,4.6
		C695.5,918.4,694.8,919.5,693.6,920z M701.7,936.6c-0.9,0.5-2.1,0.5-3-0.2c-1.1-0.9-1.9-2-2.5-3.3c-0.6-1.3-1-2.7-1.1-4.2
		c0-1.1,0.6-2.1,1.6-2.5c0.9-0.5,2.1-0.4,2.9,0.4c1.1,0.9,2,2,2.6,3.3c0.7,1.3,1.1,2.7,1.1,4.1C703.3,935.3,702.7,936.2,701.7,936.6
		L701.7,936.6z"/>
	<path class="st3" d="M638.1,952.6c0.6,1.8,0.7,3.7,0.3,5.5c-0.3,1.3-1.3,2.4-2.6,2.8c-1.2,0.4-2.4,0.1-3.3-0.8
		c-1.1-1.1-1.9-2.6-2.2-4.1c-0.4-1.5-0.5-3.1-0.3-4.6c0.4-2.1,0.9-4.2,1.7-6.2l7.1-17.9l-1.7-5.7l-24.8,7.3l2,6.7l14.3-4.2l-3.1,9.3
		c-1.7,3.5-2.9,7.1-3.6,10.9c-0.4,2.6-0.3,5.2,0.4,7.7c1.1,3.8,3,6.4,5.7,7.9s5.9,1.6,9.6,0.5c2.4-0.6,4.5-1.9,6.1-3.7
		c1.6-1.7,2.7-3.9,3-6.3c0.5-2.5,0.3-5.1-0.4-7.5L638.1,952.6z"/>
	<path class="st3" d="M610.1,962.7c0.3,1.2,0.2,2.6-0.4,3.7c-0.9,1.8-3.1,2.6-4.9,1.8c-0.3-0.1-0.6-0.3-0.9-0.6c-1-1-1.7-2.3-2-3.7
		c-0.4-1.5-0.3-3,0.1-4.5c0.5-1.3,1.6-2.2,3-2.4l4.1-0.9l-1.6-6.7l-4.1,0.9c-3.2,0.8-5.3-1-6.3-5.2c-0.4-1.5-0.3-3.1,0.3-4.5
		c0.6-1.2,1.7-2.1,3-2.4c1.2-0.3,2.5,0.1,3.4,0.9c1.1,0.9,1.9,2.2,2.1,3.6l8.3-1.9c-1-6.4-7-10.9-13.5-9.9c-0.6,0.1-1.1,0.2-1.6,0.4
		c-3.9,0.9-6.9,2.7-8.8,5.6c-1.9,2.9-2.5,6.5-1.5,9.9c0.4,2.2,1.4,4.2,2.9,5.8c1.4,1.5,3.3,2.6,5.3,2.9c-2.9,2.6-4.2,6.6-3.4,10.4
		c0.9,3.8,2.7,6.5,5.4,8.2s6.1,2,10,1.1c2.2-0.4,4.2-1.4,5.8-2.9c1.6-1.3,2.8-3.1,3.4-5.1c0.6-2.1,0.7-4.3,0.2-6.4L610.1,962.7z"/>
	<polygon class="st3" points="560.5,972.3 556.7,939.1 548.2,940 553.2,983.7 554.1,983.6 569.2,975.2 568.4,968.2 	"/>
	<path class="st3" d="M541.5,959.1c-0.4-5.8-1.8-10.2-4.1-13.2c-4.1-5-11.5-5.6-16.5-1.5c-0.9,0.7-1.7,1.6-2.3,2.6
		c-2,3.4-2.8,8-2.5,14.1l0.4,8c0.4,5.8,1.7,10.3,4.1,13.3c2.2,3,5.9,4.7,9.6,4.3c3.8,0,7.3-2,9.2-5.3c2-3.3,2.8-8,2.5-14
		L541.5,959.1z M529.8,979.6c-1.4,0.1-2.5-0.7-3.3-2.4c-0.8-1.7-1.2-4.2-1.4-7.7l-0.6-10.7c-0.2-2.5,0-5,0.7-7.4
		c0.3-1.4,1.5-2.5,3-2.6c1.4-0.1,2.5,0.7,3.3,2.4c1,2.5,1.5,5.1,1.5,7.8l0.6,10.9C533.8,976.3,532.6,979.5,529.8,979.6z"/>
	<path class="st3" d="M463.5,948.7c1.2,0.1,2.2,0.8,2.8,1.8c0.7,1.3,1.1,2.8,1,4.3l8.4,0.8c0.2-2.3-0.2-4.6-1.1-6.7
		c-1.9-4.1-5.9-6.9-10.5-7.2c-3.5-0.5-7,0.7-9.6,3.1c-2.6,2.5-4.1,5.9-4.5,10.3s0.2,8.4,1.9,11.1c1.7,2.8,4.7,4.5,8,4.6
		c1.8,0.2,3.6-0.2,5.2-1.2l-1.7,9.3l-14.1-1.3l-0.7,7.3l21.1,1.9l4.3-22l-6.6-2.3l-0.6,0.7c-1,1-2.5,1.5-3.9,1.3
		c-1.5-0.1-2.9-0.9-3.7-2.3c-0.8-1.8-1.1-3.8-0.8-5.8c0.3-2.7,0.8-4.7,1.7-6C460.8,949.2,462.1,948.6,463.5,948.7z"/>
	<path class="st3" d="M387.3,936l14.6,3.3l-7.3,6.6c-3.1,2.2-5.9,4.8-8.4,7.7c-1.6,2.1-2.8,4.5-3.4,7c-0.9,3.8-0.5,7.1,1.1,9.6
		c1.9,2.8,4.9,4.7,8.2,5.2c2.3,0.6,4.8,0.5,7.1-0.3c2.3-0.7,4.2-2.1,5.7-4c1.6-2,2.8-4.3,3.3-6.8l-8.4-1.9c-0.3,1.8-1.1,3.6-2.3,5
		c-0.9,1.1-2.4,1.5-3.7,1.1c-1.2-0.2-2.1-1.1-2.4-2.2c-0.5-1.5-0.5-3.2,0-4.7c0.4-1.5,1.1-3,2-4.2c1.3-1.7,2.8-3.2,4.5-4.6
		l14.9-12.1l1.3-5.9l-25.2-5.7L387.3,936z"/>
	<path class="st3" d="M385.2,938l-13.9-4.1l2.6-9.1l-8.1-2.4l-2.7,9.1l-3.6-1.1l-2,6.8l3.6,1.1l-7.6,26.2l8.2,2.4l22.3-23.5
		L385.2,938z M365.4,954.5l-0.2,0.3l4.1-14.1l6.4,1.8L365.4,954.5z"/>
	<polygon class="st3" points="326.5,907.7 309.6,948.2 310.5,948.6 327.7,948.7 330.5,942.1 321.5,941.9 334.4,911 	"/>
	<path class="st3" d="M313.4,906.1c-0.6-3.8-3-7-6.5-8.5c-2.1-1.1-4.5-1.5-6.8-1.2c-2.4,0.3-4.6,1.3-6.4,2.8
		c-2.1,1.7-3.8,3.8-4.9,6.2c-2,4.1-2.7,7.8-2.2,11c0.3,3,2.2,5.7,5,7c2.3,1.2,5.1,1.3,7.5,0.2c-1.5,2.6-3.7,4.6-6.5,5.7
		c-2.7,0.9-5.6,0.6-8.1-0.8l-0.5-0.2l-3.1,6.5l1.1,0.6c6.6,3.3,14.5,2.2,19.9-2.9c3.2-2.9,5.8-6.5,7.7-10.4l1.4-2.9
		C313.3,914.4,314.2,910,313.4,906.1z M303.9,914.3l-1.3,2.7c-0.7,0.7-1.6,1.3-2.6,1.6c-1,0.3-2,0.2-2.9-0.3c-1.3-0.7-2-2.1-2-3.5
		c-0.1-2,0.3-4,1.3-5.7c0.8-1.8,2.1-3.3,3.6-4.5c1.1-1,2.7-1.2,4-0.6c1.2,0.7,2,2.1,1.9,3.5C305.8,909.9,305.1,912.2,303.9,914.3z"
		/>
	<path class="st3" d="M264.5,874.6c-3-2.1-6.6-2.9-10.2-2.2c-3.3,0.6-6,2.6-8.1,5.9c-1.2,1.8-2,3.9-2.1,6.1
		c-0.1,2.1,0.6,4.1,1.8,5.8c-3.9-0.3-7.7,1.7-9.8,5c-2,2.7-2.7,6.2-2,9.5c0.9,3.4,3.2,6.2,6.2,7.9c1.8,1.3,4,2,6.2,2.1
		c4.3,0.3,8.4-1.8,10.6-5.6l-7.2-4.5c-0.6,1.1-1.6,1.9-2.8,2.3c-1.1,0.4-2.3,0.3-3.2-0.4c-1-0.6-1.7-1.6-1.8-2.8
		c-0.1-1.5,0.4-2.9,1.3-4.1c0.7-1.3,1.8-2.4,3.2-3.1c1.3-0.5,2.7-0.3,3.8,0.5l3.5,2.2l3.7-5.8l-3.5-2.3c-2.9-1.8-3.1-4.5-0.8-8.2
		c0.7-1.4,1.9-2.4,3.4-2.9c1.3-0.5,2.7-0.3,3.8,0.5c1.1,0.6,1.8,1.7,1.8,3c0.1,1.4-0.3,2.8-1.1,4l7.2,4.5c2-3.2,2.7-6.4,1.9-9.6
		C269.5,879.1,267.4,876.3,264.5,874.6z"/>
	<path class="st3" d="M233.6,864.2c1.3-0.4,2.7-0.2,3.8,0.7c1,0.7,1.6,1.9,1.6,3.1c0,1.4-0.4,2.8-1.3,3.9l6.9,5
		c2.1-2.6,3-6.1,2.5-9.4c-0.6-3.3-2.5-6.3-5.3-8.2c-2.8-2.2-6.4-3.3-10-2.9c-3.5,0.5-6.6,2.5-8.5,5.4c-1.3,1.8-2.2,3.8-2.5,6
		c-0.2,2.1,0.3,4.1,1.4,5.9c-1.9-0.2-3.8,0-5.6,0.8c-1.8,0.7-3.3,1.9-4.4,3.5c-2.3,3.2-3.2,6.3-2.6,9.5s2.4,5.9,5.7,8.2
		c1.8,1.3,3.8,2.2,6,2.5c2.1,0.3,4.2,0,6.1-0.9c2-0.9,3.6-2.3,4.9-4l-6.9-5c-0.7,1-1.8,1.8-3,2.1c-1.1,0.4-2.3,0.2-3.2-0.5
		c-1-0.7-1.5-1.8-1.5-3c0-1.5,0.5-2.9,1.4-4c0.9-1.2,2.1-2.2,3.5-2.9c1.3-0.4,2.7-0.2,3.7,0.7l3.4,2.4l4-5.5l-3.4-2.5
		c-2.7-2-2.8-4.7-0.2-8.2C230.9,865.6,232.1,864.6,233.6,864.2z"/>
	<polygon class="st3" points="190.8,817.4 160.7,849.4 161.4,850 177.5,856.2 182.4,851 174.1,847.6 197,823.2 	"/>
	<path class="st3" d="M138.5,768.4l9.2,11.7l-9.8,0.6c-3.8-0.2-7.6,0-11.4,0.7c-2.5,0.5-4.9,1.6-7,3.2c-3.1,2.5-4.8,5.2-5.2,8.3
		s0.7,6.1,3.1,9.1c1.5,1.9,3.5,3.4,5.7,4.3c2.2,0.8,4.7,0.9,7,0.4c2.5-0.5,4.8-1.6,6.8-3.2l-5.3-6.7c-1.4,1.2-3.2,2-5,2.4
		c-1.3,0.2-2.7-0.3-3.5-1.4c-0.8-0.9-1-2.2-0.5-3.3c0.6-1.5,1.6-2.8,2.9-3.7c1.3-0.9,2.7-1.6,4.2-1.9c2.1-0.5,4.2-0.7,6.4-0.8h19.2
		l4.7-3.7L144,764L138.5,768.4z"/>
	<path class="st3" d="M128.7,772.7c4.7-3.4,7.8-6.9,9.1-10.5c1.3-3.5,0.7-7.4-1.5-10.3c-2-3.2-5.5-5.1-9.3-5
		c-3.9,0-8.4,1.8-13.3,5.2l-6.6,4.6c-4.8,3.3-7.9,6.8-9.3,10.5c-1.3,3.5-0.7,7.4,1.5,10.4c2,3.2,5.5,5.1,9.3,5
		c3.9,0,8.3-1.7,13.3-5.2L128.7,772.7z M105.1,773.6c-0.8-1.2-0.7-2.6,0.3-4.1c1.6-2.1,3.6-3.9,5.8-5.3l8.8-6.1c2.8-1.9,5-3,6.7-3.3
		c1.4-0.5,2.9,0,3.8,1.1c0.8,1.2,0.7,2.6-0.3,4.2c-1.6,2.1-3.6,3.9-5.9,5.3l-9,6.2C110.1,775.2,106.7,775.8,105.1,773.6L105.1,773.6
		z"/>
	<polygon class="st3" points="113.5,717 109.4,709.5 70.9,730.5 71.3,731.3 84.7,742.2 91,738.8 84.1,733 	"/>
	<path class="st3" d="M96.8,705.7l-6.1-13.2l8.6-4l-3.6-7.7l-8.6,4l-1.6-3.4l-6.4,3l1.6,3.4l-24.8,11.5l3.6,7.8l32.5,1.2L96.8,705.7
		z M71.3,701.7H71l13.3-6.2l2.8,6L71.3,701.7z"/>
	<path class="st3" d="M62.9,649.8c-1.1-3.2,0.5-5.5,4.5-6.9c1.5-0.5,3.1-0.6,4.6-0.1c1.3,0.4,2.3,1.4,2.6,2.7
		c0.4,1.2,0.2,2.5-0.5,3.5c-0.8,1.2-2,2-3.3,2.4l2.7,8.1c6.4-1.9,10.1-8.6,8.2-15c-0.1-0.3-0.2-0.7-0.3-1c-1.3-3.9-3.5-6.6-6.5-8.1
		c-3.1-1.6-6.8-1.8-10.1-0.5c-2.1,0.6-3.9,1.8-5.4,3.4c-1.4,1.6-2.2,3.6-2.3,5.7c-1.4-1.3-3.1-2.2-5-2.6c-1.9-0.5-3.9-0.4-5.7,0.3
		c-3.3,0.9-6.1,3.2-7.6,6.2c-1.3,3.2-1.4,6.8-0.1,10c0.7,2.1,1.9,4,3.5,5.5c1.5,1.5,3.4,2.4,5.5,2.8c2.1,0.4,4.3,0.3,6.3-0.5l-2.7-8
		c-1.2,0.5-2.5,0.5-3.7,0c-1.1-0.3-1.9-1.2-2.2-2.3c-0.5-1.1-0.3-2.4,0.4-3.3c0.9-1.2,2.1-2,3.5-2.4c1.4-0.6,3-0.7,4.5-0.4
		c1.3,0.4,2.2,1.5,2.6,2.8l1.4,3.9l6.5-2.2L62.9,649.8z"/>
	<polygon class="st3" points="46.1,635 40.8,627.8 73.1,619 70.9,610.7 28.5,622.3 28.8,623.1 39.3,636.9 	"/>
	<path class="st3" d="M43.3,570c2.2-2.2,3.2-5.4,2.5-8.5c-0.5-2.2-1.9-4.1-3.8-5.3c2.7-0.4,5.5,0.2,7.9,1.6c2,1.4,3.3,3.7,3.9,6.9
		v0.6L61,564v-0.9c-1.2-5.9-4.2-10.1-8.9-12.6s-10.8-3-18.1-1.6l-3.1,0.6c-3.2,0.5-6.2,1.6-8.9,3.3c-2.3,1.3-4.1,3.2-5.4,5.5
		c-1,2.1-1.4,4.6-0.9,6.9c0.4,2.3,1.5,4.4,3.1,6c1.8,1.7,3.9,2.9,6.3,3.5c2.7,0.6,5.4,0.6,8.1,0.1C37.6,574,41,572.4,43.3,570z
		 M25.6,566.4c-1.7-0.4-2.7-1.2-2.9-2.4s0.3-2.4,1.8-3.5c2-1.2,4.1-2,6.4-2.4l3.9-0.7c2.4,0.5,3.7,1.6,4,3.2
		c0.3,1.4-0.3,2.8-1.5,3.6c-1.7,1.2-3.6,2-5.7,2.3C29.6,566.9,27.6,566.9,25.6,566.4z"/>
	<path class="st3" d="M26.8,510.1v-8.5c-1.9,0-3.7-0.4-5.4-1.3c-1.2-0.8-1.9-2-1.9-3.4c0-1.2,0.7-2.2,1.7-2.8c1.4-0.7,3-1.1,4.6-1
		c1.6,0,3.1,0.4,4.5,1.1c1.9,1,3.8,2.1,5.5,3.4l14.9,12.1h6.1l0.3-25.9h-7l-0.2,14.9l-8-5.7c-2.8-2.6-5.9-4.8-9.3-6.6
		c-2.3-1.2-4.8-1.8-7.4-1.9c-4,0-7.1,1-9.3,3.1s-3.3,5.2-3.3,9.1c-0.3,4.9,2.5,9.5,6.9,11.6C21.7,509.5,24.3,510.1,26.8,510.1z"/>
	<path class="st3" d="M20.1,476.7c2.2,1.3,4.7,2.1,7.3,2.2l0.5-8.6c-1.9,0-3.7-0.5-5.3-1.5c-1.1-0.8-1.8-2.1-1.7-3.5
		c0.1-1.2,0.8-2.2,1.8-2.8c1.5-0.6,3.1-0.9,4.7-0.7c1.5,0.2,3,0.6,4.4,1.4c1.9,1,3.7,2.3,5.3,3.7l14.3,12.8l6,0.4l1.6-25.8l-7-0.5
		l-1,14.9l-7.6-6.1c-2.7-2.8-5.7-5.2-9-7.1c-2.3-1.3-4.8-2.1-7.4-2.3c-3.9-0.2-7.1,0.6-9.3,2.7s-3.6,4.9-3.9,8.8
		c-0.2,2.4,0.3,4.8,1.4,7C16.3,473.8,18,475.5,20.1,476.7z"/>
	<polygon class="st3" points="32.5,428.8 30.8,420 63.8,426 65.3,417.6 22.1,409.7 22,410.6 25.5,427.5 	"/>
	<path class="st3" d="M35,402.1c1.9,0.5,3.9,0.5,5.8,0c1.8-0.5,3.4-1.4,4.7-2.7c0.6,2,1.6,3.8,3.1,5.2c1.6,1.5,3.6,2.6,5.8,3
		c3.3,1,6.8,0.6,9.8-1.1c2.7-1.7,4.5-4.4,5.5-8.1c0.9-3.3,0.6-6.8-1.1-9.8c-1.7-2.7-4.4-4.5-8.2-5.5c-2.1-0.5-4.4-0.5-6.5,0
		c-2,0.6-3.7,1.7-5.1,3.2c-1.3-3.7-4.3-6.4-8.1-7.3c-3.7-0.9-6.9-0.6-9.5,1c-2.7,1.7-4.7,4.4-5.3,7.6c-0.8,3.5-0.5,6.6,1.1,9.2
		S31.3,401.1,35,402.1z M50.7,393.7c0.3-1.2,1.2-2.1,2.3-2.5c1.5-0.4,3.2-0.4,4.7,0.1c1.6,0.2,3.1,1,4.2,2.1
		c0.9,0.8,1.2,2.1,0.9,3.3c-0.3,1.2-1.1,2.1-2.3,2.5c-1.5,0.5-3.2,0.5-4.7,0c-1.6-0.3-3-1.1-4.2-2.2
		C50.7,396.2,50.4,394.9,50.7,393.7z M32.8,389.3c0.2-1,1.1-1.9,2.1-2.1c1.4-0.3,2.8-0.2,4.2,0.2c1.4,0.3,2.7,0.9,3.8,1.8
		c0.9,0.6,1.3,1.8,1,2.8c-0.3,1.1-1.1,1.9-2.2,2.1c-1.4,0.2-2.8,0.2-4.2-0.2c-1.4-0.4-2.7-1-3.9-1.8
		C32.8,391.4,32.5,390.3,32.8,389.3L32.8,389.3z"/>
	<path class="st3" d="M44.8,345.8c1.7,1.8,3.9,3.3,6.3,4.1l3-8c-1.8-0.5-3.5-1.6-4.7-3.1c-0.9-1-1.2-2.4-0.7-3.7
		c0.4-1.2,1.4-2,2.6-2.2c1.6-0.2,3.2,0.1,4.6,0.7c1.5,0.5,2.8,1.4,3.9,2.5c1.5,1.5,2.8,3.2,4,5l10.1,16.4l5.7,2l8.8-24.2l-6.6-2.5
		l-5.1,14l-5.6-8c-1.9-3.3-4.1-6.4-6.6-9.3c-1.8-1.9-4-3.4-6.5-4.3c-3.7-1.4-7-1.4-9.7-0.1s-4.8,3.7-6.2,7.4
		c-0.9,2.3-1.1,4.7-0.6,7.1C42,341.9,43.1,344.1,44.8,345.8z"/>
	<path class="st3" d="M55.9,317.6c1.8,2,4.1,3.7,6.6,4.7c4.1,1.8,7.7,2.3,11,1.6c3.1-0.5,5.7-2.7,6.8-5.6c0.9-2.1,0.8-4.4-0.1-6.5
		c2.5,1.3,4.4,3.3,5.6,5.8c0.9,2.2,0.7,4.8-0.7,7.9l-0.2,0.5l6.7,3l0.4-0.8c2.3-5.6,2.2-10.7-0.3-15.4s-7.2-8.5-14.1-11.5l-2.8-1.3
		c-2.9-1.3-6-2.1-9.2-2.3c-2.6-0.2-5.3,0.4-7.6,1.6c-2.1,1.2-3.7,3-4.6,5.2c-1,2.1-1.3,4.4-0.8,6.7
		C53.1,313.6,54.2,315.8,55.9,317.6z M59.8,307.4c0.5-1.2,1.7-1.8,3.5-1.8c2.3,0,4.6,0.5,6.6,1.6l3.6,1.6c1.7,1.7,2.2,3.4,1.6,4.9
		c-0.6,1.2-1.9,2-3.3,2.1c-2.1,0-4.1-0.4-6-1.3c-1.9-0.8-3.6-2-5-3.5C59.7,309.7,59.3,308.5,59.8,307.4z"/>
	<polygon class="st3" points="93.3,246 117.2,277.3 121.9,269.6 96.1,237.3 92,234.7 78,257.3 84,261 	"/>
	<path class="st3" d="M126.8,208.9l5.5-6.5c-1.5-1.1-2.7-2.7-3.4-4.4c-0.5-1.3-0.3-2.7,0.6-3.8c0.7-1,1.9-1.4,3.1-1.2
		c1.6,0.3,3,1,4.2,2.1c1.2,1.1,2.1,2.4,2.8,3.8c0.9,1.9,1.7,3.9,2.1,6l4.1,18.8l4.6,3.8l16.5-19.9l-5.5-4.5l-9.5,11.5l-2.6-9.5
		c-0.5-3.8-1.6-7.4-3.1-10.9c-1-2.4-2.6-4.5-4.6-6.2c-3.1-2.6-6.1-3.7-9.2-3.4s-5.8,1.9-8.3,5c-3.2,3.7-3.9,8.9-1.9,13.3
		C123.3,205.2,124.8,207.3,126.8,208.9z"/>
	<path class="st3" d="M145.1,183.8c1.4,1.4,3.1,2.3,5,2.9c1.8,0.4,3.7,0.4,5.5-0.1c-0.5,2-0.5,4,0.1,6c0.7,2.1,1.9,4,3.6,5.5
		c2.8,2.7,5.8,4,9,3.8s6.2-1.6,8.8-4.4s4-5.8,3.9-9c-0.3-3.4-1.9-6.6-4.5-8.8c-1.6-1.6-3.5-2.7-5.7-3.2c-2-0.4-4.1-0.3-6,0.3
		c0.4-1.8,0.3-3.7-0.3-5.5c-0.6-1.8-1.7-3.5-3.2-4.8c-2.8-2.6-5.7-3.9-8.7-3.8s-5.9,1.4-8.4,4c-2.3,2.3-3.5,5.4-3.5,8.6
		C140.8,178.3,142.3,181.2,145.1,183.8z M162.9,184.2c0.8-0.9,2-1.3,3.2-1c1.6,0.4,3,1.1,4.1,2.3c1.2,1,2.1,2.4,2.6,3.9
		c0.3,1.2,0,2.4-0.8,3.3c-0.8,0.9-2.1,1.3-3.3,1.1c-1.6-0.4-3-1.1-4.1-2.3c-1.2-1.1-2.1-2.5-2.6-4C161.7,186.3,162,185,162.9,184.2
		L162.9,184.2z M149.4,171.6c0.7-0.9,1.9-1.2,2.9-0.8c1.3,0.4,2.5,1.2,3.5,2.2c1.1,0.9,2,2.1,2.5,3.4c0.4,1,0.2,2.1-0.5,2.9
		c-0.7,0.8-1.9,1.1-2.9,0.8c-1.4-0.5-2.6-1.2-3.7-2.2c-1.1-1-1.9-2.2-2.4-3.5C148.5,173.4,148.7,172.4,149.4,171.6L149.4,171.6z"/>
	<polygon class="st3" points="184.6,129.3 176.8,144.7 181.4,150 185.6,142.2 207.5,167.6 213.9,162 185.3,128.7 	"/>
	<path class="st3" d="M202.1,132.6l6.8-5.2c-1.2-1.4-2-3.2-2.3-5.1c-0.2-1.4,0.4-2.7,1.5-3.5c0.9-0.8,2.2-0.9,3.3-0.4
		c1.5,0.7,2.7,1.7,3.6,3c0.9,1.3,1.5,2.8,1.8,4.3c0.4,2.1,0.7,4.2,0.7,6.4l-0.3,19.2l3.6,4.8l20.6-15.7l-4.3-5.6l-11.9,9l-0.3-9.8
		c0.3-3.8,0.1-7.6-0.5-11.4c-0.5-2.6-1.6-5-3.1-7.1c-2.4-3.1-5.1-4.9-8.2-5.3s-6.1,0.5-9.2,2.9c-1.9,1.4-3.4,3.4-4.3,5.6
		c-0.9,2.2-1.1,4.7-0.6,7C199.5,128.2,200.5,130.6,202.1,132.6z"/>
	<path class="st3" d="M278.2,113c0.9-3.4,0.3-7-1.6-9.9c-1.1-1.9-2.7-3.5-4.6-4.6c-1.8-1-3.9-1.4-6-1c2-3.4,2-7.6,0-11
		c-2-3.3-4.6-5.4-7.7-6.1c-3.4-0.7-6.9,0-9.8,2c-1.9,1.1-3.5,2.7-4.6,4.6c-1.1,1.8-1.7,3.8-1.6,5.9c0,2.2,0.6,4.3,1.8,6.1l7.3-4.4
		c-0.7-1.1-1-2.3-0.8-3.6c0.1-1.1,0.7-2.1,1.7-2.6c1-0.7,2.3-0.8,3.4-0.3c1.3,0.6,2.4,1.6,3,2.9c0.9,1.3,1.4,2.8,1.4,4.3
		c-0.1,1.3-0.9,2.5-2.1,3.2l-3.6,2.1l3.6,5.9l3.5-2.2c2.9-1.7,5.5-0.7,7.7,3c0.9,1.3,1.2,2.9,1.1,4.4c-0.2,2.3-2.2,3.9-4.5,3.7
		c-0.4,0-0.8-0.1-1.1-0.3c-1.3-0.5-2.4-1.5-3.1-2.7l-7.3,4.4c3.1,5.8,10.4,8.1,16.2,4.9c0.4-0.2,0.7-0.4,1.1-0.6
		C274.8,119.4,277.2,116.5,278.2,113z"/>
	<path class="st3" d="M282.4,91.4l0.2-0.9c0.6-2.6,3.2-4.2,5.8-3.6c0.4,0.1,0.7,0.2,1,0.4c1.7,1,3.1,2.6,3.9,4.4
		c1,1.8,1.6,3.8,1.7,5.9c0.1,1.4-0.7,2.7-1.9,3.3c-1,0.6-2.3,0.6-3.3,0c-1.3-0.7-2.5-1.8-3.2-3.1l-7.5,3.9c1.1,2.1,2.6,3.8,4.6,5.1
		c1.9,1.2,4.1,1.8,6.3,1.9c2.2,0,4.4-0.5,6.4-1.5c3.2-1.5,5.6-4.4,6.4-7.9c0.9-3.5,0.3-7.2-1.8-11.1c-2.1-4.1-4.7-6.9-7.6-8.3
		s-6-1.2-9.2,0.4c-1.6,0.9-2.9,2.3-3.7,3.9l-3.7-8.7l12.7-6.6l-3.4-6.5l-18.8,9.8l8.3,20.8L282.4,91.4z"/>
	<path class="st3" d="M358.6,76c1.5-3.1,1.4-6.5,0-10.1c-0.8-2-2.1-3.8-3.8-5.2c-1.6-1.3-3.6-2-5.7-2c1.2-1.5,2-3.2,2.3-5.1
		c0.3-1.9,0.1-3.9-0.6-5.7c-1.5-3.6-3.7-6-6.6-7.2c-3-1.3-6.3-1.1-10.1,0.4c-2,0.8-3.9,2.1-5.3,3.8c-1.3,1.6-2.2,3.5-2.5,5.6
		c-0.3,2.1,0,4.3,0.8,6.3l8-3.2c-0.6-1.1-0.7-2.5-0.3-3.7c0.3-1.1,1.1-1.9,2.2-2.3c1.1-0.5,2.3-0.4,3.3,0.2c1.2,0.8,2.2,2,2.6,3.4
		c0.7,1.4,0.9,2.9,0.6,4.4c-0.3,1.3-1.3,2.4-2.6,2.8l-3.8,1.6l2.6,6.4l3.9-1.6c3.1-1.2,5.4,0.1,7,4.1c0.7,1.4,0.9,3,0.5,4.5
		c-0.4,1.3-1.3,2.4-2.6,2.9c-1.2,0.4-2.5,0.3-3.5-0.4c-1.3-0.7-2.2-1.8-2.7-3.2l-7.9,3.2c1.2,3.2,3.6,5.8,6.7,7.2
		c3.2,1.3,6.7,1.2,9.8-0.2C354.3,81.7,357,79.2,358.6,76z"/>
	<path class="st3" d="M408.5,59.2l3.9-9c2-3.3,3.5-6.8,4.5-10.5c0.7-2.5,0.8-5.1,0.3-7.7c-0.8-3.9-2.5-6.7-5-8.4s-5.8-2.1-9.6-1.3
		c-2.4,0.4-4.5,1.5-6.3,3.1c-1.8,1.6-3,3.8-3.6,6.1c-0.7,2.4-0.7,5-0.2,7.5l8.4-1.7c-0.5-1.8-0.4-3.7,0.1-5.5
		c0.5-1.3,1.5-2.3,2.9-2.6c1.2-0.3,2.4,0.2,3.1,1.1c1.1,1.2,1.7,2.7,1.9,4.3c0.3,1.5,0.3,3.1-0.1,4.6c-0.5,2.1-1.3,4.1-2.2,6.1
		L398,62.4l1.2,5.9l25.3-5.1l-1.4-7L408.5,59.2z"/>
	<path class="st3" d="M423.9,46c0.8,5.3,2.6,9.4,5.4,12.2c2.6,2.8,6.4,4.1,10.1,3.5c4.8-0.6,8.8-4.1,10.1-8.8
		c0.7-2.6,0.9-5.3,0.5-7.9c-0.6-4.5-2-7.9-4.3-10.3c-2-2.4-5.1-3.5-8.1-3c-2.6,0.3-4.9,1.8-6.3,4c-0.2-2.9,0.6-5.9,2.3-8.3
		c1.7-2.3,4.3-3.7,7.1-3.9h0.5l-1-7.2l-1.3,0.2c-3.5,0.5-6.8,2-9.5,4.3c-2.7,2.5-4.5,5.7-5.4,9.2c-1,4.2-1.2,8.6-0.5,12.9L423.9,46z
		 M433.4,40.4c0.6-0.8,1.5-1.3,2.5-1.4c1.5-0.2,2.9,0.5,3.7,1.7c1.1,1.6,1.8,3.5,2,5.5c0.4,1.9,0.3,3.9-0.4,5.8
		c-0.4,1.4-1.6,2.5-3,2.7c-1.4,0.1-2.8-0.6-3.5-1.8c-1-1.4-1.7-3.7-2.2-6.7l-0.4-3.1C432.3,42.1,432.8,41.2,433.4,40.4z"/>
</g>
<g>
	
		<radialGradient id="SVGID_1_" cx="501" cy="659.91" r="349.3" gradientTransform="matrix(1 0 0 -1 0 1160.11)" gradientUnits="userSpaceOnUse">
		<stop  offset="0" style="stop-color:#EE9700"/>
		<stop  offset="0.3045" style="stop-color:#F2C106"/>
		<stop  offset="0.4609" style="stop-color:#F5BE1E"/>
		<stop  offset="0.5682" style="stop-color:#F5BE20"/>
		<stop  offset="0.7933" style="stop-color:#EDE874"/>
		<stop  offset="0.7969" style="stop-color:#EDE773"/>
		<stop  offset="0.879" style="stop-color:#F6D856"/>
		<stop  offset="0.9495" style="stop-color:#FBCF43"/>
		<stop  offset="1" style="stop-color:#FDCB3C"/>
	</radialGradient>
	<circle class="st4" cx="501" cy="500.2" r="349.3"/>
	<g>
		<g>
			<path class="st5" d="M677.1,232.1L626,271.2l12.2,8.6l9.5-8.1l12,8.4l-4.4,11.7l12.3,8.6l19.7-61.3L677.1,232.1z M670,253.2
				l-5.8,15.4l-6.8-4.9L670,253.2z"/>
			<path class="st6" d="M625.1,268.6l10.4,7.3l9.5-8.1l13.3,9.4l0,0l0,0l-4.4,11.7l10.4,7.3l18.9-59.2l-9-6.3L625.1,268.6z
				 M662,267.6l-2.7-1.9l-6.4-4.5l16.7-14.1L662,267.6z"/>
		</g>
		<g>
			<path class="st5" d="M764.7,491.5l0.1,1.1c0.2,2.5,0.1,5.7,0,9.1c-0.5,11-1.1,24.8,10.4,28.7c4.6,1.6,11.3,2.1,16.3-0.6
				c2.1-1.1,3.8-2.8,4.9-4.8c3,4.6,8.5,6.4,14.1,6c2-0.1,4-0.6,5.8-1.3l0,0c10.7-4.6,10.3-16.8,10-27.6c-0.1-3.4-0.2-6.5,0-9.3
				l0.1-1.1L764.7,491.5z M801.2,505.8l12.8,0.1c0,1.7-0.1,4-0.1,5.2l0,0c0,3.3-1.3,5.2-3.9,5.6c-3.4,0.5-5.7,0.2-7.1-1.1
				C801,514,801,510.1,801.2,505.8z M790.5,505.9l-0.1,7.2l0,0c0,0.3-0.1,0.6-0.2,1c-0.1,0.2-0.1,0.4-0.2,0.7
				c-1,2.8-5.1,3.1-6.8,3.1l0,0c-2.3,0-3.9-0.4-5-1.4c-1.9-1.9-1.7-5.5-1.6-9.2c0-0.4,0-1,0-1.6L790.5,505.9z"/>
			<path class="st6" d="M763,490.2c0.9,11-4.4,32.2,9.6,36.9c7.1,2.5,18.3,1.7,20.6-7c3.1,7.6,12.7,8.9,19.6,6.3
				c13.3-5.8,8.3-24.4,9.4-36L763,490.2z M788.6,510.8c0,0.7-0.2,1.2-0.3,1.9c-1,3.2-4.8,4-7.8,4c-9.2,0.3-7.5-7.9-7.5-14.3h15.9
				L788.6,510.8z M812.2,508.7c0,3.6-1.5,6.1-4.9,6.7c-10.6,1.6-10.3-4.8-10-13.1l14.8,0.1C812.3,504,812.2,507.2,812.2,508.7z"/>
		</g>
		<g>
			<path class="st5" d="M372.4,733.5c-6.1-3.9-13-5.1-18.8-3.2c-9.5,2-16.6,14.5-20.5,21.3c-5.9,10.6-6.2,19.1-1.2,26.2
				c4.4,6.4,12.7,11.2,21.6,16.2l0.9,0.4l32.1-52.3L372.4,733.5z M341.5,770.1c-0.8-2.9,0.3-6.5,3.7-11.6c0.7-1,1.3-2.2,2.1-3.4
				c3-5.1,7.5-12.6,11.7-13.2h0.1c0.1,0,0.3,0,0.6,0c0.1,0,0.1,0,0.2,0h0.2c0.1,0,0.2,0,0.3,0c0.3,0,0.7,0,0.9,0.1
				c0.2,0.1,0.3,0.1,0.4,0.1h0.1l0.1,0.1h0.1c1.7,0.3,3.7,1.6,5.3,2.7c0.2,0.1,0.3,0.2,0.6,0.3L348.4,777
				C344.5,774.7,342.3,772.6,341.5,770.1z"/>
			<path class="st6" d="M370.3,731.8c-5.3-3.4-12-5.1-18.1-3.1c-8.6,1.8-15.3,12.7-19.8,20.7c-12.3,22.4,2.2,30.9,19.9,41l31.1-50.5
				L370.3,731.8z M347.3,775.6L347.3,775.6L347.3,775.6c-10.4-5.1-10.6-10.9-4.5-20.4c3.4-5.2,8.9-16.4,14.6-17.1
				c0.3-0.1,0.8,0,1.1,0c0.4,0,1,0,1.4,0.1c0.2,0.1,0.6,0.1,0.8,0.2c2.4,0.4,5,2.4,7.1,3.7L347.3,775.6z"/>
		</g>
		<g>
			<polygon class="st5" points="238.7,493.5 232.7,493.5 226.7,493.6 226.8,515.7 213.2,515.7 213.1,497.1 201.3,497.1 201.4,515.8 
				189.6,515.8 189.5,493.9 177.3,494 177.5,530 239,529.6 			"/>
			<polygon class="st6" points="230,492 225.2,492 225.3,514 209.5,514.1 209.4,495.5 199.8,495.5 199.9,514.2 185.8,514.2 
				185.8,514.2 185.8,514.2 185.7,492.3 175.7,492.4 176,526.3 235.2,526 235.1,492 			"/>
		</g>
		<g>
			<polygon class="st5" points="353.4,256.5 346.8,246.4 331.2,256.6 324.1,245.6 341.5,234.2 334.8,224 305.7,243.3 339.4,294.6 
				351.1,286.8 337.8,266.7 			"/>
			<polygon class="st6" points="335.4,292.1 345.5,285.5 332.2,265.4 347.7,255 342.3,246.7 326.8,257 318.4,244.3 318.4,244.3 
				318.4,244.3 335.7,232.9 330.3,224.5 302.9,242.5 			"/>
		</g>
		<g>
			<path class="st5" d="M661.8,751.8c-3.5-7.5-10.2-21.4-23.2-22.2l0,0l0,0c-0.2,0-0.4,0-0.6,0c-0.6,0-1.1,0-1.6,0.1
				c-8.5,0.9-15.6,5.3-19.1,11.9c-3.2,6-2.9,13.1,0.8,19.8l0.4,0.9l12.5-6.4l-0.4-1c-1.2-2.3-2.4-5.8-1.4-8.4
				c0.6-1.7,2.1-2.9,4.3-3.8c0.7-0.3,1.4-0.4,2.2-0.7l0.2-0.1h0.1c0.6,0,1.1-0.1,1.6,0h0.1c4.2,0.7,8.1,8.8,11,14.6
				c1,2.1,1.9,4,2.8,5.4c2.9,5.5,3.7,9.5,2.4,12.3c-0.9,2-2.9,3.3-6,4.1c-0.6,0.1-1,0.2-1.4,0.2c-0.6,0-1.2-0.1-1.7-0.4
				c-2.2-1.3-3.3-3.1-4.9-5.7l-1-1.6l-12.5,6.4l0.6,1c2.8,4.4,6.4,9.3,12.6,11.6c0.9,0.3,1.8,0.6,2.7,0.8h0.1
				c0.9,0.1,1.9,0.2,2.8,0.2c3.4,0,7-1,10.7-2.9c5.4-2.5,9.1-6.5,10.6-11.9C668.7,769.5,666.9,760.5,661.8,751.8z"/>
			<path class="st6" d="M660.8,748.6c-4.4-9.4-10.7-20.8-22.3-21.6c-0.7,0-1.4,0-2.1,0c-15.6,1.7-25.5,15.5-17.6,30.1l10.6-5.4
				c-2.8-5.4-3.3-11.1,3.4-13.5c0.9-0.3,1.8-0.6,2.8-0.8c0.7,0,1.4-0.1,2.1,0c6.2,1,11.1,14.6,14.6,20.6c3.9,7.5,5.7,15.4-4.2,18
				c-0.6,0.1-1.1,0.2-1.7,0.2c-0.8,0-1.6-0.2-2.2-0.6l0,0c-2.8-1.6-3.9-3.8-5.7-6.8l-10.6,5.4c3.2,5.1,6.8,9.2,12.2,11.2
				c0.9,0.3,1.7,0.6,2.5,0.8c4.4,0.8,9-0.6,12.9-2.5C669.8,777,668.2,761,660.8,748.6z"/>
		</g>
	</g>
	<g>
		<line class="st7" x1="456.5" y1="2.1" x2="502.1" y2="499"/>
		<line class="st7" x1="541.1" y1="1.8" x2="502.1" y2="498.5"/>
		<line class="st7" x1="946.6" y1="272.9" x2="502.4" y2="499.4"/>
		<line class="st7" x1="502.9" y1="498.5" x2="928.1" y2="760.5"/>
		<line class="st7" x1="502.9" y1="498.5" x2="503.1" y2="1000.2"/>
		<line class="st7" x1="502.9" y1="498.5" x2="76.4" y2="764.2"/>
		<line class="st7" x1="502.5" y1="499.7" x2="53.4" y2="276.8"/>
	</g>
</g>
</svg>
