<?xml version="1.0" encoding="utf-8"?>
<!-- Generator: Adobe Illustrator 21.0.0, SVG Export Plug-In . SVG Version: 6.00 Build 0)  -->
<svg version="1.1" xmlns="http://www.w3.org/2000/svg" xmlns:xlink="http://www.w3.org/1999/xlink" x="0px" y="0px"
	 viewBox="0 0 283.5 283.5" style="enable-background:new 0 0 283.5 283.5;" xml:space="preserve">
<style type="text/css">
	.st0{fill:url(#SVGID_1_);}
	.st1{fill:url(#SVGID_2_);stroke:#000000;stroke-width:1.0628;stroke-miterlimit:10;}
	.st2{fill:#0A0C06;stroke:#1D0F01;stroke-width:3.1921;stroke-miterlimit:10;}
	.st3{opacity:0;fill:#0A0C06;}
	.st4{fill:#E33413;stroke:#000000;stroke-width:1.0628;stroke-miterlimit:10;}
	.st5{fill:#282828;stroke:#000000;stroke-width:1.0628;stroke-miterlimit:10;}
	.st6{fill:#4EAE33;stroke:#000000;stroke-width:1.0628;stroke-miterlimit:10;}
	.st7{fill:none;stroke:#000000;stroke-width:3.1885;stroke-miterlimit:10;}
	.st8{fill:none;stroke:#000000;stroke-width:2.3458;stroke-miterlimit:10;}
	.st9{fill:none;stroke:#272727;stroke-width:1.0628;stroke-miterlimit:10;}
	.st10{opacity:0.2;}
	.st11{stroke:#000000;stroke-width:1.1564;stroke-miterlimit:10;}
	.st12{font-family:'Impact';}
	.st13{font-size:20.895px;}
	.st14{fill:#FFFFFF;}
	.st15{fill:url(#SVGID_3_);}
	.st16{fill:url(#SVGID_4_);}
	.st17{fill:#0A0C06;stroke:#6A2100;stroke-width:3.4691;stroke-miterlimit:10;}
	.st18{fill:none;stroke:#370101;stroke-width:2.8117;stroke-miterlimit:10;}
	.st19{opacity:0.3;fill:url(#SVGID_5_);stroke:#000000;stroke-width:1.0628;stroke-miterlimit:10;}
	.st20{opacity:0.8;}
	.st21{fill:#0A0C06;}
	.st22{fill:#141414;}
	.st23{fill:url(#SVGID_6_);}
	.st24{fill:#F59B00;}
	.st25{fill:url(#SVGID_7_);}
	.st26{fill:#F3740B;}
	.st27{fill:#CCCCCC;}
	.st28{fill:url(#SVGID_8_);}
</style>
<g id="Ebene_4">
	
		<linearGradient id="SVGID_1_" gradientUnits="userSpaceOnUse" x1="-356.8219" y1="-413.42" x2="-298.8219" y2="-454.42" gradientTransform="matrix(2.169977e-02 0.2231 0.4679 -4.550693e-02 525.8984 192.3024)">
		<stop  offset="0" style="stop-color:#010202;stop-opacity:0.6"/>
		<stop  offset="1" style="stop-color:#010202;stop-opacity:0.1"/>
	</linearGradient>
	<path class="st0" d="M282.5,214c1.9,19.2-25.8,37.6-61.8,41.1s-66.7-9.2-68.6-28.4c-1.9-19.2,25.8-37.6,61.8-41.1
		S280.6,194.8,282.5,214z"/>
</g>
<g id="Ebene_5">
	<g>
		<radialGradient id="SVGID_2_" cx="141.2674" cy="136.9804" r="94.6477" gradientUnits="userSpaceOnUse">
			<stop  offset="0.8859" style="stop-color:#370101"/>
			<stop  offset="0.9417" style="stop-color:#730000"/>
			<stop  offset="1" style="stop-color:#440101"/>
		</radialGradient>
		<circle class="st1" cx="141.3" cy="137" r="94.6"/>
		<g>
			<path class="st2" d="M141.3,3.6C67.6,3.6,7.9,63.3,7.9,137s59.7,133.4,133.4,133.4S274.7,210.7,274.7,137S214.9,3.6,141.3,3.6z
				 M141.3,224.1c-48.1,0-87.1-39-87.1-87.1s39-87.1,87.1-87.1c48.1,0,87.1,39,87.1,87.1S189.4,224.1,141.3,224.1z"/>
			<circle class="st3" cx="141.3" cy="137" r="94.6"/>
		</g>
		<path class="st4" d="M116.2,42.5l-8.8-33.4c-7.3,1.9-14.3,4.5-21.1,7.5l14.3,31.5C105.6,45.8,110.8,44,116.2,42.5z"/>
		<path class="st4" d="M47.8,108.5L14.7,98.5c-2.1,7.1-3.7,14.4-4.7,21.9l34.3,4.3C45,119.1,46.2,113.8,47.8,108.5z"/>
		<path class="st5" d="M132.5,39.7l-3-34.4c-7.6,0.7-14.9,2-22.1,3.9l8.8,33.4C121.5,41.1,126.9,40.2,132.5,39.7z"/>
		<path class="st6" d="M141.3,39.3c2.8,0,5.6,0.1,8.3,0.4l3-34.4c-3.7-0.3-7.5-0.5-11.3-0.5c-4,0-7.9,0.2-11.8,0.5l3,34.4
			C135.4,39.4,138.3,39.3,141.3,39.3z"/>
		<path class="st4" d="M86.2,56.2L66.8,27.7c-6.2,4.2-12,8.9-17.4,14.1l24,24.9C77.4,62.9,81.7,59.4,86.2,56.2z"/>
		<path class="st4" d="M165.9,42.4L174.7,9c-7.1-1.9-14.5-3.1-22.1-3.8l-3,34.4C155.2,40.1,160.6,41,165.9,42.4z"/>
		<path class="st5" d="M53.9,93.2L23,77.7c-3.3,6.6-6.1,13.6-8.3,20.8l33.1,10.1C49.4,103.2,51.5,98.1,53.9,93.2z"/>
		<path class="st4" d="M62.6,79.1L34.7,58.6c-4.4,6-8.3,12.4-11.7,19.1l30.9,15.5C56.4,88.2,59.3,83.5,62.6,79.1z"/>
		<path class="st5" d="M73.4,66.7l-24-24.9C44.1,47,39.2,52.6,34.7,58.6l27.8,20.5C65.8,74.7,69.5,70.5,73.4,66.7z"/>
		<path class="st5" d="M100.6,48.1L86.3,16.7c-6.8,3.1-13.3,6.8-19.5,11l19.4,28.6C90.8,53.1,95.6,50.4,100.6,48.1z"/>
		<path class="st4" d="M239,137c0,1.4,0,2.8-0.1,4.2l34.5,1.5c0.1-1.9,0.1-3.8,0.1-5.7c0-5.7-0.4-11.3-1.1-16.8l-34.3,4.4
			C238.7,128.6,239,132.8,239,137z"/>
		<path class="st5" d="M238.2,124.6l34.3-4.4c-1-7.5-2.5-14.9-4.7-21.9l-33.1,10.1C236.3,113.6,237.5,119,238.2,124.6z"/>
		<path class="st4" d="M234.7,108.3l33.1-10.1c-2.2-7.2-5-14.2-8.4-20.8L228.5,93C231,97.9,233.1,103,234.7,108.3z"/>
		<path class="st5" d="M236.8,157.6l33.8,7.3c1.6-7.2,2.5-14.7,2.8-22.3l-34.5-1.5C238.6,146.8,237.9,152.3,236.8,157.6z"/>
		<path class="st5" d="M208.8,66.4l24-24.9c-5.4-5.2-11.2-9.9-17.4-14.1L195.9,56C200.5,59.1,204.8,62.6,208.8,66.4z"/>
		<path class="st5" d="M228.5,93l30.9-15.5c-3.4-6.7-7.3-13.1-11.8-19.1l-27.8,20.5C223.1,83.3,226,88,228.5,93z"/>
		<path class="st5" d="M181.5,47.9l14.3-31.5C189,13.4,182,10.9,174.7,9l-8.8,33.4C171.3,43.8,176.5,45.7,181.5,47.9z"/>
		<path class="st4" d="M219.8,78.9l27.8-20.5c-4.5-6-9.4-11.7-14.8-16.8l-24,24.9C212.8,70.2,216.5,74.4,219.8,78.9z"/>
		<path class="st4" d="M195.9,56l19.4-28.6c-6.2-4.2-12.7-7.9-19.6-11l-14.3,31.5C186.6,50.2,191.4,52.9,195.9,56z"/>
		<path class="st4" d="M157.6,233.3l5.9,34.1c7.5-1.3,14.7-3.2,21.7-5.6l-11.5-32.6C168.5,231,163.2,232.4,157.6,233.3z"/>
		<path class="st4" d="M124.6,233.2l-5.8,34.1c7.3,1.2,14.7,1.9,22.3,1.9l0-34.6C135.5,234.7,130,234.2,124.6,233.2z"/>
		<path class="st4" d="M188.8,222.3l16.9,30.2c6.6-3.7,12.8-7.9,18.6-12.6l-21.7-26.9C198.3,216.5,193.7,219.6,188.8,222.3z"/>
		<path class="st5" d="M141.3,234.7c-0.1,0-0.1,0-0.2,0l0,34.6c0,0,0.1,0,0.1,0c7.6,0,15-0.6,22.2-1.9l-5.9-34.1
			C152.3,234.2,146.8,234.7,141.3,234.7z"/>
		<path class="st5" d="M173.7,229.2l11.5,32.6c7.1-2.5,14-5.6,20.5-9.2l-16.9-30.2C184,225,178.9,227.3,173.7,229.2z"/>
		<path class="st4" d="M236.8,157.6c-1.2,5.5-2.8,10.8-4.9,15.9l32.1,12.9c2.8-6.9,5-14.1,6.6-21.5L236.8,157.6z"/>
		<path class="st5" d="M224.4,188.3l29.4,18.1c3.9-6.3,7.3-13,10.1-20l-32.1-12.9C229.8,178.6,227.3,183.6,224.4,188.3z"/>
		<path class="st5" d="M202.5,213.1l21.7,26.9c5.8-4.7,11.3-9.9,16.2-15.5l-25.9-22.8C210.9,205.7,206.9,209.6,202.5,213.1z"/>
		<path class="st4" d="M214.5,201.6l25.9,22.8c4.9-5.6,9.4-11.6,13.4-18l-29.4-18.1C221.5,193,218.2,197.4,214.5,201.6z"/>
		<path class="st5" d="M43.6,137c0-4.2,0.3-8.3,0.8-12.3L10,120.4c-0.7,5.4-1,11-1,16.6c0,1.9,0.1,3.8,0.1,5.8l34.5-1.5
			C43.6,139.8,43.6,138.4,43.6,137z"/>
		<path class="st4" d="M50.6,173.4l-32.1,12.9c2.8,7,6.2,13.7,10.1,20L58,188.2C55.2,183.5,52.7,178.6,50.6,173.4z"/>
		<path class="st5" d="M58,188.2l-29.4,18.2c3.9,6.4,8.4,12.4,13.3,18l25.9-22.9C64.2,197.3,61,192.9,58,188.2z"/>
		<path class="st4" d="M43.7,141.2l-34.5,1.5c0.3,7.6,1.3,15,2.8,22.2l33.8-7.3C44.6,152.3,43.9,146.8,43.7,141.2z"/>
		<path class="st4" d="M67.9,201.5L42,224.3c4.9,5.6,10.3,10.8,16.2,15.5l21.7-26.9C75.5,209.4,71.5,205.6,67.9,201.5z"/>
		<path class="st5" d="M45.8,157.6L12,164.9c1.6,7.4,3.8,14.5,6.6,21.4l32.1-12.9C48.6,168.3,46.9,163,45.8,157.6z"/>
		<path class="st5" d="M79.8,212.9l-21.7,26.9c5.8,4.7,12,8.9,18.5,12.6l16.8-30.2C88.7,219.5,84.1,216.4,79.8,212.9z"/>
		<path class="st4" d="M93.5,222.2l-16.8,30.2c6.5,3.6,13.3,6.7,20.4,9.3l11.5-32.6C103.3,227.2,98.3,224.9,93.5,222.2z"/>
		<path class="st5" d="M108.6,229.1l-11.5,32.6c7,2.5,14.2,4.4,21.7,5.7l5.8-34.1C119.1,232.3,113.7,230.9,108.6,229.1z"/>
		<circle class="st7" cx="141.3" cy="137" r="131.7"/>
		<circle class="st8" cx="141.3" cy="137" r="96.9"/>
		<path class="st9" d="M100.6,48.1c-5,2.3-9.9,5-14.4,8.1l54.8,80.6L100.6,48.1z"/>
		<path class="st9" d="M132.5,39.7c-5.6,0.5-11,1.5-16.3,2.9l24.9,94.4L132.5,39.7z"/>
		<path class="st9" d="M116.2,42.5c-5.4,1.4-10.6,3.3-15.6,5.6l40.4,88.8L116.2,42.5z"/>
		<path class="st9" d="M149.6,39.6c-2.7-0.2-5.5-0.4-8.3-0.4c-3,0-5.9,0.1-8.8,0.4l8.6,97.2L149.6,39.6z"/>
		<path class="st9" d="M53.9,93.2c-2.5,4.9-4.5,10-6.1,15.3l93.3,28.4L53.9,93.2z"/>
		<path class="st9" d="M165.9,42.4c-5.3-1.4-10.7-2.3-16.3-2.8l-8.5,97.2L165.9,42.4z"/>
		<path class="st9" d="M73.4,66.7c-4,3.8-7.6,8-10.9,12.4l78.5,57.8L73.4,66.7z"/>
		<path class="st9" d="M86.2,56.2c-4.6,3.1-8.8,6.6-12.8,10.4l67.6,70.2L86.2,56.2z"/>
		<path class="st9" d="M62.6,79.1c-3.3,4.4-6.2,9.1-8.6,14.1l87.2,43.7L62.6,79.1z"/>
		<path class="st9" d="M219.8,78.9c-3.3-4.4-7-8.6-11-12.4l-67.8,70.5L219.8,78.9z"/>
		<path class="st9" d="M181.5,47.9c-5-2.3-10.2-4.1-15.6-5.5l-24.8,94.5L181.5,47.9z"/>
		<path class="st9" d="M228.5,93c-2.5-5-5.4-9.7-8.7-14.1l-78.7,58L228.5,93z"/>
		<path class="st9" d="M234.7,108.3c-1.6-5.3-3.7-10.5-6.2-15.4l-87.4,43.9L234.7,108.3z"/>
		<path class="st9" d="M238.9,141.1c0.1-1.4,0.1-2.8,0.1-4.2c0-4.2-0.3-8.4-0.8-12.4l-97.1,12.3L238.9,141.1z"/>
		<path class="st9" d="M238.2,124.6c-0.7-5.6-1.9-11-3.5-16.2l-93.6,28.5L238.2,124.6z"/>
		<path class="st9" d="M195.9,56c-4.6-3.1-9.4-5.8-14.5-8.1l-40.4,89L195.9,56z"/>
		<path class="st9" d="M208.8,66.4c-4-3.8-8.3-7.3-12.9-10.4l-54.9,80.9L208.8,66.4z"/>
		<path class="st9" d="M47.8,108.5c-1.6,5.2-2.7,10.6-3.4,16.2l96.7,12.2L47.8,108.5z"/>
		<path class="st9" d="M202.5,213.1c4.3-3.5,8.3-7.3,12-11.5l-73.5-64.7L202.5,213.1z"/>
		<path class="st9" d="M173.7,229.2c5.3-1.9,10.3-4.1,15.1-6.8l-47.7-85.4L173.7,229.2z"/>
		<path class="st9" d="M157.6,233.3c5.5-0.9,10.9-2.3,16.1-4.1l-32.6-92.3L157.6,233.3z"/>
		<path class="st9" d="M141.1,234.7c0.1,0,0.1,0,0.2,0c5.6,0,11-0.5,16.4-1.4l-16.6-96.4L141.1,234.7z"/>
		<path class="st9" d="M188.8,222.3c4.9-2.7,9.4-5.8,13.7-9.3l-61.5-76.2L188.8,222.3z"/>
		<path class="st9" d="M214.5,201.6c3.7-4.1,7-8.6,9.9-13.3l-83.4-51.4L214.5,201.6z"/>
		<path class="st9" d="M124.6,233.2c5.4,0.9,10.9,1.4,16.5,1.4l0-97.8L124.6,233.2z"/>
		<path class="st9" d="M231.9,173.5c2.1-5.1,3.7-10.4,4.9-15.9l-95.7-20.7L231.9,173.5z"/>
		<path class="st9" d="M141.1,136.9l95.7,20.7c1.1-5.3,1.9-10.8,2.1-16.5L141.1,136.9z"/>
		<path class="st9" d="M224.4,188.3c2.9-4.7,5.4-9.6,7.5-14.8l-90.8-36.6L224.4,188.3z"/>
		<path class="st9" d="M45.8,157.6c1.2,5.5,2.8,10.7,4.8,15.8l90.5-36.5L45.8,157.6z"/>
		<path class="st9" d="M44.3,124.7c-0.5,4-0.8,8.1-0.8,12.3c0,1.4,0,2.8,0.1,4.2l97.4-4.3L44.3,124.7z"/>
		<path class="st9" d="M58,188.2c2.9,4.7,6.2,9.2,9.8,13.3l73.2-64.6L58,188.2z"/>
		<path class="st9" d="M50.6,173.4c2.1,5.2,4.6,10.1,7.5,14.8l83-51.3L50.6,173.4z"/>
		<path class="st9" d="M43.7,141.2c0.2,5.6,0.9,11.1,2.1,16.4l95.3-20.7L43.7,141.2z"/>
		<path class="st9" d="M67.9,201.5c3.6,4.1,7.6,8,11.9,11.5l61.3-76L67.9,201.5z"/>
		<path class="st9" d="M93.5,222.2c4.8,2.7,9.8,5,15.1,6.8l32.5-92.2L93.5,222.2z"/>
		<path class="st9" d="M108.6,229.1c5.2,1.8,10.5,3.2,16,4.2l16.5-96.4L108.6,229.1z"/>
		<path class="st9" d="M79.8,212.9c4.3,3.5,8.9,6.6,13.7,9.3l47.6-85.3L79.8,212.9z"/>
		<g class="st10">
			<text transform="matrix(0.7378 2.863590e-03 -3.881124e-03 1 137.5586 31.0684)" class="st11 st12 st13">0</text>
			<text transform="matrix(0.7267 0.1274 -0.1727 0.985 151.2597 31.2065)" class="st11 st12 st13">32</text>
			<text transform="matrix(0.6948 0.2483 -0.3365 0.9417 169.8079 34.7104)" class="st11 st12 st13">15</text>
			<text transform="matrix(0.6429 0.362 -0.4907 0.8714 186.6323 40.9795)" class="st11 st12 st13">19</text>
			<text transform="matrix(0.5726 0.4654 -0.6307 0.776 205.0814 52.3668)" class="st11 st12 st13">4</text>
			<text transform="matrix(0.4858 0.5554 -0.7527 0.6584 216.1975 61.7792)" class="st11 st12 st13">21</text>
			<text transform="matrix(0.385 0.6294 -0.8531 0.5218 229.5962 78.4137)" class="st11 st12 st13">2</text>
			<text transform="matrix(0.2732 0.6854 -0.9289 0.3703 236.5161 89.8983)" class="st11 st12 st13">25</text>
			<text transform="matrix(0.1536 0.7217 -0.9781 0.2081 243.5236 108.6586)" class="st11 st12 st13">17</text>
			<text transform="matrix(2.952033e-02 0.7372 -0.9992 4.000995e-02 246.7575 124.3493)" class="st11 st12 st13">34</text>
			<text transform="matrix(-9.537980e-02 0.7316 -0.9916 -0.1293 246.8269 146.5301)" class="st11 st12 st13">6</text>
			<text transform="matrix(-0.2175 0.705 -0.9555 -0.2948 244.6414 161.183)" class="st11 st12 st13">27</text>
			<text transform="matrix(-0.3335 0.6582 -0.892 -0.4519 239.1277 178.1655)" class="st11 st12 st13">13</text>
			<text transform="matrix(-0.4398 0.5924 -0.8029 -0.5961 231.5046 193.1027)" class="st11 st12 st13">36</text>
			<text transform="matrix(-0.5335 0.5097 -0.6908 -0.7231 219.0035 209.1836)" class="st11 st12 st13">11</text>
			<text transform="matrix(-0.6119 0.4123 -0.5588 -0.8293 207.6465 219.9648)" class="st11 st12 st13">30</text>
			<text transform="matrix(-0.6727 0.303 -0.4107 -0.9118 188.523 231.8523)" class="st11 st12 st13">8</text>
			<text transform="matrix(-0.7142 0.1851 -0.2509 -0.968 175.9872 237.3885)" class="st11 st12 st13">23</text>
			<text transform="matrix(-0.7352 6.184733e-02 -8.382387e-02 -0.9965 157.6481 241.8841)" class="st11 st12 st13">10</text>
			<text transform="matrix(-0.7351 -6.317823e-02 8.562768e-02 -0.9963 136.3166 242.8519)" class="st11 st12 st13">5</text>
			<text transform="matrix(-0.7139 -0.1864 0.2526 -0.9676 122.4339 241.5235)" class="st11 st12 st13">24</text>
			<text transform="matrix(-0.6722 -0.3042 0.4124 -0.911 104.4906 236.5865)" class="st11 st12 st13">16</text>
			<text transform="matrix(-0.6112 -0.4134 0.5603 -0.8283 89.0846 229.5435)" class="st11 st12 st13">33</text>
			<text transform="matrix(-0.5326 -0.5106 0.6921 -0.7218 70.0888 215.4581)" class="st11 st12 st13">1</text>
			<text transform="matrix(-0.4387 -0.5932 0.804 -0.5946 61.1453 206.756)" class="st11 st12 st13">20</text>
			<text transform="matrix(-0.3323 -0.6588 0.8929 -0.4503 49.9674 191.1383)" class="st11 st12 st13">14</text>
			<text transform="matrix(-0.2163 -0.7054 0.9561 -0.2931 42.2038 175.1757)" class="st11 st12 st13">31</text>
			<text transform="matrix(-9.405518e-02 -0.7318 0.9918 -0.1275 36.7538 154.6153)" class="st11 st12 st13">9</text>
			<text transform="matrix(3.085487e-02 -0.7372 0.9991 4.181869e-02 35.1131 140.7427)" class="st11 st12 st13">22</text>
			<text transform="matrix(0.1549 -0.7214 0.9777 0.2099 36.144 122.0958)" class="st11 st12 st13">18</text>
			<text transform="matrix(0.2745 -0.6849 0.9282 0.372 39.7992 105.4766)" class="st11 st12 st13">29</text>
			<text transform="matrix(0.3862 -0.6287 0.8521 0.5234 49.4473 84.1209)" class="st11 st12 st13">7</text>
			<text transform="matrix(0.4868 -0.5545 0.7515 0.6597 56.1017 73.4577)" class="st11 st12 st13">28</text>
			<text transform="matrix(0.5734 -0.4643 0.6293 0.7771 68.9723 59.2423)" class="st11 st12 st13">12</text>
			<text transform="matrix(0.6436 -0.3609 0.4891 0.8722 81.8987 48.8512)" class="st11 st12 st13">35</text>
			<text transform="matrix(0.6952 -0.247 0.3348 0.9423 101.965 38.547)" class="st11 st12 st13">3</text>
			<text transform="matrix(0.727 -0.1261 0.1709 0.9853 114.7941 34.0827)" class="st11 st12 st13">26</text>
		</g>
		<g>
			<text transform="matrix(0.7378 0 0 1 137.1338 31.0723)" class="st14 st12 st13">0</text>
			<text transform="matrix(0.7272 0.1246 -0.1688 0.9856 150.8531 31.172)" class="st14 st12 st13">32</text>
			<text transform="matrix(0.6958 0.2456 -0.3328 0.943 169.4117 34.6014)" class="st14 st12 st13">15</text>
			<text transform="matrix(0.6443 0.3595 -0.4873 0.8732 186.2594 40.805)" class="st14 st12 st13">19</text>
			<text transform="matrix(0.5744 0.4631 -0.6277 0.7784 204.7492 52.1173)" class="st14 st12 st13">4</text>
			<text transform="matrix(0.4879 0.5535 -0.7501 0.6613 215.9077 61.4945)" class="st14 st12 st13">21</text>
			<text transform="matrix(0.3875 0.6279 -0.851 0.5251 229.3661 78.072)" class="st14 st12 st13">2</text>
			<text transform="matrix(0.2759 0.6843 -0.9275 0.3739 236.3319 89.5323)" class="st14 st12 st13">25</text>
			<text transform="matrix(0.1564 0.7211 -0.9773 0.2119 243.4131 108.2608)" class="st14 st12 st13">17</text>
			<text transform="matrix(3.238140e-02 0.7371 -0.999 4.388766e-02 246.7104 123.9423)" class="st14 st12 st13">34</text>
			<text transform="matrix(-9.253949e-02 0.732 -0.9921 -0.1254 246.8606 146.1198)" class="st14 st12 st13">6</text>
			<text transform="matrix(-0.2148 0.7059 -0.9567 -0.2911 244.7332 160.782)" class="st14 st12 st13">27</text>
			<text transform="matrix(-0.3309 0.6595 -0.8938 -0.4485 239.2861 177.7868)" class="st14 st12 st13">13</text>
			<text transform="matrix(-0.4375 0.5941 -0.8052 -0.593 231.7217 192.7546)" class="st14 st12 st13">36</text>
			<text transform="matrix(-0.5315 0.5117 -0.6936 -0.7204 219.2843 208.8837)" class="st14 st12 st13">11</text>
			<text transform="matrix(-0.6103 0.4146 -0.562 -0.8272 207.9697 219.708)" class="st14 st12 st13">30</text>
			<text transform="matrix(-0.6715 0.3056 -0.4142 -0.9102 188.8893 231.6667)" class="st14 st12 st13">8</text>
			<text transform="matrix(-0.7135 0.1879 -0.2546 -0.967 176.3745 237.2524)" class="st14 st12 st13">23</text>
			<text transform="matrix(-0.735 6.470037e-02 -8.769070e-02 -0.9961 158.0536 241.8189)" class="st14 st12 st13">10</text>
			<text transform="matrix(-0.7354 -6.032467e-02 8.176015e-02 -0.9967 136.7294 242.8703)" class="st14 st12 st13">5</text>
			<text transform="matrix(-0.7146 -0.1836 0.2489 -0.9685 122.8381 241.5956)" class="st14 st12 st13">24</text>
			<text transform="matrix(-0.6733 -0.3016 0.4088 -0.9126 104.8793 236.7299)" class="st14 st12 st13">16</text>
			<text transform="matrix(-0.6128 -0.411 0.557 -0.8305 89.4432 229.7464)" class="st14 st12 st13">33</text>
			<text transform="matrix(-0.5346 -0.5086 0.6893 -0.7245 70.3908 215.7333)" class="st14 st12 st13">1</text>
			<text transform="matrix(-0.441 -0.5915 0.8017 -0.5977 61.4183 207.0678)" class="st14 st12 st13">20</text>
			<text transform="matrix(-0.3348 -0.6575 0.8911 -0.4538 50.1768 191.4937)" class="st14 st12 st13">14</text>
			<text transform="matrix(-0.219 -0.7046 0.9549 -0.2968 42.3521 175.5614)" class="st14 st12 st13">31</text>
			<text transform="matrix(-9.689469e-02 -0.7314 0.9913 -0.1313 36.8213 155.0207)" class="st14 st12 st13">9</text>
			<text transform="matrix(2.799356e-02 -0.7373 0.9993 3.794065e-02 35.1213 141.1537)" class="st14 st12 st13">22</text>
			<text transform="matrix(0.1521 -0.722 0.9785 0.2061 36.085 122.5052)" class="st14 st12 st13">18</text>
			<text transform="matrix(0.2718 -0.6859 0.9297 0.3684 39.6767 105.8694)" class="st14 st12 st13">29</text>
			<text transform="matrix(0.3837 -0.6302 0.8541 0.5201 49.2371 84.474)" class="st14 st12 st13">7</text>
			<text transform="matrix(0.4846 -0.5564 0.7541 0.6568 55.8565 73.7904)" class="st14 st12 st13">28</text>
			<text transform="matrix(0.5716 -0.4666 0.6323 0.7747 68.6698 59.5244)" class="st14 st12 st13">12</text>
			<text transform="matrix(0.6422 -0.3634 0.4925 0.8703 81.5563 49.08)" class="st14 st12 st13">35</text>
			<text transform="matrix(0.6943 -0.2497 0.3384 0.941 101.5831 38.7033)" class="st14 st12 st13">3</text>
			<text transform="matrix(0.7265 -0.1289 0.1747 0.9846 114.3942 34.1865)" class="st14 st12 st13">26</text>
		</g>
		<radialGradient id="SVGID_3_" cx="141.2674" cy="136.9804" r="73.3282" gradientUnits="userSpaceOnUse">
			<stop  offset="0.8859" style="stop-color:#E7BD66"/>
			<stop  offset="0.9417" style="stop-color:#E7B84B"/>
			<stop  offset="1" style="stop-color:#FFAE6D"/>
		</radialGradient>
		<circle class="st15" cx="141.3" cy="137" r="73.3"/>
		<linearGradient id="SVGID_4_" gradientUnits="userSpaceOnUse" x1="113.0266" y1="152.7908" x2="193.9406" y2="107.4915">
			<stop  offset="7.524272e-02" style="stop-color:#E7BD66"/>
			<stop  offset="0.1966" style="stop-color:#ECC26B"/>
			<stop  offset="0.2864" style="stop-color:#E7B84B"/>
			<stop  offset="0.6966" style="stop-color:#FCDFCA"/>
			<stop  offset="1" style="stop-color:#FFAE6D"/>
		</linearGradient>
		<circle class="st16" cx="141.3" cy="137" r="73.3"/>
		<circle class="st17" cx="141.3" cy="137" r="73.3"/>
		<circle class="st18" cx="141.3" cy="137" r="73.3"/>
		<radialGradient id="SVGID_5_" cx="141.2663" cy="135.8198" r="132.2538" gradientUnits="userSpaceOnUse">
			<stop  offset="0" style="stop-color:#010202"/>
			<stop  offset="0.3107" style="stop-color:#010202;stop-opacity:3.259159e-02"/>
			<stop  offset="0.6335" style="stop-color:#010202;stop-opacity:0.2675"/>
			<stop  offset="0.801" style="stop-color:#010202;stop-opacity:0.7"/>
			<stop  offset="0.8592" style="stop-color:#010202;stop-opacity:0.2"/>
			<stop  offset="0.8932" style="stop-color:#010202;stop-opacity:0.7"/>
		</radialGradient>
		<path class="st19" d="M272.5,119c-1-7.5-2.5-14.9-4.7-21.9c-2.2-7.2-5-14.2-8.4-20.8c-3.4-6.7-7.3-13.1-11.8-19.1
			c-4.5-6-9.4-11.7-14.8-16.8c-5.4-5.2-11.2-9.9-17.4-14.1c-6.2-4.2-12.7-7.9-19.6-11c-6.8-3.1-13.8-5.6-21.1-7.5
			c-7.1-1.9-14.5-3.1-22.1-3.8c-3.7-0.3-7.5-0.5-11.3-0.5c-4,0-7.9,0.2-11.8,0.5c-7.6,0.7-14.9,2-22.1,3.9
			c-7.3,1.9-14.3,4.5-21.1,7.5c-6.8,3.1-13.3,6.8-19.5,11c-6.2,4.2-12,8.9-17.4,14.1c-5.4,5.2-10.3,10.8-14.7,16.8
			c-4.4,6-8.3,12.4-11.7,19.1c-3.3,6.6-6.1,13.6-8.3,20.8c-2.1,7.1-3.7,14.4-4.7,21.9c-0.7,5.4-1,11-1,16.6c0,1.9,0.1,3.8,0.1,5.8
			c0.3,7.6,1.3,15,2.8,22.2c1.6,7.4,3.8,14.5,6.6,21.4c2.8,7,6.2,13.7,10.1,20c3.9,6.4,8.4,12.4,13.3,18
			c4.9,5.6,10.3,10.8,16.2,15.5c5.8,4.7,12,8.9,18.5,12.6c6.5,3.6,13.3,6.7,20.4,9.3c7,2.5,14.2,4.4,21.7,5.7
			c7.3,1.2,14.7,1.9,22.3,1.9c0,0,0.1,0,0.1,0c7.6,0,15-0.6,22.2-1.9c7.5-1.3,14.7-3.2,21.7-5.6c7.1-2.5,14-5.6,20.5-9.2
			c6.6-3.7,12.8-7.9,18.6-12.6c5.8-4.7,11.3-9.9,16.2-15.5c4.9-5.6,9.4-11.6,13.4-18c3.9-6.3,7.3-13,10.1-20
			c2.8-6.9,5-14.1,6.6-21.5c1.6-7.2,2.5-14.7,2.8-22.3c0.1-1.9,0.1-3.8,0.1-5.7C273.5,130.1,273.2,124.5,272.5,119z M236.8,156.4
			c-1.2,5.5-2.8,10.8-4.9,15.9c-2.1,5.2-4.6,10.1-7.5,14.8c-2.9,4.7-6.2,9.2-9.9,13.3c-3.7,4.2-7.7,8-12,11.5
			c-4.3,3.5-8.9,6.6-13.7,9.3c-4.8,2.7-9.9,5-15.1,6.8c-5.2,1.8-10.5,3.2-16.1,4.1c-5.3,0.9-10.8,1.4-16.4,1.4c-0.1,0-0.1,0-0.2,0
			c-5.6,0-11.1-0.5-16.5-1.4c-5.5-0.9-10.9-2.4-16-4.2c-5.2-1.9-10.3-4.2-15.1-6.8c-4.8-2.7-9.4-5.8-13.7-9.3
			c-4.3-3.5-8.3-7.3-11.9-11.5c-3.6-4.1-6.9-8.6-9.8-13.3c-2.9-4.7-5.4-9.6-7.5-14.8c-2-5.1-3.7-10.4-4.8-15.8
			c-1.1-5.3-1.9-10.8-2.1-16.4c-0.1-1.4-0.1-2.8-0.1-4.2c0-4.2,0.3-8.3,0.8-12.3c0.7-5.5,1.9-10.9,3.4-16.2
			c1.6-5.3,3.7-10.4,6.1-15.3c2.5-4.9,5.4-9.7,8.6-14.1c3.3-4.4,6.9-8.6,10.9-12.4c4-3.8,8.2-7.3,12.8-10.4
			c4.5-3.1,9.3-5.8,14.4-8.1c5-2.3,10.2-4.2,15.6-5.6c5.3-1.4,10.7-2.4,16.3-2.9c2.9-0.3,5.8-0.4,8.8-0.4c2.8,0,5.6,0.1,8.3,0.4
			c5.6,0.5,11,1.4,16.3,2.8c5.4,1.4,10.6,3.3,15.6,5.5c5.1,2.3,9.9,5,14.5,8.1c4.6,3.1,8.9,6.6,12.9,10.4c4,3.8,7.7,8,11,12.4
			c3.3,4.4,6.2,9.1,8.7,14.1c2.5,4.9,4.6,10,6.2,15.4c1.6,5.2,2.8,10.7,3.5,16.2c0.5,4.1,0.8,8.2,0.8,12.4c0,1.4,0,2.8-0.1,4.2
			C238.6,145.6,237.9,151.1,236.8,156.4z"/>
	</g>
</g>
<g id="Ebene_3">
	<g class="st20">
		<g>
			<path class="st21" d="M80.3,150c-5.7,0-10.6-1.3-14.8-3.8c-0.3,0.1-0.6,0.4-0.9,0.5c-3.1,1.9-5.2,2.8-7.5,2.8
				c-2.1,0-4-0.8-5.6-2.2c-1-0.9-2.7-3-2.7-6.3V110c0-2.8,1.6-5.4,4-7c1.3-0.8,2.8-1.2,4.3-1.2c0.3,0,0.4,0,0.6,0
				c-3.1-3.9-5.2-6.9-6.3-9.2c-1.9-3.6-2.8-7.4-2.8-11.1c0-7.4,3.1-13.5,8.8-17.6c5-3.8,11-5.6,17.5-5.6c4.4,0,8.5,1,12.2,3.1
				c1.2-0.5,2.3-1,3.5-1.6c1.4-0.8,3.2-1.6,5.2-1.6c1.6,0,3,0.4,4.3,1.2c0.8,0.4,1.4,1,1.9,1.7c0.9,1,1.9,2.8,1.9,5.6v27.1
				c0,2.6-1.2,5-3.1,6.7l-0.1,0.1c-1,0.8-2.1,1.4-3.4,1.7c3.5,4.5,5.8,8.3,7.4,11.5c2.1,4.5,3.1,8.8,3.1,12.8
				c0,7.4-3.2,13.6-9.3,17.7C93.4,148.1,87.1,150,80.3,150z M66.3,113c0,3.1,0.9,7,2.6,11.3c1.6,3.8,3.4,6.3,5.4,7.8
				c0.4,0.3,0.8,0.4,1.7,0.4s1.4-0.3,1.8-0.5c0-0.1,0-0.4,0-0.8c0-1.6-0.5-3.4-1.7-5.3c-1.2-2.2-3.9-6.2-10-13.8v1H66.3z M77.4,75.5
				c0.5,1.6,2.2,4.9,7,10.9c-2.1-6.7-4-9.2-4.9-10C78.7,75.7,78.1,75.5,77.4,75.5z"/>
			<path class="st21" d="M66.4,137.2c-1.8,0.8-3.8,1.8-5.7,3c-1.9,1.2-3.1,1.8-3.6,1.8c-0.1,0-0.3,0-0.4-0.1
				c-0.1-0.1-0.1-0.3-0.1-0.6V110c0-0.1,0.1-0.3,0.3-0.3c0.1-0.1,0.3-0.1,0.5-0.1s0.5,0.1,0.8,0.3c0.4,0.3,0.6,0.6,0.6,1v2.1
				c0,4.1,1,8.8,3.2,14.1c2.1,5.3,4.9,9.1,8.3,11.3c1.7,1.2,3.6,1.7,6,1.7c2.6,0,4.8-0.8,6.7-2.2c1.9-1.4,2.8-3.8,2.8-6.7
				c0-2.8-0.9-5.8-2.6-9.1c-2.3-4.3-7.4-11-15.3-20.3c-4.9-5.8-8-10.1-9.4-12.7c-1.3-2.6-2.1-5.2-2.1-7.5c0-4.9,1.9-8.7,5.7-11.4
				c3.8-2.7,8.2-4.1,12.9-4.1c4.1,0,7.9,1.3,11.3,4c2.7-0.9,5.4-1.9,7.9-3.4c0.9-0.5,1.4-0.6,1.7-0.6c0.1,0,0.3,0,0.4,0.1
				s0.1,0.4,0.1,0.6v27.1c0,0.4-0.1,0.6-0.4,0.9c-0.1,0.1-0.4,0.3-0.6,0.3c-0.4,0-0.5-0.1-0.8-0.3c-0.1-0.1-0.5-1.3-1-3.6
				c-2.2-10.2-5.2-17.1-8.9-20.5c-2.2-1.9-4.7-2.8-7.5-2.8c-2.1,0-3.9,0.5-5.4,1.7c-1.6,1.2-2.3,2.7-2.3,4.9
				c0,3.9,3.8,10.4,11.1,19.4l7.2,8.8c4.9,6.1,8.3,10.9,10,14.4c1.7,3.5,2.5,6.7,2.5,9.6c0,4.9-1.9,8.7-6,11.5
				c-4,2.7-8.7,4.1-14,4.1C74.5,142.3,69.8,140.6,66.4,137.2z"/>
			<path class="st21" d="M104.5,149.2c-1.7,0-3.2-0.4-4.5-1.2c-2.6-1.6-4-4.1-4-7.1s1.6-5.6,4-7c0.6-0.4,1.3-0.6,2.1-0.9V75.6
				c-0.8-0.3-1.6-0.5-2.2-1c-2.5-1.6-3.9-4.1-3.9-7s1.4-5.4,4-7c1.4-0.9,3-1.3,4.7-1.3h24.3c4.5,0,9.1,0.6,13.3,2.1
				c3.5,1.2,6.6,2.8,9.4,5.2c3,2.3,5.2,4.7,6.7,7.1c2.3,3.6,3.4,7.8,3.4,12.3v5.2c0,5.4-1.7,10.4-5,14.5c-3.1,3.8-7.1,6.6-12,8.7
				c-3.2,1.3-6.7,2.2-10.2,2.7v16.3c0.6,0.3,1.3,0.5,1.8,0.8c2.6,1.4,4.1,4.1,4.1,7.1s-1.6,5.6-4,7c-1.4,0.8-3,1.2-4.5,1.2h-27.4
				V149.2z"/>
			<path class="st21" d="M109.7,68.2h-5.2c-0.3,0-0.5,0-0.6-0.1s-0.3-0.3-0.3-0.4c0-0.3,0.1-0.4,0.3-0.5c0.1-0.1,0.4-0.1,0.6-0.1
				h24.3c3.9,0,7.5,0.5,11,1.7c2.5,0.8,4.9,2.1,7.1,3.9c2.2,1.7,3.9,3.5,4.9,5.2c1.4,2.3,2.2,5,2.2,8.2v5.2c0,3.6-1.2,6.9-3.4,9.6
				c-2.2,2.7-5.3,4.9-9.1,6.5c-3.8,1.6-7.8,2.3-12,2.3h-3v30.8h4.9c0.3,0,0.5,0,0.6,0.1c0.1,0.1,0.3,0.3,0.3,0.4
				c0,0.1-0.1,0.4-0.3,0.5c-0.1,0.1-0.4,0.1-0.6,0.1h-27.2c-0.3,0-0.5,0-0.6-0.1c-0.1-0.1-0.3-0.3-0.3-0.5c0-0.1,0.1-0.4,0.3-0.4
				c0.1-0.1,0.4-0.1,0.6-0.1h5.2V68.2H109.7z M126.7,68.2v40h3c2.1,0,3.8-0.4,5-1.2s1.9-1.9,1.9-3.4V73.3c0-1.7-0.6-3-1.9-3.9
				c-0.9-0.6-2.3-1-4-1h-4V68.2z"/>
			<path class="st21" d="M158.3,149.2c-0.9,0-1.8-0.1-2.6-0.5c-5.4-2.1-6-6.5-6-7.8s0.4-5.8,6-7.8c0.3-0.1,0.4-0.1,0.6-0.1V75.5
				c-0.9-0.3-1.7-0.6-2.3-1.2c-2.2-1.6-3.5-4-3.5-6.6c0-2.7,1.3-5.2,3.5-6.7c1.6-1,3.2-1.6,5-1.6h26.7c1.7,0,3.2,0.4,4.7,1.3
				c2.5,1.6,4,4.1,4,7s-1.4,5.6-4,7c-0.6,0.4-1.3,0.6-1.9,0.9v57.7c0,0,0.1,0,0.1,0.1c5.2,2.1,5.6,6.5,5.6,7.8c0,2.8-1.6,6.3-6,7.9
				c-0.8,0.3-1.7,0.4-2.5,0.4h-27.4V149.2z"/>
			<path class="st21" d="M163.9,68.2H159c-0.3,0-0.5,0-0.6-0.1s-0.3-0.3-0.3-0.4c0-0.3,0.1-0.4,0.3-0.5c0.1-0.1,0.4-0.1,0.6-0.1
				h26.7c0.3,0,0.5,0,0.6,0.1s0.3,0.3,0.3,0.4c0,0.3-0.1,0.4-0.3,0.5c-0.1,0.1-0.4,0.1-0.6,0.1h-4.9v72.1h4.9
				c0.5,0.3,0.8,0.4,0.8,0.6s-0.3,0.4-0.8,0.6h-27.3c-0.6-0.3-0.9-0.4-0.9-0.6c0-0.1,0.3-0.4,0.9-0.6h5.6V68.2z"/>
			<path class="st21" d="M220.3,149.2c-2.6,0-5-1.3-6.3-3.4c-0.6,0.9-1.4,1.7-2.3,2.2c-1.8,1-3.6,1.2-4.9,1.2h-14.5
				c-1.8,0-3.6-0.5-5-1.7c-2.1-1.6-3.4-4-3.4-6.6c0-2.8,1.4-5.4,3.9-6.9c0.8-0.4,1.4-0.8,2.5-1V75.3c-0.5-0.3-1.2-0.5-1.7-0.8
				c-2.5-1.6-4-4.1-4-7s1.4-5.4,4-7c1.4-0.9,3-1.3,4.7-1.3h21.2c1.7,0,3.2,0.5,4.5,1.4c1.9-1.3,4-1.4,5.3-1.4h14.5
				c1.9,0,3.9,0.6,5.4,1.9c1.9,1.7,3,3.9,3,6.3c0,2.8-1.4,5.4-3.9,6.9c-0.8,0.5-1.6,0.8-2.5,1v66.1c0,4.3-3.4,7.6-7.6,7.6H220.3z
				 M207.8,132.7c0.6,0,1.3,0.1,1.9,0.4l-2.2-7.5v7.1H207.8z"/>
			<path class="st21" d="M230.9,73c0-1.6-0.4-2.6-1-3.2c-0.6-0.6-1.7-1.2-3-1.4l-3.5-0.3c-0.3-0.1-0.4-0.3-0.4-0.5s0.1-0.4,0.3-0.5
				c0.1-0.1,0.5-0.1,1-0.1h14.5c0.3,0,0.4,0,0.5,0.1s0.3,0.3,0.3,0.4c0,0.1-0.1,0.3-0.3,0.4s-0.6,0.3-1.4,0.4
				c-1.7,0.4-2.8,0.9-3.5,1.6c-0.6,0.6-1,1.8-1.3,3.6v68.1h-12.7l-20.5-68v61.6c0,1.7,0.3,2.8,0.9,3.5c0.6,0.6,1.6,1.2,3,1.4
				l3.8,0.3c0.3,0.1,0.4,0.3,0.4,0.6c0,0.3-0.1,0.4-0.3,0.5c-0.1,0.1-0.5,0.1-1,0.1h-14.5c-0.3,0-0.4,0-0.5-0.1
				c-0.1-0.1-0.3-0.3-0.3-0.4c0-0.1,0.1-0.3,0.3-0.4c0.1-0.1,0.6-0.3,1.4-0.4c1.7-0.4,2.8-0.9,3.5-1.6c0.6-0.6,1-1.8,1.2-3.6V68.3
				h-4.7c-0.3,0-0.5,0-0.6-0.1s-0.3-0.3-0.3-0.5c0-0.1,0.1-0.3,0.3-0.4c0.1-0.1,0.4-0.1,0.6-0.1h21.2l16.6,54.6V73z"/>
		</g>
		<g>
			<path class="st21" d="M113.9,246.7c-3.6,0-6-1.4-7.4-2.7c-1.3-1.2-2.1-2.6-2.3-4.3l-1.2-6.3l-4.1-22.9l-4,23.7
				c-0.9,5.3-1.4,8.2-3.9,10.2c-2.7,2.5-6.2,2.5-7.4,2.5h-6.9c-3.5,0-5.7-1.4-7-2.7c-2.1-1.9-2.6-4.4-3.4-9.2l-12.9-72.7
				c-0.3,0-0.5-0.1-0.8-0.3c-5.6-2.1-6.1-6.6-6.1-7.9c0-1.3,0.4-5.8,6.1-7.9c0.9-0.3,1.8-0.5,2.7-0.5h29.3c1.3,0,2.6,0.3,3.6,0.8
				c1.2-0.5,2.5-0.8,3.8-0.8h29.5c0.9,0,1.8,0.1,2.7,0.5c0.3,0.1,0.5,0.3,0.8,0.4c0.1-0.1,0.4-0.1,0.6-0.3c0.9-0.4,1.9-0.5,2.8-0.5
				h15.7c0.9,0,1.8,0.1,2.7,0.5c5.6,2.1,6.1,6.6,6.1,7.9c0,2.5-1.2,4.8-3.1,6.3c-1.3,1-3,1.7-4.9,1.9c-0.1,0-0.1,0-0.3,0l-0.1,0.1
				c-0.3,0.3-0.4,0.4-0.4,0.6l-12.6,71.1c-1,5.6-1.9,7.9-3.8,9.7c-1.3,1.3-3.5,2.8-7.2,2.8h-6.7V246.7z M125.8,166.5l0.8-4.3
				c-0.3,0-0.5-0.1-0.8-0.3c-0.3-0.1-0.5-0.1-0.8-0.3L125.8,166.5z M89.1,165.4l0.6-3.4c-0.4-0.1-0.8-0.3-1.2-0.4L89.1,165.4z"/>
			<path class="st21" d="M60,154.7h-4.5c-0.6-0.3-1-0.5-1-0.8s0.4-0.5,1-0.8h29.3c0.3,0,0.5,0,0.8,0.1c0.1,0.1,0.3,0.3,0.3,0.5
				s-0.1,0.4-0.3,0.5c-0.1,0.1-0.4,0.1-0.8,0.1h-5l8.9,57.7l9.2-52.4l-0.9-5.3h-4.7c-0.3,0-0.6,0-0.8-0.1c-0.3-0.1-0.4-0.3-0.4-0.5
				s0.1-0.4,0.4-0.5c0.3-0.1,0.5-0.1,0.8-0.1h29.5c0.6,0.3,1,0.5,1,0.8s-0.4,0.5-1,0.8h-5.4l9.1,57.7l9.3-51.1c0-0.5,0.1-1,0.1-1.6
				c0-1.3-0.3-2.3-0.9-3.1c-0.6-0.8-1.6-1.3-2.7-1.6l-2.8-0.3c-0.4-0.1-0.5-0.4-0.5-0.6s0.4-0.5,1-0.8h15.7c0.6,0.3,1,0.5,1,0.8
				c0,0.1-0.1,0.4-0.3,0.5c-0.1,0.1-0.4,0.3-0.8,0.3c-1.7,0.1-3.1,0.6-4.4,1.7c-1.8,1.4-2.8,3.1-3.2,5.3L124.3,233
				c-0.6,3.4-1.2,5.3-1.7,5.8c-0.3,0.4-0.9,0.5-1.7,0.5h-6.7c-0.9,0-1.7-0.3-2.2-0.6l-1.2-6.3l-12-65.5l-11.3,66.3
				c-0.6,3.6-1,5.6-1.3,5.7c-0.4,0.4-1.2,0.5-2.3,0.5H77c-0.8,0-1.3-0.1-1.6-0.5c-0.3-0.3-0.6-1.9-1.2-5L60,154.7z"/>
			<path class="st21" d="M148.1,246.7c-0.9,0-1.8-0.1-2.6-0.5c-5.6-2.1-6.1-6.6-6.1-7.9c0-1.3,0.4-5.8,6.1-7.9
				c0.5-0.1,0.9-0.3,1.4-0.4v-67.8c-1.2-0.3-2.2-0.8-3.2-1.4c-2.2-1.6-3.5-4-3.5-6.7s1.3-5.2,3.5-6.7c1.6-1,3.2-1.6,5.2-1.6h30.7
				c1.7,0,3.4,0.4,4.8,1.3c2.6,1.6,4,4.1,4,7c0,3-1.6,5.6-4,7.1c-0.9,0.5-1.8,0.9-2.7,1v68.1c0.3,0.1,0.6,0.1,0.9,0.3
				c5.3,2.2,5.7,6.5,5.7,7.8c0,2.8-1.6,6.3-6.1,7.9c-0.8,0.3-1.7,0.4-2.5,0.4h-31.6V246.7z"/>
			<path class="st21" d="M154.4,154.7h-5.7c-0.3,0-0.5-0.1-0.8-0.3c-0.1-0.1-0.3-0.3-0.3-0.5s0.1-0.4,0.3-0.5
				c0.1-0.1,0.4-0.3,0.8-0.3h30.7c0.3,0,0.5,0.1,0.8,0.3c0.3,0.1,0.4,0.3,0.4,0.5s-0.1,0.4-0.4,0.5c-0.3,0.1-0.5,0.3-0.8,0.3h-5.7
				v83h5.7c0.6,0.3,0.9,0.5,0.9,0.8s-0.3,0.5-0.9,0.8H148c-0.6-0.3-1-0.5-1-0.8s0.4-0.5,1-0.8h6.5V154.7z"/>
			<path class="st21" d="M219.3,246.7c-3.4,0-6.2-2.2-7.2-5.3c-0.6,1.7-1.8,3.1-3.4,4c-1.9,1.2-3.8,1.3-5.2,1.3h-16.7
				c-1.9,0-3.6-0.5-5.2-1.7c-2.1-1.6-3.4-4-3.4-6.6c0-2.8,1.4-5.6,4-7c0.9-0.5,1.8-0.9,3.4-1.3v-68.1c-0.9-0.3-1.7-0.5-2.5-1
				c-2.5-1.4-4-4.1-4-7.1c0-2.8,1.6-5.6,4-7c1.4-0.9,3.1-1.3,4.8-1.3h24.5c1.9,0,3.8,0.8,5.2,2.1c0.1-0.1,0.4-0.3,0.5-0.4
				c1.9-1.4,4.1-1.6,5.7-1.6h16.7c2.1,0,4,0.6,5.6,1.9c1.9,1.7,3,3.9,3,6.3c0,2.8-1.4,5.4-3.9,7c-1,0.6-1.9,0.9-3.5,1.3v76.9
				c0,4.3-3.4,7.6-7.6,7.6h-14.8V246.7z M204.9,230c0.8,0,1.6,0.3,2.2,0.5c0.6,0.3,1.3,0.6,1.9,1l-5.6-18.6V230H204.9z M223.8,164.5
				v-2.1h-0.6L223.8,164.5z"/>
			<path class="st21" d="M231.5,160.2c0-1.8-0.4-3-1.2-3.8s-1.9-1.3-3.5-1.6l-4-0.3c-0.3-0.1-0.5-0.3-0.5-0.6c0-0.3,0.1-0.5,0.3-0.6
				c0.1-0.1,0.5-0.1,1.2-0.1h16.7c0.3,0,0.5,0.1,0.6,0.3c0.1,0.1,0.3,0.3,0.3,0.5c0,0.1-0.1,0.4-0.3,0.4c-0.1,0.1-0.6,0.3-1.7,0.5
				c-1.9,0.5-3.4,1-4,1.8c-0.8,0.8-1.2,2.1-1.4,4.1v78.3h-14.6L195.7,161v70.8c0,1.9,0.4,3.2,1,4.1c0.6,0.8,1.8,1.3,3.4,1.7l4.3,0.3
				c0.3,0.1,0.5,0.4,0.5,0.6s-0.1,0.5-0.3,0.6c-0.1,0.1-0.5,0.1-1.2,0.1h-16.7c-0.3,0-0.5,0-0.6-0.1c-0.1-0.1-0.3-0.3-0.3-0.5
				c0-0.1,0.1-0.4,0.3-0.4c0.1-0.1,0.6-0.3,1.7-0.5c1.9-0.5,3.2-1,4-1.8c0.8-0.8,1.2-2.1,1.4-4.3v-77H188c-0.3,0-0.6-0.1-0.8-0.3
				c-0.3-0.1-0.4-0.3-0.4-0.5c0-0.1,0.1-0.4,0.4-0.5c0.3-0.1,0.5-0.3,0.8-0.3h24.5l19,62.8L231.5,160.2L231.5,160.2z"/>
		</g>
	</g>
	<g>
		<g>
			<path class="st22" d="M66.4,140.9c-5.9,0-11.1-1.4-15.4-3.9c-0.3,0.1-0.7,0.4-0.9,0.5c-3.2,2-5.4,3-7.8,3c-2.2,0-4.2-0.8-5.8-2.3
				c-1.1-0.9-2.8-3.1-2.8-6.6V99.2c0-3,1.6-5.7,4.2-7.3c1.4-0.8,3-1.2,4.5-1.2c0.3,0,0.4,0,0.7,0c-3.2-4.1-5.4-7.2-6.6-9.6
				c-2-3.8-3-7.7-3-11.6c0-7.7,3.2-14,9.2-18.4c5.3-3.9,11.5-5.8,18.2-5.8c4.6,0,8.9,1.1,12.7,3.2c1.2-0.5,2.4-1.1,3.6-1.6
				c1.5-0.8,3.4-1.6,5.4-1.6c1.6,0,3.1,0.4,4.5,1.2c0.8,0.4,1.5,1.1,2,1.8c0.9,1.1,2,3,2,5.8v28.2c0,2.7-1.2,5.3-3.2,7l-0.1,0.1
				c-1.1,0.8-2.2,1.5-3.5,1.8c3.6,4.7,6.1,8.6,7.7,12c2.2,4.7,3.2,9.2,3.2,13.4c0,7.7-3.4,14.2-9.7,18.5
				C80,138.9,73.5,140.9,66.4,140.9z M51.8,102.3c0,3.2,0.9,7.3,2.7,11.7c1.6,3.9,3.5,6.6,5.7,8.1c0.4,0.3,0.8,0.4,1.8,0.4
				s1.5-0.3,1.9-0.5c0-0.1,0-0.4,0-0.8c0-1.6-0.5-3.5-1.8-5.5c-1.2-2.3-4.1-6.5-10.4-14.4v1.1H51.8z M63.4,63.2
				c0.5,1.6,2.3,5.1,7.3,11.3c-2.2-7-4.2-9.6-5.1-10.4C64.7,63.4,64.1,63.2,63.4,63.2z"/>
			<path class="st14" d="M51.9,127.6c-1.9,0.8-3.9,1.9-5.9,3.1c-2,1.2-3.2,1.9-3.8,1.9c-0.1,0-0.3,0-0.4-0.1
				c-0.1-0.1-0.1-0.3-0.1-0.7V99.2c0-0.1,0.1-0.3,0.3-0.3c0.1-0.1,0.3-0.1,0.5-0.1c0.3,0,0.5,0.1,0.8,0.3c0.4,0.3,0.7,0.7,0.7,1.1
				v2.2c0,4.3,1.1,9.2,3.4,14.7c2.2,5.5,5.1,9.5,8.6,11.7c1.8,1.2,3.8,1.8,6.2,1.8c2.7,0,5-0.8,7-2.3c2-1.5,3-3.9,3-7
				c0-3-0.9-6.1-2.7-9.5c-2.4-4.5-7.7-11.5-15.9-21.2c-5.1-6.1-8.4-10.5-9.9-13.2c-1.4-2.7-2.2-5.4-2.2-7.8c0-5.1,2-9,5.9-11.9
				S56,53.3,61,53.3c4.3,0,8.2,1.4,11.7,4.2c2.8-0.9,5.7-2,8.2-3.5c0.9-0.5,1.5-0.7,1.8-0.7c0.1,0,0.3,0,0.4,0.1
				c0.1,0.1,0.1,0.4,0.1,0.7v28.2c0,0.4-0.1,0.7-0.4,0.9c-0.1,0.1-0.4,0.3-0.7,0.3c-0.4,0-0.5-0.1-0.8-0.3c-0.1-0.1-0.5-1.4-1.1-3.8
				C78,68.8,74.9,61.7,71,58.2c-2.3-2-4.9-3-7.8-3c-2.2,0-4.1,0.5-5.7,1.8c-1.6,1.2-2.4,2.8-2.4,5.1c0,4.1,3.9,10.8,11.6,20.3
				l7.6,9.2c5.1,6.3,8.6,11.3,10.4,15c1.8,3.6,2.6,7,2.6,10c0,5.1-2,9-6.2,12c-4.2,2.8-9,4.3-14.6,4.3
				C60.3,132.8,55.4,131.1,51.9,127.6z"/>
			<path class="st22" d="M91.6,140.1c-1.8,0-3.4-0.4-4.7-1.2c-2.7-1.6-4.2-4.3-4.2-7.4c0-3.1,1.6-5.8,4.2-7.3
				c0.7-0.4,1.4-0.7,2.2-0.9v-60c-0.8-0.3-1.6-0.5-2.3-1.1c-2.6-1.6-4.1-4.3-4.1-7.3s1.5-5.7,4.2-7.3c1.5-0.9,3.1-1.4,4.9-1.4h25.4
				c4.7,0,9.5,0.7,13.9,2.2c3.6,1.2,6.9,3,9.9,5.4c3.1,2.4,5.4,4.9,7,7.4c2.4,3.8,3.5,8.1,3.5,12.8v5.4c0,5.7-1.8,10.8-5.3,15.1
				c-3.2,3.9-7.4,6.9-12.6,9c-3.4,1.4-7,2.3-10.7,2.8v17c0.7,0.3,1.4,0.5,1.9,0.8c2.7,1.5,4.3,4.3,4.3,7.4s-1.6,5.8-4.2,7.3
				c-1.5,0.8-3.1,1.2-4.7,1.2H91.6V140.1z"/>
			<path class="st14" d="M97,55.6h-5.4c-0.3,0-0.5,0-0.7-0.1c-0.1-0.1-0.3-0.3-0.3-0.4c0-0.3,0.1-0.4,0.3-0.5
				c0.1-0.1,0.4-0.1,0.7-0.1H117c4.1,0,7.8,0.5,11.5,1.8c2.6,0.8,5.1,2.2,7.4,4.1c2.3,1.8,4.1,3.6,5.1,5.4c1.5,2.4,2.3,5.3,2.3,8.5
				v5.4c0,3.8-1.2,7.2-3.5,10c-2.3,2.8-5.5,5.1-9.5,6.8c-3.9,1.6-8.1,2.4-12.6,2.4h-3.1v32.1h5.1c0.3,0,0.5,0,0.7,0.1
				c0.1,0.1,0.3,0.3,0.3,0.4c0,0.1-0.1,0.4-0.3,0.5c-0.1,0.1-0.4,0.1-0.7,0.1H91.5c-0.3,0-0.5,0-0.7-0.1s-0.3-0.3-0.3-0.5
				c0-0.1,0.1-0.4,0.3-0.4c0.1-0.1,0.4-0.1,0.7-0.1h5.4V55.6H97z M114.8,55.6v41.7h3.1c2.2,0,3.9-0.4,5.3-1.2c1.4-0.8,2-2,2-3.5
				V60.9c0-1.8-0.7-3.1-2-4.1c-0.9-0.7-2.4-1.1-4.2-1.1h-4.2V55.6z"/>
			<path class="st22" d="M147.8,140.1c-0.9,0-1.9-0.1-2.7-0.5c-5.7-2.2-6.2-6.8-6.2-8.1c0-1.4,0.4-6.1,6.2-8.1
				c0.3-0.1,0.4-0.1,0.7-0.1V63.2c-0.9-0.3-1.8-0.7-2.4-1.2c-2.3-1.6-3.6-4.2-3.6-6.9c0-2.8,1.4-5.4,3.6-7c1.6-1.1,3.4-1.6,5.3-1.6
				h27.8c1.8,0,3.4,0.4,4.9,1.4c2.6,1.6,4.2,4.3,4.2,7.3c0,3-1.5,5.8-4.2,7.3c-0.7,0.4-1.4,0.7-2,0.9v60.2c0,0,0.1,0,0.1,0.1
				c5.4,2.2,5.8,6.8,5.8,8.1c0,3-1.6,6.6-6.2,8.2c-0.8,0.3-1.8,0.4-2.6,0.4h-28.6V140.1z"/>
			<path class="st14" d="M153.6,55.6h-5.1c-0.3,0-0.5,0-0.7-0.1c-0.1-0.1-0.3-0.3-0.3-0.4c0-0.3,0.1-0.4,0.3-0.5s0.4-0.1,0.7-0.1
				h27.8c0.3,0,0.5,0,0.7,0.1s0.3,0.3,0.3,0.4c0,0.3-0.1,0.4-0.3,0.5c-0.1,0.1-0.4,0.1-0.7,0.1h-5.1v75.2h5.1
				c0.5,0.3,0.8,0.4,0.8,0.7s-0.3,0.4-0.8,0.7h-28.5c-0.7-0.3-0.9-0.4-0.9-0.7c0-0.1,0.3-0.4,0.9-0.7h5.8V55.6z"/>
			<path class="st22" d="M212.5,140.1c-2.7,0-5.3-1.4-6.6-3.5c-0.7,0.9-1.5,1.8-2.4,2.3c-1.9,1.1-3.8,1.2-5.1,1.2h-15.1
				c-1.9,0-3.8-0.5-5.3-1.8c-2.2-1.6-3.5-4.2-3.5-6.9c0-3,1.5-5.7,4.1-7.2c0.8-0.4,1.5-0.8,2.6-1.1V63c-0.5-0.3-1.2-0.5-1.8-0.8
				c-2.6-1.6-4.2-4.3-4.2-7.3s1.5-5.7,4.2-7.3c1.5-0.9,3.1-1.4,4.9-1.4h22.1c1.8,0,3.4,0.5,4.7,1.5c2-1.4,4.2-1.5,5.5-1.5h15.1
				c2,0,4.1,0.7,5.7,2c2,1.8,3.1,4.1,3.1,6.6c0,3-1.5,5.7-4.1,7.2c-0.8,0.5-1.6,0.8-2.6,1.1v69c0,4.5-3.5,8-8,8H212.5z M199.4,122.8
				c0.7,0,1.4,0.1,2,0.4l-2.3-7.8v7.4H199.4z"/>
			<path class="st14" d="M223.5,60.6c0-1.6-0.4-2.7-1.1-3.4c-0.7-0.7-1.8-1.2-3.1-1.5l-3.6-0.3c-0.3-0.1-0.4-0.3-0.4-0.5
				s0.1-0.4,0.3-0.5c0.1-0.1,0.5-0.1,1.1-0.1h15.1c0.3,0,0.4,0,0.5,0.1c0.1,0.1,0.3,0.3,0.3,0.4s-0.1,0.3-0.3,0.4
				c-0.1,0.1-0.7,0.3-1.5,0.4c-1.8,0.4-3,0.9-3.6,1.6s-1.1,1.9-1.4,3.8v71h-13.2l-21.3-70.9v64.3c0,1.8,0.3,3,0.9,3.6
				s1.6,1.2,3.1,1.5l3.9,0.3c0.3,0.1,0.4,0.3,0.4,0.7c0,0.3-0.1,0.4-0.3,0.5c-0.1,0.1-0.5,0.1-1.1,0.1h-15.1c-0.3,0-0.4,0-0.5-0.1
				c-0.1-0.1-0.3-0.3-0.3-0.4c0-0.1,0.1-0.3,0.3-0.4c0.1-0.1,0.7-0.3,1.5-0.4c1.8-0.4,3-0.9,3.6-1.6c0.7-0.7,1.1-1.9,1.2-3.8V55.7
				h-4.9c-0.3,0-0.5,0-0.7-0.1c-0.1-0.1-0.3-0.3-0.3-0.5c0-0.1,0.1-0.3,0.3-0.4c0.1-0.1,0.4-0.1,0.7-0.1h22.1l17.3,57V60.6z"/>
		</g>
		<g>
			<path class="st22" d="M101.5,241.8c-3.8,0-6.2-1.5-7.7-2.8c-1.4-1.2-2.2-2.7-2.4-4.5l-1.2-6.6L85.8,204l-4.2,24.7
				c-0.9,5.5-1.5,8.5-4.1,10.7c-2.8,2.6-6.5,2.6-7.7,2.6h-7.2c-3.6,0-5.9-1.5-7.3-2.8c-2.2-2-2.7-4.6-3.5-9.6l-13.5-75.9
				c-0.3,0-0.5-0.1-0.8-0.3c-5.8-2.2-6.3-6.9-6.3-8.2s0.4-6.1,6.3-8.2c0.9-0.3,1.9-0.5,2.8-0.5H71c1.4,0,2.7,0.3,3.8,0.8
				c1.2-0.5,2.6-0.8,3.9-0.8h30.8c0.9,0,1.9,0.1,2.8,0.5c0.3,0.1,0.5,0.3,0.8,0.4c0.1-0.1,0.4-0.1,0.7-0.3c0.9-0.4,2-0.5,3-0.5h16.3
				c0.9,0,1.9,0.1,2.8,0.5c5.8,2.2,6.3,6.9,6.3,8.2c0,2.6-1.2,5-3.2,6.6c-1.4,1.1-3.1,1.8-5.1,2c-0.1,0-0.1,0-0.3,0l-0.1,0.1
				c-0.3,0.3-0.4,0.4-0.4,0.7L120,228.8c-1.1,5.8-2,8.2-3.9,10.1c-1.4,1.4-3.6,3-7.6,3h-7V241.8z M113.9,158.1l0.8-4.5
				c-0.3,0-0.5-0.1-0.8-0.3c-0.3-0.1-0.5-0.1-0.8-0.3L113.9,158.1z M75.5,157l0.7-3.5c-0.4-0.1-0.8-0.3-1.2-0.4L75.5,157z"/>
			<path class="st14" d="M45.2,145.8h-4.7c-0.7-0.3-1.1-0.5-1.1-0.8s0.4-0.5,1.1-0.8H71c0.3,0,0.5,0,0.8,0.1
				c0.1,0.1,0.3,0.3,0.3,0.5s-0.1,0.4-0.3,0.5c-0.1,0.1-0.4,0.1-0.8,0.1h-5.3l9.3,60.2l9.6-54.7l-0.9-5.5h-4.9c-0.3,0-0.7,0-0.8-0.1
				c-0.3-0.1-0.4-0.3-0.4-0.5c0-0.3,0.1-0.4,0.4-0.5c0.3-0.1,0.5-0.1,0.8-0.1h30.8c0.7,0.3,1.1,0.5,1.1,0.8c0,0.3-0.4,0.5-1.1,0.8
				h-5.7l9.5,60.2l9.7-53.3c0-0.5,0.1-1.1,0.1-1.6c0-1.4-0.3-2.4-0.9-3.2s-1.6-1.4-2.8-1.6l-3-0.3c-0.4-0.1-0.5-0.4-0.5-0.7
				s0.4-0.5,1.1-0.8h16.3c0.7,0.3,1.1,0.5,1.1,0.8c0,0.1-0.1,0.4-0.3,0.5s-0.4,0.3-0.8,0.3c-1.8,0.1-3.2,0.7-4.6,1.8
				c-1.9,1.5-3,3.2-3.4,5.5l-13.1,74.1c-0.7,3.5-1.2,5.5-1.8,6.1c-0.3,0.4-0.9,0.5-1.8,0.5h-7c-0.9,0-1.8-0.3-2.3-0.7l-1.2-6.6
				l-12.6-68.3l-11.7,69.1c-0.7,3.8-1.1,5.8-1.4,5.9c-0.4,0.4-1.2,0.5-2.4,0.5H63c-0.8,0-1.4-0.1-1.6-0.5c-0.3-0.3-0.7-2-1.2-5.3
				L45.2,145.8z"/>
			<path class="st22" d="M137.1,241.8c-0.9,0-1.9-0.1-2.7-0.5c-5.8-2.2-6.3-6.9-6.3-8.2c0-1.4,0.4-6.1,6.3-8.2
				c0.5-0.1,0.9-0.3,1.5-0.4v-70.8c-1.2-0.3-2.3-0.8-3.4-1.5c-2.3-1.6-3.6-4.2-3.6-7s1.4-5.4,3.6-7c1.6-1.1,3.4-1.6,5.4-1.6h32
				c1.8,0,3.5,0.4,5,1.4c2.7,1.6,4.2,4.3,4.2,7.3c0,3.1-1.6,5.8-4.2,7.4c-0.9,0.5-1.9,0.9-2.8,1.1v71c0.3,0.1,0.7,0.1,0.9,0.3
				c5.5,2.3,5.9,6.8,5.9,8.1c0,3-1.6,6.6-6.3,8.2c-0.8,0.3-1.8,0.4-2.6,0.4h-32.9V241.8z"/>
			<path class="st14" d="M143.7,145.8h-5.9c-0.3,0-0.5-0.1-0.8-0.3c-0.1-0.1-0.3-0.3-0.3-0.5c0-0.3,0.1-0.4,0.3-0.5
				c0.1-0.1,0.4-0.3,0.8-0.3h32c0.3,0,0.5,0.1,0.8,0.3c0.3,0.1,0.4,0.3,0.4,0.5c0,0.3-0.1,0.4-0.4,0.5s-0.5,0.3-0.8,0.3h-5.9v86.6
				h5.9c0.7,0.3,0.9,0.5,0.9,0.8c0,0.3-0.3,0.5-0.9,0.8H137c-0.7-0.3-1.1-0.5-1.1-0.8c0-0.3,0.4-0.5,1.1-0.8h6.8V145.8z"/>
			<path class="st22" d="M211.4,241.8c-3.5,0-6.5-2.3-7.6-5.5c-0.7,1.8-1.9,3.2-3.5,4.2c-2,1.2-3.9,1.4-5.4,1.4h-17.4
				c-2,0-3.8-0.5-5.4-1.8c-2.2-1.6-3.5-4.2-3.5-6.9c0-3,1.5-5.8,4.2-7.3c0.9-0.5,1.9-0.9,3.5-1.4v-71c-0.9-0.3-1.8-0.5-2.6-1.1
				c-2.6-1.5-4.2-4.3-4.2-7.4c0-3,1.6-5.8,4.2-7.3c1.5-0.9,3.2-1.4,5-1.4h25.5c2,0,3.9,0.8,5.4,2.2c0.1-0.1,0.4-0.3,0.5-0.4
				c2-1.5,4.3-1.6,5.9-1.6h17.4c2.2,0,4.2,0.7,5.8,2c2,1.8,3.1,4.1,3.1,6.6c0,3-1.5,5.7-4.1,7.3c-1.1,0.7-2,0.9-3.6,1.4V234
				c0,4.5-3.5,8-8,8h-15.4V241.8z M196.4,224.4c0.8,0,1.6,0.3,2.3,0.5s1.4,0.7,2,1.1l-5.8-19.4v17.8H196.4z M216.1,156.1v-2.2h-0.7
				L216.1,156.1z"/>
			<path class="st14" d="M224.1,151.6c0-1.9-0.4-3.1-1.2-3.9s-2-1.4-3.6-1.6l-4.2-0.3c-0.3-0.1-0.5-0.3-0.5-0.7
				c0-0.3,0.1-0.5,0.3-0.7c0.1-0.1,0.5-0.1,1.2-0.1h17.4c0.3,0,0.5,0.1,0.7,0.3c0.1,0.1,0.3,0.3,0.3,0.5c0,0.1-0.1,0.4-0.3,0.4
				c-0.1,0.1-0.7,0.3-1.8,0.5c-2,0.5-3.5,1.1-4.2,1.9c-0.8,0.8-1.2,2.2-1.5,4.3V234h-15.3l-24.6-81.6v73.9c0,2,0.4,3.4,1.1,4.3
				c0.7,0.8,1.9,1.4,3.5,1.8l4.5,0.3c0.3,0.1,0.5,0.4,0.5,0.7s-0.1,0.5-0.3,0.7c-0.1,0.1-0.5,0.1-1.2,0.1h-17.4
				c-0.3,0-0.5,0-0.7-0.1c-0.1-0.1-0.3-0.3-0.3-0.5c0-0.1,0.1-0.4,0.3-0.4c0.1-0.1,0.7-0.3,1.8-0.5c2-0.5,3.4-1.1,4.2-1.9
				c0.8-0.8,1.2-2.2,1.5-4.5v-80.3h-5.5c-0.3,0-0.7-0.1-0.8-0.3c-0.3-0.1-0.4-0.3-0.4-0.5c0-0.1,0.1-0.4,0.4-0.5s0.5-0.3,0.8-0.3
				h25.5l19.8,65.5L224.1,151.6L224.1,151.6z"/>
		</g>
	</g>
</g>
<g id="Ebene_1_Kopie">
	
		<radialGradient id="SVGID_6_" cx="137.2749" cy="-603.2095" r="111.8076" gradientTransform="matrix(0.9943 0 0 -0.1463 26.6076 178.4193)" gradientUnits="userSpaceOnUse">
		<stop  offset="0" style="stop-color:#010202"/>
		<stop  offset="1" style="stop-color:#010202;stop-opacity:0"/>
	</radialGradient>
	<ellipse class="st23" cx="163.1" cy="266.6" rx="154.8" ry="20.4"/>
	<g>
		<polygon class="st14" points="127.5,228.6 125,227.8 122.6,227.1 120.1,226.5 117.4,225.9 114.8,225.4 112.1,224.9 109.5,224.5 
			106.8,224.1 103.9,223.8 101.2,223.5 98.4,223.4 95.5,223.2 92.7,223.2 89.8,223.1 87,223.2 84.2,223.3 81.3,223.4 78.5,223.7 
			75.8,223.9 73.1,224.2 70.3,224.5 67.6,225 64.9,225.4 62.4,225.9 59.7,226.6 57.2,227.1 54.8,227.9 52.4,228.7 50.2,229.4 
			47.9,230.3 45.7,231.2 43.6,232.2 41.6,233.1 39.9,234.1 38.2,235.2 36.6,236.3 35.2,237.4 33.9,238.5 32.8,239.7 31.8,240.9 
			31,242 30.2,243.2 29.6,244.4 29.2,245.6 28.9,246.8 28.9,247 29,251.1 29,251.1 29,251.7 29.4,252.9 30,254.1 30.6,255.2 
			31.4,256.4 32.4,257.6 33.5,258.7 34.7,259.9 36,261 37.5,261.9 39.1,263 40.9,264 42.8,265 44.8,266 47.1,267 49.4,267.8 
			51.8,268.6 54.3,269.4 56.9,270 59.5,270.7 62.3,271.3 65,271.8 67.8,272.2 70.7,272.6 73.5,273 76.4,273.3 79.4,273.4 
			82.3,273.6 85.3,273.7 88.2,273.7 91.2,273.6 94.1,273.5 97,273.4 100,273.2 102.9,273 105.8,272.5 108.6,272.2 111.4,271.8 
			114.2,271.2 116.8,270.7 119.4,270 122,269.4 124.5,268.6 126.9,267.8 129.3,267 131.5,266.1 133.7,265.1 135.8,264 137.7,263 
			139.5,261.9 141.1,260.8 142.5,259.6 143.9,258.6 145.1,257.4 146.1,256.2 147,255 147.8,253.8 148.4,252.6 148.8,251.4 
			149.2,250.2 149.4,249 149.4,247.8 149.3,246.6 149.1,245.4 148.7,244.2 148.2,243 147.5,241.8 146.8,240.6 145.9,239.5 
			144.8,238.4 143.7,237.3 142.4,236.2 141,235.1 139.4,234.1 137.7,233 135.9,232.2 134,231.2 131.9,230.3 129.8,229.4 		"/>
		<polygon class="st24" points="127.5,218.1 125,217.2 122.6,216.6 120.1,215.9 117.4,215.4 114.8,214.8 112.1,214.3 109.5,214 
			106.8,213.5 103.9,213.3 101.2,213 98.4,212.9 95.5,212.6 92.7,212.6 89.8,212.5 87,212.6 84.2,212.8 81.3,212.9 78.5,213.1 
			75.8,213.3 73.1,213.6 70.3,214 67.6,214.4 64.9,214.8 62.4,215.4 59.7,216 57.2,216.6 54.8,217.3 52.4,218.1 50.2,218.9 
			47.9,219.7 45.7,220.6 43.6,221.6 41.6,222.6 39.9,223.5 38.2,224.6 36.6,225.7 35.2,226.8 33.9,227.9 32.8,229.1 31.8,230.3 
			31,231.4 30.2,232.6 29.6,233.8 29.2,235 28.9,236.2 28.7,237.4 28.7,238.6 28.8,239.9 29,241.1 29.4,242.3 30,243.5 30.6,244.6 
			31.4,245.8 32.4,247 33.5,248.1 34.7,249.3 36,250.4 37.5,251.4 39.1,252.4 40.9,253.4 42.8,254.4 44.8,255.4 47.1,256.4 
			49.4,257.2 51.8,258 54.3,258.8 56.9,259.4 59.5,260.1 62.3,260.7 65,261.2 67.8,261.6 70.7,262 73.5,262.4 76.4,262.7 
			79.4,262.8 82.3,263 85.3,263.1 88.2,263.1 91.2,263 94.1,263 97,262.8 100,262.6 102.9,262.4 105.8,261.9 108.6,261.6 
			111.4,261.2 114.2,260.6 116.8,260.1 119.4,259.4 122,258.8 124.5,258 126.9,257.2 129.3,256.4 131.5,255.5 133.7,254.5 
			135.8,253.4 137.7,252.4 139.5,251.4 141.1,250.3 142.5,249.1 143.9,248 145.1,246.8 146.1,245.6 147,244.4 147.8,243.2 
			148.4,242 148.8,240.8 149.2,239.6 149.4,238.4 149.4,237.2 149.3,236 149.1,234.8 148.7,233.6 148.2,232.4 147.5,231.2 
			146.8,230 145.9,228.9 144.8,227.8 143.7,226.7 142.4,225.6 141,224.5 139.4,223.5 137.7,222.5 135.9,221.6 134,220.6 
			131.9,219.7 129.8,218.9 		"/>
		
			<linearGradient id="SVGID_7_" gradientUnits="userSpaceOnUse" x1="90.7816" y1="606.3218" x2="85.9595" y2="551.2051" gradientTransform="matrix(1 0 0 1 0 -349)">
			<stop  offset="0" style="stop-color:#FFFFFF"/>
			<stop  offset="1" style="stop-color:#DADADA"/>
		</linearGradient>
		<polygon class="st25" points="116.7,223.4 114.9,222.9 113.2,222.3 111.3,221.9 109.5,221.5 107.6,221 105.7,220.7 103.7,220.4 
			101.7,220.2 99.8,219.9 97.8,219.7 95.7,219.6 93.7,219.5 91.7,219.5 89.6,219.5 87.6,219.5 85.5,219.5 83.5,219.6 81.4,219.8 
			79.5,219.9 77.5,220.3 75.6,220.5 73.6,220.8 71.6,221.1 69.8,221.5 67.9,221.9 66.2,222.3 64.3,222.9 62.7,223.4 60.9,224 
			59.4,224.6 57.9,225.3 56.4,225.9 54.9,226.7 53.6,227.5 52.4,228.2 51.3,229 50.4,229.8 49.4,230.6 48.6,231.4 48,232.3 
			47.3,233 46.8,233.9 46.4,234.8 46.1,235.7 45.9,236.5 45.8,237.4 45.8,238.3 45.9,239.1 46,240 46.3,240.9 46.8,241.8 
			47.2,242.5 47.8,243.4 48.5,244.3 49.3,245 50.2,245.8 51.1,246.7 52.2,247.4 53.4,248.1 54.6,248.8 56,249.5 57.5,250.3 
			59.1,250.9 60.7,251.5 62.5,252.1 64.2,252.7 66.1,253.1 68,253.5 69.9,254 71.9,254.3 73.9,254.6 75.9,255 78,255.2 80,255.4 
			82.1,255.5 84.2,255.6 86.4,255.7 88.4,255.7 90.5,255.6 92.7,255.6 94.8,255.5 96.8,255.3 98.9,255.2 101,254.8 102.9,254.6 
			105,254.3 107,254 108.8,253.5 110.7,253.1 112.5,252.6 114.4,252.1 116.1,251.5 117.8,250.9 119.4,250.3 120.9,249.6 
			122.3,248.8 123.8,248.1 125.1,247.3 126.3,246.6 127.3,245.7 128.2,244.9 129.1,244 129.9,243.3 130.5,242.4 131.1,241.5 
			131.5,240.7 131.8,239.8 132.2,238.9 132.3,238.1 132.3,237.2 132.3,236.3 132.2,235.4 131.8,234.6 131.5,233.8 131.1,232.9 
			130.5,232.1 129.9,231.3 129.1,230.4 128.3,229.7 127.4,228.9 126.4,228.1 125.3,227.4 124.1,226.7 122.8,225.9 121.4,225.3 
			119.9,224.6 118.3,224 		"/>
		<path class="st24" d="M117.1,227.4l3.8-1.3l-0.3-0.1l-0.3-0.1l-0.3-0.1l-0.3-0.1l-0.3-0.1l-0.3-0.1l-0.3-0.1l-0.3-0.1l-0.3-0.1
			l-0.3-0.1l-0.3-0.1l-0.3-0.1l-0.3-0.1l-0.3-0.1l-0.3-0.1l-0.3-0.1l-0.3-0.1l-0.3-0.1l-0.3-0.1l-0.3-0.1l-0.3-0.1l-0.3-0.1
			l-0.3-0.1l-0.3-0.1l-0.3-0.1l-0.3-0.1l-0.3-0.1l-0.3-0.1l-0.3-0.1l-0.4-0.1l-0.4-0.1l-0.4-0.1l-2.4,1.7l0.3,0.1l0.3,0.1l0.3,0.1
			l0.3,0.1l0.3,0.1l0.3,0.1l0.3,0.1l0.3,0.1l0.3,0.1l0.3,0.1l0.3,0.1l0.3,0.1l0.3,0.1l0.3,0.1l0.3,0.1l0.3,0.1l0.3,0.1l0.3,0.1
			l0.3,0.1l0.3,0.1l0.3,0.1l0.3,0.1l0.3,0.1l0.3,0.1l0.3,0.1l0.3,0.1l0.2,0.1l0.2,0.1l0.2,0.1l0.2,0.1l0.2,0.1L117.1,227.4
			L117.1,227.4z M101.6,222.9l1.7-2l-0.9-0.1l-0.9-0.1l-0.9-0.1l-0.9-0.1l-0.9-0.1l-0.9-0.1l-0.9-0.1l-0.9-0.1H96h-0.4h-0.4h-0.4
			h-0.4h-0.4h-0.4h-0.4h-0.4H92h-0.4h-0.4h-0.4h-0.4h-0.4h-0.4v2.1h0.8h0.8h0.8h0.8h0.8H94h0.8h0.8h0.8l0.8,0.1l0.8,0.1l0.8,0.1
			l0.8,0.1l0.8,0.1l0.8,0.1L101.6,222.9L101.6,222.9z M83,222.3l-0.9-2.1h-0.4h-0.4h-0.4h-0.4h-0.4h-0.4h-0.4h-0.4h-0.4l-0.4,0.1
			l-0.4,0.1l-0.4,0.1l-0.4,0.1l-0.4,0.1l-0.4,0.1l-0.4,0.1l-0.4,0.1l-0.4,0.1l-0.4,0.1l-0.4,0.1l-0.4,0.1l-0.4,0.1l-0.4,0.1
			l-0.4,0.1l-0.4,0.1l-0.4,0.1l-0.4,0.1l-0.4,0.1l-0.4,0.1l-0.4,0.1l-0.4,0.1l-0.4,0.1l2.4,1.7l0.7-0.2l0.8-0.1l0.8-0.1l0.8-0.1
			l0.8-0.1l0.8-0.1l0.8-0.1l0.8-0.1l0.8-0.1l0.8-0.1l0.8-0.1l0.8-0.1l0.8-0.1l0.8-0.1l0.8-0.1L83,222.3L83,222.3z M65.9,225.7
			l-3.2-1.5l-0.3,0.1l-0.3,0.1l-0.3,0.1l-0.3,0.1l-0.3,0.1l-0.3,0.1l-0.3,0.1l-0.4,0.2l-0.3,0.1l-0.3,0.1l-0.3,0.1l-0.3,0.1
			l-0.3,0.1l-0.3,0.1l-0.3,0.1l-0.3,0.1l-0.3,0.1l-0.3,0.1l-0.3,0.1l-0.3,0.1l-0.3,0.1l-0.3,0.1l-0.2,0.1l-0.2,0.1l-0.2,0.1
			l-0.2,0.1l-0.2,0.1l-0.2,0.1l-0.2,0.1l-0.2,0.1l-0.2,0.1l-0.2,0.2l4.3,1l0.2-0.1l0.2-0.1l0.2-0.1l0.2-0.1l0.2-0.1l0.2-0.1l0.2-0.1
			l0.2-0.1l0.2-0.1l0.2-0.1l0.2-0.1l0.2-0.1l0.2-0.1l0.2-0.1l0.2-0.1l0.2-0.1l0.2-0.1l0.2-0.1l0.2-0.1l0.3-0.1l0.3-0.1l0.3-0.1
			l0.3-0.1l0.3-0.1l0.3-0.1l0.3-0.1l0.4,0.2l0.3-0.1l0.3-0.1l0.3-0.1l0.3-0.1L65.9,225.7L65.9,225.7z M54.7,232.3l-4.7-0.7l-0.3,0.3
			l-0.3,0.3l-0.3,0.3l-0.2,0.3l-0.2,0.3l-0.2,0.3l-0.2,0.3l-0.2,0.3l-0.1,0.2l-0.1,0.2l-0.1,0.2l-0.1,0.2l-0.1,0.2l-0.1,0.2
			l-0.1,0.2v0.2v0.2v0.2v0.2v0.2v0.2v0.2v0.2v0.2h5v-0.3v-0.3l0.1-0.3l0.1-0.3l0.1-0.3l0.1-0.3l0.1-0.3l0.1-0.3l0.1-0.3l0.2-0.3
			l0.2-0.3l0.2-0.3l0.2-0.3l0.2-0.3l0.2-0.3L54.7,232.3L54.7,232.3z M52.7,240.1l-5,0.4l0.1,0.2l0.1,0.2l0.1,0.2l0.1,0.2l0.1,0.2
			l0.1,0.2l0.1,0.2l0.1,0.2l0.1,0.2l0.1,0.2l0.1,0.2l0.1,0.2l0.1,0.2l0.1,0.2l0.1,0.2l0.1,0.2l0.1,0.2l0.1,0.2l0.1,0.2l0.2,0.2
			l0.2,0.2l0.2,0.2l0.2,0.2l0.2,0.2L51,246l0.2,0.2l0.2,0.2l0.2,0.2l0.2,0.2l0.2,0.2l0.2,0.2l0.2,0.2l4.4-1.1l-0.4-0.3l-0.3-0.3
			l-0.3-0.3l-0.3-0.3l-0.3-0.3l-0.3-0.3l-0.3-0.3l-0.2-0.3l-0.2-0.3l-0.2-0.3l-0.2-0.3l-0.2-0.3l-0.2-0.3l-0.2-0.3l-0.1-0.3
			L52.7,240.1L52.7,240.1z M60.4,247.4l-3.9,1.4l0.3,0.1l0.3,0.1l0.3,0.1l0.3,0.1l0.3,0.1l0.3,0.1l0.3,0.1l0.3,0.1l0.3,0.1l0.3,0.1
			l0.3,0.1l0.3,0.1l0.3,0.1l0.3,0.1l0.3,0.1l0.3,0.1l0.3,0.1l0.3,0.1l0.3,0.1L63,251l0.3,0.1l0.3,0.1l0.3,0.1l0.3,0.1l0.3,0.1
			l0.3,0.1l0.3,0.1l0.4,0.1l0.4,0.1l0.4,0.1l0.4,0.1l0.4,0.1l2.5-1.9l-0.3-0.1l-0.3-0.1l-0.3-0.1l-0.3-0.1l-0.3-0.1l-0.3-0.1
			l-0.3-0.1l-0.3-0.1l-0.3-0.1l-0.3-0.1l-0.3-0.1l-0.3-0.1l-0.3-0.1l-0.3-0.1l-0.3-0.1l-0.3-0.1l-0.3-0.1l-0.1,0.5l-0.3-0.1
			l-0.3-0.1l-0.3-0.1l-0.3-0.1l-0.3-0.1l-0.3-0.1l-0.3-0.1l-0.3-0.1l-0.3-0.1l-0.3-0.1l-0.2-0.1l-0.2-0.1l-0.2-0.1L60.4,247.4
			L60.4,247.4z M76,252l-1.7,2l0.9,0.1l0.9,0.1l0.9,0.1l0.9,0.1l0.9,0.1l0.9,0.1l0.9,0.1l0.9,0.1h0.4h0.4h0.4H83h0.4h0.4h0.4h0.4
			h0.4h0.4H86h0.4h0.4h0.4h0.4h0.4v-2.1h-0.8h-0.8h-0.8h-0.8h-0.8h-0.8h-0.8h-0.8l-0.8-0.1l-0.8-0.1l-0.8-0.1l-0.8-0.1l-0.8-0.1
			l-0.8-0.1l-0.8-0.1L76,252L76,252z M95.2,252.7l0.9,2.1h0.4h0.4h0.4h0.4h0.4h0.4h0.4h0.4l0.4-0.1l0.4-0.1l0.4-0.1l0.4-0.1l0.4-0.1
			l0.4-0.1l0.4-0.1l0.4-0.1l0.4-0.1l0.4-0.1l0.4-0.1l0.4-0.1l0.4-0.1l0.4-0.1l0.4-0.1l0.4-0.1l0.4-0.1l0.4-0.1l0.4-0.1l0.4-0.1
			l0.4-0.1l0.4-0.1l0.4-0.1l0.4-0.1l-2.5-1.9l-0.8,0.2l-0.8,0.2l-0.8,0.1l-0.8,0.1l-0.8,0.1l-0.8,0.1l-0.8,0.1l-0.8,0.1l-0.8,0.1
			l-0.8,0.1l-0.8,0.1l-0.8,0.1l-0.8,0.1l-0.8,0.1l-0.8,0.1L95.2,252.7L95.2,252.7z M112.7,249.1l3.2,1.6l0.3-0.1l0.3-0.1l0.3-0.1
			l0.3-0.1l0.3-0.1l0.3-0.1l0.3-0.1l0.3-0.1l0.3-0.1l0.3-0.1l0.3-0.1l0.3-0.1l0.3-0.1l0.3-0.1l0.3-0.1l0.3-0.1l0.3-0.1l0.3-0.1
			l0.3-0.1l0.3-0.1l0.3-0.1l0.2-0.1l0.2-0.1l0.2-0.1l0.2-0.1l0.2-0.2l0.2-0.1l0.2-0.2l0.2-0.2l0.2-0.2l0.2-0.2l0.2-0.2l-4.3-1
			l-0.2,0.1l-0.2,0.1l-0.2,0.1l-0.2,0.1l-0.2,0.1l-0.2,0.1l-0.2,0.1l-0.2,0.2l-0.2,0.1l-0.2,0.1l-0.2,0.1l-0.2,0.1l-0.2,0.1
			l-0.2,0.1l-0.2,0.1l-0.2,0.1l-0.2,0.1l-0.2,0.1l-0.2,0.1l-0.3,0.1l-0.3,0.1l-0.3,0.1l-0.3,0.1l-0.3,0.1l-0.3,0.1l-0.3,0.1
			l-0.3,0.1l-0.3,0.1l-0.3,0.1l-0.3,0.1l-0.3,0.1L112.7,249.1L112.7,249.1z M123.8,242.4l4.7,0.7l0.3-0.3l0.3-0.3l0.2-0.3l0.2-0.3
			l0.2-0.3l0.2-0.3l0.2-0.3l0.1-0.3l0.1-0.2l0.1-0.2l0.1-0.2l0.1-0.2l0.1-0.2v-0.2v-0.2v-0.2v-0.2v-0.2v-0.2v-0.2v-0.2v-0.2v-0.2
			V237h-4.9v0.3v0.3v0.3l-0.1,0.3l-0.1,0.3l-0.1,0.3l-0.1,0.3l-0.1,0.3l-0.1,0.3l-0.1,0.3l-0.2,0.3l-0.2,0.3l-0.2,0.3l-0.2,0.3
			l-0.2,0.3L123.8,242.4L123.8,242.4z M125.2,234.5l4.9-0.4l-0.1-0.2l-0.1-0.2l-0.1-0.2l-0.1-0.2l-0.1-0.2l-0.1-0.2l-0.1-0.2
			l-0.1-0.2l-0.1-0.2l-0.1-0.2l-0.1-0.2l-0.1-0.2l-0.1-0.2l-0.1-0.2l-0.1-0.2l-0.1-0.2l-0.1-0.2l-0.2-0.2l-0.2-0.2l-0.2-0.2
			l-0.2-0.2l-0.2-0.2l-0.2-0.2l-0.2-0.2l-0.2,0.8l-0.2-0.2l-0.2-0.2l-0.2-0.2l-0.2-0.2l-0.2-0.2l-0.2-0.2l-0.2-0.1l-4.3,1.1l0.4,0.3
			l0.4,0.3l0.3,0.3l0.3,0.3l0.3,0.3l0.3,0.3l0.3,0.3l0.3,0.3l0.2,0.3l0.2,0.3l0.3,0.3l0.2,0.3l0.2,0.3l0.2,0.3l0.2,0.3L125.2,234.5z
			"/>
		<polygon class="st24" points="111.5,225.9 110.1,225.5 108.7,225.1 107.3,224.7 105.8,224.4 104.2,224.1 102.6,223.8 101.1,223.5 
			99.4,223.3 97.8,223.1 96.2,223 94.5,222.9 92.8,222.8 91.2,222.8 89.5,222.8 87.9,222.8 86.1,222.8 84.5,222.9 82.9,223 
			81.2,223.2 79.6,223.3 78,223.5 76.4,223.9 74.9,224.1 73.3,224.4 71.9,224.7 70.3,225.2 68.9,225.5 67.5,225.9 66.2,226.5 
			64.9,226.9 63.6,227.5 62.4,228 61.3,228.7 60.2,229.2 59.2,229.9 58.3,230.5 57.6,231.2 56.8,231.8 56.1,232.5 55.6,233.1 
			55.1,233.9 54.6,234.6 54.3,235.2 54.1,236 54,236.6 53.9,237.4 53.9,238.1 54,238.8 54.1,239.5 54.3,240.2 54.6,240.9 
			55.1,241.5 55.5,242.3 56,243 56.7,243.6 57.5,244.3 58.2,244.9 59.1,245.5 60.1,246.1 61.2,246.7 62.3,247.2 63.5,247.8 
			64.7,248.3 66.1,248.8 67.5,249.3 68.9,249.7 70.4,250.2 72,250.5 73.5,250.8 75.1,251.1 76.8,251.4 78.4,251.6 80,251.8 
			81.8,251.9 83.4,252.1 85.2,252.1 86.8,252.2 88.5,252.2 90.3,252.2 92,252.1 93.7,252 95.4,251.9 97,251.8 98.7,251.6 
			100.3,251.4 102,251.1 103.6,250.8 105.1,250.5 106.6,250.2 108.2,249.7 109.6,249.3 111,248.8 112.3,248.3 113.6,247.9 
			114.9,247.2 116.1,246.7 117.2,246.1 118.3,245.5 119.3,244.8 120.2,244.2 120.9,243.5 121.6,242.9 122.2,242.1 122.8,241.4 
			123.2,240.8 123.5,240 123.9,239.4 124.1,238.6 124.2,237.9 124.2,237.2 124.2,236.5 124.1,235.8 123.9,235.1 123.7,234.5 
			123.2,233.7 122.8,233 122.3,232.4 121.7,231.7 121,231.1 120.3,230.4 119.5,229.8 118.5,229.2 117.5,228.7 116.6,228 
			115.4,227.5 114.2,226.9 113,226.5 		"/>
		<path class="st14" d="M116.7,215.1l-5.2,2.6l-0.3,0.2l-0.2,0.2l-0.2,0.2l-0.2,0.2l-0.1,0.2l-0.1,0.2v0.2v0.2l0.1,0.2l0.1,0.2
			l0.1,0.2l0.2,0.2l0.2,0.2l0.3,0.2l0.3,0.1l0.3,0.1l12.1,4.1l0.4,0.1l0.4,0.1l0.4,0.1l0.4,0.1h0.4h0.4h0.4h0.4h0.4h0.4l0.4-0.1
			l0.4-0.1l0.4-0.1l0.4-0.1l0.3-0.1l0.3-0.1l5.2-2.6l-0.5-0.2l-0.5-0.2l-0.5-0.2l-0.5-0.2l-0.5-0.2l-0.5-0.2l-0.5-0.2l-0.5-0.2
			l-0.5-0.2l-0.5-0.2l-0.5-0.2l-0.5-0.2l-0.7-0.2l-0.7-0.2l-0.7-0.2l-0.7-0.2l-0.7-0.2l-0.7-0.2l-0.7-0.2l-0.7-0.2l-0.7-0.2
			l-0.7-0.2l-0.7-0.2l-0.2-0.9l-0.7-0.2l-0.7-0.2l-0.7-0.2l-0.7-0.2l-0.7-0.1l-0.7-0.1l-0.7-0.1L116.7,215.1L116.7,215.1z
			 M57.8,216.5l2.7,3.3l0.2,0.2l0.2,0.2l0.2,0.2l0.3,0.1l0.3,0.1l0.3,0.1l0.4,0.1l0.4,0.1l0.4,0.1l0.4,0.1h0.4h0.4h0.4h0.4h0.5
			l0.4-0.1l14.7-2.3l0.4-0.1l0.4-0.1l0.4-0.1l0.3-0.1l0.3-0.1l0.3-0.1l0.2-0.2l0.2-0.2l0.2-0.2l0.1-0.2l0.1-0.2v-0.2v-0.2v-0.2
			l-0.1-0.2l-0.1-0.2l-2.8-3.2h-0.8h-0.8l-0.8,0.1l-0.8,0.1l-0.8,0.1l-0.8,0.1l-0.8,0.1l-0.8,0.1l-0.8,0.1l-0.8,0.1l-0.8,0.1
			l-0.8,0.1l-0.8,0.1l-0.8,0.1l-0.8,0.1l-0.8,0.1h-0.5l-0.8,0.1l-0.8,0.1l-0.8,0.1l-0.8,0.1l-0.8,0.1l-0.8,0.1l-0.8,0.1l-0.8,0.1
			l-0.8,0.1l-0.8,0.1l-0.8,0.2l-0.8,0.2l-0.8,0.2l-0.7,0.2L57.8,216.5L57.8,216.5z M28.7,238.6l8.8,0.7H38h0.5h0.5h0.4l0.4-0.1
			l0.4-0.1l0.4-0.1l0.4-0.1l0.4-0.1l0.3-0.1l0.3-0.1l0.3-0.2l0.2-0.2l0.2-0.2l0.2-0.2l0.1-0.2l3.1-6.5l0.1-0.2v-0.2v-0.2l-0.1-0.2
			l-0.1-0.2l-0.2-0.2l-0.2-0.2l-0.2-0.2l-0.3-0.1l-0.3-0.1l-0.3-0.1l-0.4-0.1l-0.4-0.1l-0.4-0.1l-0.4-0.1h-0.5l-8.6-0.5l-0.3,0.3
			l-0.3,0.3l-0.3,0.3l-0.3,0.3l-0.3,0.3l-0.3,0.3l-0.2,0.3l-0.2,0.3l-0.2,0.3l-0.2,0.3l-0.2,0.3l-0.2,0.3l-0.2,0.3l-0.2,0.3
			l-0.2,0.3l-0.2,0.3l-0.1,0.3l-0.1,0.3l-0.1,0.3l-0.1,0.3l-0.1,0.3l-0.1,0.3l-0.1,0.3l-0.1,0.3l-0.1,0.3l-0.1,0.3v0.3v0.3v0.3v0.3
			v0.3L28.7,238.6L28.7,238.6z M60.3,260.3l6-3.1l0.3-0.2l0.2-0.2l0.2-0.2l0.2-0.2l0.1-0.2l0.1-0.2v-0.2v-0.2l-0.1-0.2l-0.1-0.2
			l-0.1-0.2l-0.2-0.2l-0.2-0.2l-0.3-0.2l-0.3-0.1l-0.3-0.1l-12.1-4.3l-0.4-0.1l-0.4-0.1l-0.4-0.1l-0.4-0.1h-0.4H51h-0.5h-0.5h-0.4
			h-0.4l-0.4,0.1l-0.4,0.1l-0.4,0.1l-0.4,0.1l-0.4,0.1l-0.3,0.2l-6.1,3.1l0.4,0.2l0.5,0.2l0.5,0.2l0.5,0.2l0.5,0.2l0.5,0.2l0.5,0.2
			l0.5,0.2l0.5,0.2l0.5,0.2l0.5,0.2l0.5,0.2l0.7,0.2l0.7,0.2l0.7,0.2l0.7,0.2l0.7,0.2l0.7,0.2l0.7,0.2l0.7,0.2l0.7,0.2l0.7,0.2
			l0.7,0.2l0.7,0.2l0.7,0.2l0.7,0.2l0.7,0.2l0.7,0.2l0.7,0.2l0.8,0.2l0.8,0.2L60.3,260.3L60.3,260.3z M122.1,258.8l-3.2-3.6
			l-0.2-0.2l-0.2-0.2l-0.3-0.2l-0.3-0.2l-0.3-0.1l-0.4-0.1l-0.4-0.1l-0.4-0.1l-0.4-0.1l-0.4-0.1h-0.4h-0.5h-0.5h-0.5h-0.5l-0.5,0.1
			L97,256.2l-0.4,0.1l-0.4,0.1l-0.4,0.1l-0.4,0.1l-0.3,0.1l-0.3,0.2l-0.2,0.2l-0.2,0.2l-0.2,0.2l-0.1,0.2l-0.1,0.2l-0.1,0.2v0.2v0.2
			l0.1,0.2l0.1,0.2l3.2,3.7l0.9-0.1l0.9-0.1l0.9-0.1l0.8-0.1l0.8-0.1l0.8-0.1l0.8-0.1l0.8-0.1l0.8-0.1l0.8-0.1l0.8-0.1l0.8-0.1
			l0.8-0.1l0.8-0.1l0.8-0.1l0.8-0.1l0.8-0.1l0.8-0.1l0.8-0.1l0.8-0.1l0.8-0.1l0.8-0.1l0.8-0.1l0.8-0.1l0.8-0.2l0.8-0.2l0.8-0.2
			l0.8-0.2l0.8-0.2l0.8-0.2l0.8-0.2L122.1,258.8L122.1,258.8z M149.3,235.8l-8.3-0.5h-0.5h-0.5h-0.5h-0.4l-0.4,0.1l-0.4,0.1
			l-0.4,0.1l-0.4,0.1l-0.4,0.1l-0.3,0.1l-0.3,0.1l-0.3,0.2l-0.2,0.2l-0.2,0.2l-0.1,0.2l-0.1,0.2l-2.6,6.5l-0.1,0.2v0.2v0.2l0.1,0.2
			l0.1,0.2l0.2,0.2l0.2,0.2l0.2,0.2l0.3,0.2l0.3,0.1l0.3,0.1l0.4,0.1l0.4,0.1l0.4,0.1l0.4,0.1h0.5l8.6,0.5l0.3-0.3l0.3-0.3l0.3-0.3
			l0.2-0.3l0.2-0.3l0.2-0.3l0.2-0.3l0.2-0.3l0.2-0.3l0.2-0.3l0.2-0.3l0.2-0.3l0.2-0.3l0.1-0.3l0.1-0.3l0.1-0.3l0.1-0.3l0.1-0.3
			l0.1-0.3l0.1-0.3l0.1-0.3l0.1-0.3v-0.3v-0.3v-0.3v-0.3v-0.3v-0.3v-0.3V237v-0.3L149.3,235.8z"/>
		<polygon class="st26" points="28.7,238.6 29,251.1 29,251.7 29.4,252.9 30,254.1 30.6,255.2 31.4,256.4 32.4,257.6 33.5,258.7 
			34.1,259.3 34.7,259.9 36,261 36.4,261.2 37.5,261.9 39.1,263 40.9,264 42.8,265 44.8,266 47.1,267 49.4,267.8 51.8,268.6 
			54.3,269.4 56.9,270 59.5,270.7 62.3,271.3 65,271.8 67.8,272.2 70.7,272.6 73.5,273 76.4,273.3 79.4,273.4 82.3,273.6 
			85.3,273.7 88.2,273.7 91.2,273.6 94.1,273.5 97,273.4 100,273.2 102.9,273 105.8,272.5 108.6,272.2 111.4,271.8 114.2,271.2 
			116.8,270.7 119.4,270 122,269.4 124.5,268.6 126.9,267.8 129.3,267 131.5,266.1 133.7,265.1 133.9,265 135.8,264 136.6,263.6 
			137.7,263 139.5,261.9 141.1,260.8 142.5,259.6 143.9,258.6 145.1,257.4 146.1,256.2 147,255 147.8,253.8 148.4,252.6 
			148.8,251.4 149.2,250.2 149.4,249 149.4,248.2 149.4,237.2 149.4,238.4 149.2,239.6 148.8,240.8 148.4,242 147.8,243.2 
			147,244.4 146.1,245.6 145.1,246.8 143.9,248 142.5,249.1 141.1,250.3 139.5,251.4 137.7,252.4 135.8,253.4 133.7,254.5 
			131.5,255.5 129.3,256.4 126.9,257.2 124.5,258 122,258.8 119.4,259.4 116.8,260.1 114.2,260.6 111.4,261.2 108.6,261.6 
			105.8,261.9 102.9,262.4 100,262.6 97,262.8 94.1,263 91.2,263 88.2,263.1 85.3,263.1 82.3,263 79.4,262.8 76.4,262.7 73.5,262.4 
			70.7,262 67.8,261.6 65,261.2 62.3,260.7 59.5,260.1 56.9,259.4 54.3,258.8 51.8,258 49.4,257.2 47.1,256.4 44.8,255.4 
			42.8,254.4 40.9,253.4 39.1,252.4 37.5,251.4 36,250.4 34.7,249.3 33.5,248.1 32.4,247 31.4,245.8 30.6,244.6 30,243.5 
			29.4,242.3 29,241.1 28.8,239.9 		"/>
		<path class="st27" d="M145.4,246.6v10.6l0.9-1l0.9-1.2l0.8-1.2l0.7-1.2l0.4-1.2l0.3-1.2l0.2-1.2v-0.7v-10.8v0.3v0.3v0.3v0.3v0.3
			l-0.1,0.3l-0.1,0.3l-0.1,0.3l-0.1,0.3l-0.1,0.3l-0.1,0.3l-0.1,0.3l-0.1,0.3l-0.1,0.3l-0.2,0.3l-0.2,0.3l-0.2,0.3l-0.2,0.3
			l-0.2,0.3l-0.2,0.3l-0.2,0.3l-0.2,0.3l-0.2,0.3l-0.2,0.3l-0.3,0.3l-0.3,0.3L145.4,246.6L145.4,246.6z M40.3,253.2l0.2,10.7
			l0.3,0.2l2,1l2.1,1l2.2,0.9l2.3,0.9l2.4,0.9l2.5,0.8l2.6,0.7l2.6,0.7l1,0.2l-0.1-10.6l-0.8-0.1l-0.8-0.2l-0.8-0.2l-0.7-0.2
			l-0.7-0.2l-0.7-0.2l-0.7-0.2l-0.7-0.2l-0.7-0.2l-0.7-0.2l-0.7-0.2l-0.7-0.2l-0.7-0.2l-0.7-0.2l-0.7-0.2l-0.7-0.2l-0.7-0.2
			l-0.7-0.2l-0.7-0.2l-0.7-0.2l-0.5-0.2l-0.5-0.2l-0.5-0.2l-0.5-0.2l-0.5-0.2l-0.5-0.2l-0.5-0.2l-0.5-0.2l-0.5-0.2l-0.5-0.2
			l-0.5-0.2L40.3,253.2L40.3,253.2z M97.2,262.8l0.1,10.6l2.7-0.2l2.9-0.3l2.8-0.3l2.8-0.4l2.8-0.4l2.7-0.5l2.7-0.5l2.6-0.7l2.6-0.7
			h0.1v-10.6l-0.8,0.2l-0.8,0.2l-0.8,0.2l-0.8,0.2l-0.8,0.2l-0.8,0.2l-0.8,0.2l-0.8,0.2l-0.8,0.1l-0.8,0.1l-0.8,0.1l-0.8,0.1
			l-0.8,0.1l-0.8,0.1l-0.8,0.1l-0.8,0.1l-0.8,0.1l-0.8,0.1l-0.8,0.1l-0.8,0.1l-0.8,0.1l-0.8,0.1l-0.8,0.1l-0.8,0.1l-0.8,0.1
			l-0.8,0.1l-0.8,0.1l-0.8,0.1l-0.8,0.1l-0.9,0.1l-0.9,0.1L97.2,262.8z"/>
		<path class="st14" d="M28.7,238.6l0.2,12.5l0.1,0.4l0.4,1.2l0.2,0.5l-0.2-0.7l-0.4-1.3l-0.1-0.4l-0.2-12.2V238.6L28.7,238.6z
			 M148,253.4l0.4-0.9l0.4-1.2l0.3-1.2l0.2-1.2v-0.8v-11l0,0V248v0.8l-0.2,1.3l-0.3,1.3l-0.4,1.3L148,253.4L148,253.4z M135.9,253.4
			L135.9,253.4l-2.2,1.1l-2.2,1l-2.3,0.9l-2.3,0.9l-2.4,0.8l-2.5,0.8l-2.6,0.7l-2.6,0.7l-2.7,0.5l-2.7,0.5l-2.8,0.4l-2.8,0.4
			l-2.8,0.3l-2.9,0.3l-2.9,0.2L94,263l-2.9,0.1h-2.9h-2.9l-2.9-0.1l-2.9-0.1l-2.9-0.2l-2.9-0.2l-2.8-0.3l-2.8-0.4l-2.8-0.4l-2.7-0.5
			l-2.7-0.5l-2.6-0.7l-2.6-0.7l-2.5-0.8l-2.4-0.9l-2.3-0.9l-2.2-0.9l-2.1-1l-2-1l0,0l0,0l2,1l2.1,1l2.2,1l2.3,0.9l2.4,0.9l2.5,0.8
			l2.6,0.8l2.6,0.7l2.7,0.7l2.7,0.5l2.8,0.4l2.8,0.4l2.8,0.3l2.9,0.3l2.9,0.2l2.9,0.1l2.9,0.1h2.9H91l2.9-0.1l2.9-0.2l2.9-0.2
			l2.9-0.3l2.8-0.3l2.8-0.4l2.8-0.4l2.7-0.5l2.7-0.5l2.6-0.7l2.6-0.8l2.5-0.8l2.4-0.9l2.3-0.9l2.3-1l2.2-1L135.9,253.4L135.9,253.4z
			"/>
	</g>
	<g>
		<polygon class="st14" points="186,231.5 183.7,230.3 181.5,229.1 179.2,227.9 176.8,226.8 174.4,225.7 171.7,224.6 169.2,223.7 
			166.7,222.7 164,221.8 161.4,220.9 158.7,220.3 155.9,219.4 153.2,218.7 150.5,218.1 147.6,217.5 144.8,217 142.1,216.6 
			139.2,216.1 136.5,215.8 133.8,215.5 131.1,215.3 128.3,215 125.5,214.9 123,214.8 120.3,214.9 117.8,214.9 115.3,215.1 
			112.7,215.4 110.3,215.6 107.8,216 105.6,216.3 103.4,216.9 101.2,217.4 99.3,218 97.4,218.6 95.6,219.4 94,220.2 92.5,220.9 
			91.2,221.9 90,222.8 88.9,223.7 87.9,224.7 87,225.7 86.4,226.8 85.8,227.9 85.7,228.1 84.9,232.3 84.9,232.3 84.8,232.7 85,234 
			85.3,235.3 85.7,236.5 86.1,237.8 86.9,239.3 87.7,240.6 88.6,242 89.6,243.3 90.9,244.6 92.2,246 93.8,247.3 95.5,248.7 
			97.2,250.2 99.2,251.6 101.2,253 103.4,254.2 105.7,255.5 108.2,256.7 110.6,257.9 113.1,259.1 115.6,260.2 118.3,261.2 
			120.9,262.3 123.7,263.1 126.5,264.1 129.3,264.9 132.2,265.8 135,266.5 137.8,267.1 140.8,267.6 143.6,268.2 146.6,268.7 
			149.5,269.1 152.4,269.6 155.3,269.8 158.1,270 161,270.2 163.8,270.3 166.4,270.3 169.1,270.2 171.9,270.2 174.5,270 177,269.8 
			179.5,269.5 181.8,269 184.2,268.6 186.4,267.9 188.5,267.4 190.5,266.7 192.3,266 193.9,265.2 195.5,264.4 196.9,263.5 
			198.2,262.5 199.3,261.5 200.3,260.5 201.2,259.5 202,258.4 202.5,257.4 202.9,256.3 203.3,255.1 203.4,253.9 203.4,252.7 
			203.4,251.4 203,250 202.7,248.7 202.2,247.4 201.6,246.2 200.8,244.9 200,243.6 198.9,242.2 197.8,240.9 196.4,239.6 195,238.2 
			193.5,236.9 191.8,235.5 190,234.2 188,232.9 		"/>
		<polygon class="st24" points="188.2,221.4 186,219.9 183.7,218.7 181.5,217.5 179.1,216.5 176.7,215.4 174,214.3 171.6,213.4 
			169,212.3 166.3,211.6 163.7,210.6 161,209.9 158.2,209 155.5,208.5 152.8,207.7 149.9,207.2 147.1,206.8 144.4,206.2 
			141.5,205.8 138.8,205.4 136.1,205.1 133.4,204.9 130.6,204.7 127.9,204.6 125.3,204.6 122.6,204.6 120.1,204.6 117.5,204.8 
			115,205 112.6,205.3 110.1,205.7 107.8,206 105.7,206.5 103.5,207.1 101.6,207.6 99.7,208.4 97.9,209 96.3,209.8 94.8,210.6 
			93.4,211.6 92.2,212.5 91.2,213.4 90.2,214.4 89.3,215.5 88.6,216.6 88.1,217.7 87.7,218.7 87.3,219.9 87.2,221.3 87.1,222.5 
			87.3,223.7 87.6,225 88,226.2 88.4,227.6 89.2,228.9 90,230.2 90.9,231.6 91.9,233 93.2,234.2 94.5,235.7 96.1,237.1 97.8,238.4 
			99.4,239.8 101.5,241.2 103.6,242.6 105.7,243.8 108,245.1 110.5,246.3 112.9,247.5 115.4,248.8 117.9,249.8 120.6,250.9 
			123.2,251.9 125.9,252.9 128.8,253.8 131.6,254.5 134.5,255.4 137.3,256.2 140.1,256.8 143.1,257.4 145.9,257.9 148.8,258.3 
			151.8,258.8 154.7,259.2 157.6,259.4 160.4,259.8 163.2,259.9 166.1,260 168.7,260 171.4,260 174.1,259.9 176.8,259.6 
			179.3,259.4 181.8,259.1 184.1,258.8 186.5,258.2 188.7,257.6 190.8,257.1 192.8,256.4 194.5,255.7 196.2,254.8 197.8,254.1 
			199.2,253.2 200.5,252.2 201.6,251.2 202.6,250.3 203.5,249.2 204.2,248.1 204.8,247 205.2,245.9 205.6,244.7 205.7,243.5 
			205.7,242.3 205.7,241.1 205.3,239.8 205,238.5 204.5,237.1 203.9,235.9 203,234.6 202.3,233.3 201.2,231.9 200.1,230.5 
			198.7,229.2 197.3,227.8 195.7,226.6 194.1,225.2 192.3,223.9 190.3,222.6 		"/>
		
			<linearGradient id="SVGID_8_" gradientUnits="userSpaceOnUse" x1="182.3419" y1="573.9747" x2="177.5199" y2="518.8579" gradientTransform="matrix(0.9762 0.2169 -0.2169 0.9762 90.4215 -348.2483)">
			<stop  offset="0" style="stop-color:#FFFFFF"/>
			<stop  offset="1" style="stop-color:#DADADA"/>
		</linearGradient>
		<polygon class="st28" points="176.5,224.2 175,223.3 173.4,222.3 171.6,221.6 170,220.7 168.3,219.9 166.4,219.2 164.6,218.4 
			162.7,217.8 160.8,217.1 159,216.5 156.9,215.9 155,215.4 153,214.9 151,214.5 149,214.1 147,213.6 145,213.3 143,213.1 
			141,212.8 139,212.6 137.1,212.4 135.1,212.3 133,212.2 131.2,212.1 129.3,212.1 127.5,212.2 125.6,212.3 123.9,212.5 122,212.6 
			120.4,213 118.7,213.3 117.1,213.6 115.6,214.1 114.2,214.5 112.9,214.9 111.5,215.5 110.5,216 109.3,216.7 108.4,217.2 
			107.6,217.9 106.8,218.5 106.1,219.3 105.6,220.1 105,220.8 104.6,221.6 104.4,222.5 104.1,223.3 104,224.2 104,225.1 
			104.1,225.9 104.4,226.9 104.6,227.8 104.9,228.8 105.6,229.8 106.1,230.6 106.8,231.6 107.5,232.7 108.4,233.7 109.5,234.6 
			110.5,235.5 111.7,236.5 113,237.5 114.4,238.6 115.9,239.5 117.4,240.5 119,241.3 120.7,242.2 122.6,243.1 124.3,243.8 
			126.1,244.6 128,245.4 129.9,246.1 131.8,246.8 133.9,247.4 135.9,248 137.8,248.5 139.9,249.2 142,249.6 144,249.9 146.1,250.4 
			148.2,250.7 150.3,251 152.3,251.4 154.4,251.5 156.4,251.7 158.4,251.8 160.4,251.9 162.4,251.9 164.2,251.9 166.2,251.7 
			168.1,251.7 169.9,251.5 171.6,251.2 173.4,251 175,250.7 176.5,250.3 178.2,249.8 179.6,249.3 180.9,248.8 182.1,248.2 
			183.2,247.6 184.2,247 185.2,246.4 185.9,245.7 186.7,245 187.3,244.3 187.8,243.5 188.3,242.6 188.7,241.9 188.8,241 189,240.1 
			189.1,239.3 189,238.4 188.8,237.5 188.5,236.6 188.2,235.7 187.8,234.8 187.1,233.7 186.6,232.8 185.8,231.8 185.1,230.9 
			184.1,229.9 183.1,229 182,228 180.7,227 179.5,226.1 178.1,225.1 		"/>
		<path class="st24" d="M176.1,228.1l4-0.4l-0.3-0.2l-0.3-0.2l-0.3-0.2l-0.3-0.2l-0.3-0.2l-0.3-0.2l-0.3-0.2l-0.3-0.2l-0.3-0.2
			l-0.3-0.2l-0.3-0.2l-0.3-0.2l-0.3-0.2l-0.3-0.2l-0.3-0.2l-0.3-0.2l-0.3-0.2l-0.3-0.2l-0.3-0.2l-0.3-0.2l-0.3-0.2l-0.3-0.2
			l-0.3-0.2l-0.3-0.2l-0.3-0.2l-0.3-0.2l-0.3-0.2l-0.3-0.2l0.5,1l-0.4-0.2l-0.4-0.2l-0.4-0.2l-2.7,1.2l0.3,0.2l0.3,0.2l0.3,0.2
			l0.3,0.2l0.3,0.2l0.3,0.2l0.3,0.2l0.3,0.2l0.3,0.2l0.3,0.2l0.3,0.2l0.3,0.2l0.3,0.2l0.3,0.2l0.3,0.2l0.3,0.2l0.3,0.2l0.3,0.2
			l0.3,0.2l0.3,0.2l0.3,0.2l0.3,0.2l0.3,0.2l0.3,0.2l0.3,0.2l0.3,0.2l0.2,0.1l0.2,0.1l0.2,0.1l0.2,0.1l0.2,0.1L176.1,228.1
			L176.1,228.1z M161.9,220.4l2.2-1.5l-0.9-0.3l-0.9-0.3l-0.9-0.3l-0.9-0.3l-0.9-0.3l-0.9-0.3l-0.9-0.3l-0.9-0.3l-0.4-0.1l-0.4-0.1
			l-0.4-0.1l-0.4-0.1l-0.4-0.1l-0.4-0.1l-0.4-0.1l-0.4-0.1l-0.4-0.1l-0.4-0.1l-0.4-0.1l-0.4-0.1l-0.4-0.1l-0.4-0.1l-0.4-0.1
			l-0.4-0.1l-0.4,2.1l0.8,0.2l0.8,0.2l0.8,0.2l0.8,0.2l0.8,0.2l0.8,0.2l0.8,0.2l0.8,0.2l0.8,0.2l0.8,0.2l0.8,0.2l0.8,0.2l0.8,0.2
			l0.8,0.2l0.8,0.2L161.9,220.4L161.9,220.4z M143.9,215.8l-0.4-2.2l-0.4-0.1l-0.4-0.1l-0.4-0.1l-0.4-0.1l-0.4-0.1l-0.4-0.1
			l-0.4-0.1l-0.4-0.1l-0.4-0.1h-0.4h-0.4h-0.4h-0.4h-0.4H137h-0.4h-0.4h-0.4h-0.4h-0.4h-0.4h-0.4h-0.4H133h-0.4h-0.4h-0.4h-0.4h-0.4
			h-0.4H130h-0.4l2,2.2l0.7-0.1l0.8,0.1l0.8,0.1l0.8,0.1l0.8,0.1l0.8,0.1l0.8,0.1l0.8,0.1l0.8,0.1l0.8,0.1l0.8,0.1l0.8,0.1l0.8,0.1
			l0.8,0.1l0.8,0.1L143.9,215.8L143.9,215.8z M126.5,215.4l-2.7-2.2h-0.3h-0.3h-0.3h-0.3h-0.3h-0.3h-0.3l-0.4,0.1h-0.3h-0.3h-0.3
			h-0.3h-0.3h-0.3h-0.3h-0.3h-0.3h-0.3h-0.3h-0.3h-0.3h-0.3l-0.2,0.1l-0.2,0.1l-0.2,0.1l-0.2,0.1l-0.2,0.1l-0.2,0.1l-0.2,0.1
			l-0.2,0.1l-0.2,0.1l-0.2,0.2l3.9,1.9l0.2-0.1l0.2-0.1l0.2-0.1l0.2-0.1l0.2-0.1l0.2-0.1l0.2-0.1l0.2-0.1l0.2-0.1l0.2-0.1l0.2-0.1
			l0.2-0.1l0.2-0.1l0.2-0.1l0.2-0.1l0.2-0.1l0.2-0.1l0.2-0.1l0.2-0.1h0.3h0.3h0.3h0.3h0.3h0.3h0.3l0.3,0.3h0.3h0.3h0.3h0.3
			L126.5,215.4L126.5,215.4z M114.2,219.4l-4.5-1.6l-0.4,0.2l-0.4,0.2l-0.4,0.2l-0.3,0.2l-0.3,0.2l-0.3,0.2l-0.3,0.2l-0.3,0.2
			l-0.1,0.2l-0.1,0.2l-0.1,0.2l-0.1,0.2l-0.1,0.2l-0.1,0.2L106,221v0.2v0.2v0.2v0.2v0.2v0.2v0.2v0.2v0.2l4.9,1.1l0.1-0.3l0.1-0.3
			l0.2-0.3l0.2-0.3l0.2-0.3l0.2-0.3l0.2-0.3l0.2-0.3l0.2-0.3l0.3-0.2l0.3-0.2l0.3-0.2l0.3-0.2l0.3-0.2l0.3-0.2L114.2,219.4
			L114.2,219.4z M110.5,226.6l-5-0.7l0.1,0.2l0.1,0.2l0.1,0.2l0.1,0.2l0.1,0.2l0.1,0.2l0.1,0.2l0.1,0.2l0.1,0.2l0.1,0.2l0.1,0.2
			l0.1,0.2l0.1,0.2l0.1,0.2l0.1,0.2l0.1,0.2l0.1,0.2l0.1,0.2l0.1,0.2l0.2,0.2l0.2,0.2l0.2,0.2l0.2,0.2l0.2,0.2l0.2,0.2l0.2,0.2
			l0.2,0.2l0.2,0.2l0.2,0.2l0.2,0.2l0.2,0.2l0.2,0.2l4.5-0.1l-0.3-0.4l-0.2-0.4l-0.2-0.4l-0.2-0.4l-0.2-0.4l-0.2-0.4l-0.2-0.4
			l-0.1-0.3l-0.1-0.3l-0.1-0.3l-0.1-0.3l-0.1-0.3l-0.1-0.3l-0.1-0.3v-0.3L110.5,226.6L110.5,226.6z M116.5,235.4l-4.1,0.5l0.3,0.2
			l0.3,0.2l0.3,0.2l0.3,0.2l0.3,0.2l0.3,0.2l0.3,0.2l0.3,0.2l0.3,0.2l0.3,0.2l0.3,0.2l0.3,0.2l0.3,0.2l0.3,0.2l0.3,0.2l0.3,0.2
			l0.3,0.2l0.3,0.2l0.3,0.2l0.3,0.2l0.3,0.2l0.3,0.2l0.3,0.2l0.3,0.2l0.3,0.2l0.3,0.2l0.3,0.2l0.4,0.2l0.4,0.2l0.4,0.2l0.4,0.2
			l0.4,0.2l2.8-1.3l-0.3-0.2l-0.3-0.2l-0.3-0.2l-0.3-0.2l-0.3-0.2l-0.3-0.2l-0.3-0.2l-0.3-0.2l-1.1-1l-0.3-0.2l-0.3-0.2l-0.3-0.2
			l-0.3-0.2l-0.3-0.2l-0.3-0.2l-0.3-0.2l-0.3-0.2l-0.2,0.5l-0.3-0.2l-0.3-0.2l-0.3-0.2l-0.3-0.2l-0.3-0.2l-0.3-0.2l-0.3-0.2L117,236
			l-0.3-0.2l-0.3-0.2l-0.2-0.1l-0.2-0.1l-0.2-0.1L116.5,235.4L116.5,235.4z M130.6,243.3l-2.2,1.5l0.9,0.3l0.9,0.3l0.9,0.3l0.9,0.3
			l0.9,0.3l0.9,0.3l0.9,0.3l0.9,0.3l0.4,0.1l0.4,0.1l0.4,0.1l0.4,0.1l0.4,0.1l0.4,0.1l0.4,0.1l0.4,0.1l0.4,0.1l0.4,0.1l0.4,0.1
			l0.4,0.1l0.4,0.1l0.4,0.1l0.4,0.1l0.4,0.1l0.4-2.1l-0.8-0.2l-0.8-0.2l-0.8-0.2l-0.8-0.2L139,246l-0.8-0.2l-0.8-0.2l-0.8-0.2
			l-0.8-0.2l-0.8-0.2l-0.8-0.2l-0.8-0.2l-0.8-0.2l-0.8-0.2l-0.8-0.2L130.6,243.3L130.6,243.3z M149.3,248.1l0.4,2.2l0.4,0.1l0.4,0.1
			l0.4,0.1l0.4,0.1l0.4,0.1l0.4,0.1l0.4,0.1l0.4,0.1h0.4h0.4h0.4h0.4h0.4h0.4h0.4h0.4h0.4h0.4h0.4h0.4h0.4h0.4h0.4h0.4h0.4h0.4h0.4
			h0.4h0.4h0.4h0.4h0.4l-2.1-2.4h-0.8h-0.8l-0.8-0.1l-0.8-0.1l-0.8-0.1l-0.8-0.1l-0.8-0.1l-0.8-0.1l-0.8-0.1l-0.8-0.1l-0.8-0.1
			l-0.8-0.1l-0.8-0.1l-0.8-0.1l-0.8-0.1L149.3,248.1L149.3,248.1z M167.2,248.4l2.7,2.3h0.3h0.3h0.3h0.3h0.3h0.3h0.3h0.3h0.3h0.3
			h0.3h0.3h0.3h0.3h0.3h0.3h0.3h0.3h0.3h0.3h0.3l0.2-0.1l0.2-0.1l0.2-0.1l0.2-0.1l0.2-0.2l0.2-0.1l0.2-0.2l0.2-0.2l0.2-0.2l0.2-0.2
			l0.2-0.2l-3.9-1.9l-0.2,0.1l-0.2,0.1l-0.2,0.1l-0.2,0.1l-0.2,0.1l-0.2,0.1l-0.2,0.1l-0.2,0.1l-0.2,0.1l-0.2,0.1l-0.2,0.1l-0.2,0.1
			l-0.2,0.1l-0.2,0.1l-0.2,0.1l-0.2,0.1l-0.2,0.1l-0.2,0.1l-0.2,0.1h-0.3h-0.3h-0.3h-0.3h-0.3h-0.3h-0.3h-0.3h-0.3h-0.3h-0.3h-0.3
			L167.2,248.4L167.2,248.4z M179.4,244.3l4.5,1.6l0.4-0.2l0.4-0.2l0.3-0.2l0.3-0.2l0.3-0.2l0.3-0.2l0.3-0.2l0.2-0.3l0.1-0.2
			l0.1-0.2l0.1-0.2l0.1-0.2l0.1-0.2v-0.2v-0.2v-0.2v-0.2v-0.2v-0.2v-0.2v-0.2V241v-0.2v-0.2l-4.8-1.1l-0.1,0.3l-0.1,0.3l-0.1,0.3
			l-0.2,0.3l-0.2,0.3l-0.2,0.3l-0.2,0.3l-0.2,0.3l0.4,0.1l-0.2,0.3l-0.3,0.2l-0.3,0.2l-0.3,0.2l-0.3,0.2l-0.3,0.2L179.4,244.3
			L179.4,244.3z M182.4,236.9l4.9,0.7l-0.1-0.2l-0.1-0.2l-0.1-0.2l-0.1-0.2l-0.1-0.2l-0.1-0.2l-0.1-0.2l-0.1-0.2l-0.1-0.2l-0.1-0.2
			l-0.1-0.2l-0.1-0.2l-0.1-0.2l-0.1-0.2l-0.1-0.2l-0.1-0.2l-0.1-0.2l-0.2-0.2l-0.2-0.2l-0.2-0.2l0.9-0.8l-0.2-0.2l-0.2-0.2l-0.2-0.2
			l-0.3,0.7l-0.2-0.2l-0.2-0.2l-0.2-0.2l-0.2-0.2l-0.2-0.2l-0.2-0.2l-0.2-0.1l-4.4,0.1l0.3,0.4l0.3,0.4l0.2,0.4l0.2,0.4l0.2,0.4
			l0.2,0.4l0.2,0.4l0.2,0.4l0.1,0.3l0.1,0.3l0.2,0.4l0.1,0.3l0.1,0.3l0.1,0.3l0.1,0.3L182.4,236.9z"/>
		<polygon class="st24" points="171,225.5 169.7,224.9 168.5,224.1 167.2,223.4 165.8,222.8 164.2,222.1 162.7,221.5 161.3,220.9 
			159.8,220.4 158.2,219.8 156.6,219.3 155.1,218.9 153.4,218.4 151.8,218 150.2,217.7 148.6,217.3 146.9,216.9 145.2,216.7 
			143.6,216.5 142,216.3 140.3,216 138.7,215.9 137.2,215.9 135.7,215.8 134,215.7 132.5,215.8 131,215.8 129.4,215.9 128,216 
			126.6,216.2 125.2,216.3 123.9,216.7 122.6,216.9 121.4,217.3 120.2,217.5 119.1,218 118.1,218.4 117.2,219 116.2,219.4 
			115.5,219.9 114.8,220.4 114.2,221 113.5,221.6 113.1,222.1 112.7,222.9 112.5,223.4 112.2,224.2 112.1,224.9 112,225.6 
			112,226.3 112,227 112.2,227.8 112.5,228.6 112.7,229.3 113.1,230.1 113.6,230.9 114.3,231.7 114.8,232.5 115.6,233.3 116.3,234 
			117.3,234.9 118.3,235.7 119.3,236.4 120.4,237.2 121.7,238.1 122.9,238.8 124.2,239.5 125.6,240.2 127,240.9 128.5,241.5 
			130,242.2 131.5,242.9 133,243.4 134.7,243.9 136.3,244.4 137.8,245 139.6,245.4 141.1,245.8 142.8,246.2 144.6,246.6 
			146.2,246.9 147.9,247.1 149.6,247.4 151.2,247.6 152.9,247.8 154.5,247.9 156.2,248.1 157.8,248.1 159.4,248.1 161,248.1 
			162.6,248 164,247.9 165.5,247.8 167,247.5 168.3,247.4 169.7,247 171,246.8 172.2,246.4 173.4,246 174.5,245.7 175.5,245.1 
			176.3,244.7 177.1,244.3 178,243.6 178.6,243.1 179.2,242.5 179.7,241.9 180.1,241.3 180.5,240.6 180.8,240 180.9,239.3 
			181,238.6 181.1,237.8 181,237.2 181,236.4 180.7,235.7 180.5,234.9 180.1,234.1 179.6,233.4 179.2,232.6 178.5,231.8 178,231 
			177.1,230.2 176.2,229.5 175.5,228.7 174.4,227.9 173.4,227 172.3,226.4 		"/>
		<path class="st14" d="M178.4,216.1l-5.7,1.4l-0.3,0.1l-0.2,0.2l-0.2,0.2l-0.4,0.1l-0.1,0.2l-0.1,0.2v0.2v0.2l0.1,0.2l0.1,0.2
			l0.1,0.2l0.2,0.2l0.2,0.2l0.2,0.3l0.3,0.2l0.3,0.2l10.9,6.7l0.4,0.2l0.4,0.2l0.4,0.2l0.4,0.2l0.4,0.1l0.4,0.1l0.4,0.1l0.4,0.1
			l0.4,0.1l0.4,0.1h0.4h0.4h0.4h0.4h0.3h0.3l5.7-1.4l-0.4-0.3l-0.4-0.3l-0.4-0.3l-0.4-0.3l-0.4-0.3l-0.4-0.3l-0.4-0.3l-0.4-0.3
			l-0.4-0.3l-0.4-0.3l-0.4-0.3l-0.4-0.3l-0.5-0.3l-0.5-0.3l-0.5-0.3l-0.5-0.3l-0.5-0.3l-0.5-0.3l-0.5-0.3l-0.5-0.3l-0.5-0.3
			l-0.5-0.3l-0.5-0.3v-0.9l-0.5-0.3l-0.5-0.3l-0.5-0.3l-0.5-0.3l-0.7-0.2l-0.7-0.2l-0.7-0.2L178.4,216.1L178.4,216.1z M120.6,204.6
			l2,3.8l0.2,0.2l0.2,0.2l0.2,0.2l0.3,0.2l0.3,0.2l0.3,0.2l0.4,0.2l0.4,0.2l0.4,0.2l0.4,0.2l0.4,0.1l0.4,0.1l0.4,0.1l0.4,0.1
			l0.5,0.1h0.4l14.8,1h0.4h0.4h0.4h0.3h0.3h0.3l0.2-0.2l0.2-0.2l0.2-0.2l0.1-0.2l0.1-0.2v-0.2v-0.2v-0.2l-0.1-0.2l-0.1-0.2l-2.1-3.7
			c0,0-5.6-0.8-10.3-1.3C129.5,204.5,120.6,204.6,120.6,204.6L120.6,204.6z M87.3,219.9l8.5,2.5l0.5,0.1l0.5,0.1l0.5,0.1l0.4,0.1
			h0.4h0.4h0.4h0.4h0.4h0.3h0.3l0.3-0.1l0.2-0.2l0.2-0.2l0.2-0.2l0.1-0.2l4.4-5.7l0.1-0.2v-0.2v-0.2l-0.1-0.2l-0.1-0.2l-0.2-0.2
			l-0.2-0.2l-0.2-0.2l-0.3-0.2l-0.3-0.2l-0.3-0.2l-0.4-0.2l-0.4-0.2l-0.4-0.2l-0.4-0.2l-0.5-0.1l-7.5-2.2c0,0-3.3,2.1-4.8,4.2
			C88.2,217,87.3,219.9,87.3,219.9L87.3,219.9z M113.5,248l6.5-1.6l0.3-0.1l0.2-0.2l0.2-0.2l0.2-0.2l0.1-0.2l0.1-0.2v-0.2v-0.2
			l-0.1-0.2l-0.1-0.2l-0.1-0.2l-0.2-0.2l-0.2-0.2l-0.2-0.3l-0.3-0.2l-0.3-0.2l-10.9-6.8l-0.4-0.2l-0.4-0.2l-0.4-0.2l-0.4-0.2
			l-0.4-0.1l-0.4-0.1l-0.5-0.1l-0.5-0.1l-0.4-0.1l-0.4-0.1h-0.4h-0.4h-0.4h-0.4H102l-0.3,0.1l-6.7,1.6l0.3,0.3l0.4,0.3l0.4,0.3
			l0.4,0.3l0.4,0.3l0.4,0.3l0.4,0.3l0.4,0.3l0.4,0.3l0.4,0.3l0.4,0.3l0.4,0.3l0.5,0.3l0.5,0.3l0.5,0.3l0.5,0.3l0.5,0.3l0.5,0.3
			l0.5,0.3l0.5,0.3l0.5,0.3l0.5,0.3l0.5,0.3l0.5,0.3l0.5,0.3l0.5,0.3l0.5,0.3l0.5,0.3l0.5,0.3l0.7,0.3l0.7,0.3L113.5,248L113.5,248z
			 M174.3,259.9l-2.3-4.3l-0.2-0.2l-0.2-0.2l-0.2-0.3l-0.2-0.3l-0.3-0.2l-0.4-0.2l-0.4-0.2l-0.4-0.2l-0.4-0.2l-0.4-0.2l-0.4-0.1
			l-0.5-0.1l-0.5-0.1l-0.5-0.1l-0.5-0.1h-0.5l-15.3-1h-0.4h-0.4h-0.4h-0.4h-0.3l-0.3,0.1l-0.2,0.2l-0.2,0.2l-0.2,0.2l-0.1,0.2
			l-0.1,0.2l-0.1,0.2v0.2v0.2l0.1,0.2l0.1,0.2l2.3,4.3l0.9,0.1l0.9,0.1l0.9,0.1l0.8,0.1l0.8,0.1l0.8,0.1l0.8,0.1l0.8,0.1l0.8,0.1
			l0.8,0.1l0.8,0.1l0.8,0.1l0.8,0.1l0.8,0.1l0.8,0.1l0.8,0.1l0.8,0.1l0.8,0.1l0.8,0.1l0.8,0.1l0.8,0.1l0.8,0.1l0.8,0.1l0.8,0.1h0.8
			h0.8h0.8h0.8h0.8h0.8h0.8L174.3,259.9L174.3,259.9z M205.7,243.3l-8-2.3l-0.5-0.1l-0.5-0.1l-0.5-0.1l-0.4-0.1h-0.4h-0.4h-0.4h-0.4
			h-0.4h-0.3h-0.3l-0.3,0.1l-0.2,0.2l-0.2,0.2l-0.1,0.2l-0.1,0.2l-3.9,5.8l-0.1,0.2v0.2v0.2l0.1,0.2l0.1,0.2l0.2,0.2l0.2,0.2
			l0.2,0.2l0.2,0.3l0.3,0.2l0.3,0.2l0.4,0.2l0.4,0.2l0.4,0.2l0.4,0.2l0.5,0.1l8.3,2.4l0.4-0.2l0.4-0.2l0.4-0.2l0.3-0.2l0.3-0.2
			l0.3-0.2l0.3-0.2l0.3-0.2l0.3-0.2l0.3-0.2l0.3-0.2l0.3-0.2l0.3-0.2l0.2-0.3l0.2-0.3l0.2-0.3l0.2-0.3l0.2-0.3l0.2-0.3l0.2-0.3
			l0.2-0.3l0.2-0.3l0.1-0.3l0.1-0.3l0.1-0.3l0.1-0.3l0.1-0.3l0.1-0.3l0.1-0.3l0.1-0.3l0.1-0.3L205.7,243.3z"/>
		<polygon class="st26" points="87.3,219.9 84.9,232.3 84.8,232.7 85,234 85.3,235.3 85.7,236.5 86.1,237.8 86.9,239.3 87.7,240.6 
			88.2,241.3 88.6,242 89.6,243.3 90.1,243.6 90.9,244.6 92.2,246 93.8,247.3 95.5,248.7 97.2,250.2 99.2,251.6 101.2,253 
			103.4,254.2 105.7,255.5 108.2,256.7 110.6,257.9 113.1,259.1 115.6,260.2 118.3,261.2 120.9,262.3 123.7,263.1 126.5,264.1 
			129.3,264.9 132.2,265.8 135,266.5 137.8,267.1 140.8,267.6 143.6,268.2 146.6,268.7 149.5,269.1 152.4,269.6 155.3,269.8 
			158.1,270 161,270.2 163.8,270.3 166.4,270.3 169.1,270.2 171.9,270.2 174.5,270 177,269.8 179.5,269.5 181.8,269 184.2,268.6 
			184.4,268.5 186.4,267.9 187.3,267.7 188.5,267.4 190.5,266.7 192.3,266 193.9,265.2 195.5,264.4 196.9,263.5 198.2,262.5 
			199.3,261.5 200.3,260.5 201.2,259.5 202,258.4 202.5,257.4 202.9,256.3 203.2,255.5 205.6,244.7 205.2,245.9 204.8,247 
			204.2,248.1 203.5,249.2 202.6,250.3 201.6,251.2 200.5,252.2 199.2,253.2 197.8,254.1 196.2,254.8 194.5,255.7 192.8,256.4 
			190.8,257.1 188.7,257.6 186.5,258.2 184.1,258.8 181.8,259.1 179.3,259.4 176.8,259.6 174.1,259.9 171.4,260 168.7,260 
			166.1,260 163.2,259.9 160.4,259.8 157.6,259.4 154.7,259.2 151.8,258.8 148.8,258.3 145.9,257.9 143.1,257.4 140.1,256.8 
			137.3,256.2 134.5,255.4 131.6,254.5 128.8,253.8 125.9,252.9 123.2,251.9 120.6,250.9 117.9,249.8 115.4,248.8 112.9,247.5 
			110.5,246.3 108,245.1 105.7,243.8 103.6,242.6 101.5,241.2 99.4,239.8 97.8,238.4 96.1,237.1 94.5,235.7 93.2,234.2 91.9,233 
			90.9,231.6 90,230.2 89.2,228.9 88.4,227.6 88,226.2 87.6,225 87.3,223.7 87.1,222.5 87.2,221.3 		"/>
		<path class="st27" d="M199.6,253l-2.3,10.4l1.1-0.8l1.1-1l1-1l0.9-1l0.7-1.1l0.5-1.1l0.4-1.1l0.1-0.7l2.3-10.6
			c0,0-1.6,3.6-3.1,5.3C200.8,252.2,199.6,253,199.6,253L199.6,253z M95.6,236.7l-2.1,10.5l0.2,0.3l1.7,1.4l1.9,1.4l2,1.3l2.1,1.3
			l2.2,1.4l2.3,1.3l2.4,1.2l2.4,1.2l0.9,0.4l2.2-10.4L113,248l-0.7-0.3l-0.7-0.3l-0.5-0.3l-0.5-0.3l-0.5-0.3l-0.5-0.3l-0.5-0.3
			l-0.5-0.3l-0.5-0.3l-0.5-0.3l-0.5-0.3l-0.5-0.3l-0.5-0.3l-0.5-0.3l-0.5-0.3l-0.5-0.3l-0.5-0.3l-0.5-0.3l-0.5-0.3l-0.4-0.3
			l-0.4-0.3l-0.4-0.3l-0.4-0.3l-0.4-0.3l-0.4-0.3l-0.4-0.3l-0.4-0.3l-0.4-0.3l-0.4-0.3l-0.4-0.3L95.6,236.7L95.6,236.7z M149,258.4
			l-2.2,10.4l2.7,0.3l2.9,0.3l2.8,0.3l2.8,0.2l2.8,0.2l2.7,0.1l2.7,0.1l2.7-0.1l2.7-0.1h0.1l2.3-10.4h-0.8h-0.8H172h-0.8h-0.8h-0.8
			h-0.8h-0.8l-0.8-0.1l-0.8-0.1l-0.8-0.1l-0.8-0.1l-0.8-0.1l-0.8-0.1l-0.8-0.1L162,259l-0.8-0.1l-0.8-0.1l-0.8-0.1l-0.8-0.1
			l-0.8-0.1l-0.8-0.1l-0.8-0.1l-0.8-0.1l-0.8-0.1l-0.8-0.1l-0.8-0.1l-0.8-0.1l-0.8-0.1l-0.9-0.1l-0.9-0.1L149,258.4z"/>
		<path class="st14" d="M87.3,219.9l-2.5,12.3v0.4L85,234l0.1,0.5l-0.1-0.7l-0.1-1.4v-0.4L87.3,219.9L87.3,219.9L87.3,219.9z
			 M200.6,260.3l0.7-0.8l0.7-1.1l0.5-1.1l0.4-1.1l0.2-0.8l2.4-10.8l0,0l-2.4,10.6l-0.2,0.8l-0.5,1.2l-0.7,1.2l-0.8,1.2L200.6,260.3
			L200.6,260.3z M188.8,257.7L188.8,257.7l-2.4,0.5l-2.3,0.4l-2.4,0.3l-2.4,0.3l-2.5,0.2l-2.6,0.2l-2.7,0.1l-2.7,0.1l-2.7-0.1
			l-2.7-0.1l-2.8-0.2l-2.8-0.2l-2.8-0.3l-2.9-0.3l-2.9-0.4l-2.9-0.5l-2.9-0.5l-2.8-0.7l-2.8-0.7l-2.8-0.8l-2.8-0.8l-2.8-0.9
			l-2.8-0.9l-2.7-1l-2.7-1.1l-2.7-1.1l-2.5-1.1l-2.5-1.1l-2.4-1.2l-2.4-1.2l-2.3-1.3l-2.2-1.4l-2.1-1.3l-2-1.3l-1.9-1.4l-1.7-1.4
			l0,0l0,0l1.7,1.4l1.9,1.4l2,1.4l2.1,1.3l2.2,1.4l2.3,1.3l2.4,1.3l2.4,1.2l2.5,1.2l2.5,1.1l2.7,1.1l2.7,1.1l2.7,1l2.8,1l2.8,0.9
			l2.8,0.8l2.8,0.8l2.8,0.7l2.8,0.7l2.9,0.5l2.9,0.4l2.9,0.4l2.9,0.3l2.8,0.3l2.8,0.2l2.8,0.2l2.7,0.1l2.7,0.1l2.7-0.1l2.7-0.2
			l2.6-0.2l2.5-0.3l2.4-0.3l2.4-0.4l2.3-0.4L188.8,257.7L188.8,257.7z"/>
	</g>
</g>
</svg>
