<?xml version="1.0" encoding="utf-8"?>
<!-- Generator: Adobe Illustrator 23.1.0, SVG Export Plug-In . SVG Version: 6.00 Build 0)  -->
<svg version="1.1" id="Capa_1" xmlns="http://www.w3.org/2000/svg" xmlns:xlink="http://www.w3.org/1999/xlink" x="0px" y="0px"
	 width="1000px" height="1000px" viewBox="0 0 1000 1000" style="enable-background:new 0 0 1000 1000;" xml:space="preserve">
<style type="text/css">
	.st0{fill:url(#SVGID_1_);stroke:#D67A0D;stroke-width:6;stroke-miterlimit:10;}
	.st1{fill:#D0AF2C;}
	.st2{fill:#ECB340;stroke:#D67A0D;stroke-width:3.3244;stroke-miterlimit:10;}
	.st3{fill:none;stroke:#D67A0D;stroke-width:5;stroke-miterlimit:10;}
</style>
<g>
	
		<radialGradient id="SVGID_1_" cx="501" cy="339.09" r="349.3" gradientTransform="matrix(1 0 0 1 0 160.11)" gradientUnits="userSpaceOnUse">
		<stop  offset="0" style="stop-color:#EE9700"/>
		<stop  offset="0.3045" style="stop-color:#F2C106"/>
		<stop  offset="0.4609" style="stop-color:#F5BE1E"/>
		<stop  offset="0.5682" style="stop-color:#F5BE20"/>
		<stop  offset="0.7933" style="stop-color:#EDE874"/>
		<stop  offset="0.7969" style="stop-color:#EDE773"/>
		<stop  offset="0.879" style="stop-color:#F6D856"/>
		<stop  offset="0.9495" style="stop-color:#FBCF43"/>
		<stop  offset="1" style="stop-color:#FDCB3C"/>
	</radialGradient>
	<circle class="st0" cx="501" cy="499.2" r="349.3"/>
	<g>
		<g>
			<path class="st1" d="M677.1,231.1L626,270.2l12.2,8.6l9.5-8.1l12,8.4l-4.4,11.7l12.3,8.6l19.7-61.3L677.1,231.1z M670,252.2
				l-5.8,15.4l-6.8-4.9L670,252.2z"/>
			<path class="st2" d="M625.1,267.6l10.4,7.3l9.5-8.1l13.3,9.4l0,0l0,0l-4.4,11.7l10.4,7.3l18.9-59.2l-9-6.3L625.1,267.6z
				 M662,266.6l-2.7-1.9l-6.4-4.5l16.7-14.1L662,266.6z"/>
		</g>
		<g>
			<path class="st1" d="M764.7,490.5l0.1,1.1c0.2,2.5,0.1,5.7,0,9.1c-0.5,11-1.1,24.8,10.4,28.7c4.6,1.6,11.3,2.1,16.3-0.6
				c2.1-1.1,3.8-2.8,4.9-4.8c3,4.6,8.5,6.4,14.1,6c2-0.1,4-0.6,5.8-1.3l0,0c10.7-4.6,10.3-16.8,10-27.6c-0.1-3.4-0.2-6.5,0-9.3
				l0.1-1.1L764.7,490.5z M801.2,504.8l12.8,0.1c0,1.7-0.1,4-0.1,5.2l0,0c0,3.3-1.3,5.2-3.9,5.6c-3.4,0.5-5.7,0.2-7.1-1.1
				C801,513,801,509.1,801.2,504.8z M790.5,504.9l-0.1,7.2l0,0c0,0.3-0.1,0.6-0.2,1c-0.1,0.2-0.1,0.4-0.2,0.7
				c-1,2.8-5.1,3.1-6.8,3.1l0,0c-2.3,0-3.9-0.4-5-1.4c-1.9-1.9-1.7-5.5-1.6-9.2c0-0.4,0-1,0-1.6L790.5,504.9z"/>
			<path class="st2" d="M763,489.2c0.9,11-4.4,32.2,9.6,36.9c7.1,2.5,18.3,1.7,20.6-7c3.1,7.6,12.7,8.9,19.6,6.3
				c13.3-5.8,8.3-24.4,9.4-36L763,489.2z M788.6,509.8c0,0.7-0.2,1.2-0.3,1.9c-1,3.2-4.8,4-7.8,4c-9.2,0.3-7.5-7.9-7.5-14.3h15.9
				L788.6,509.8z M812.2,507.7c0,3.6-1.5,6.1-4.9,6.7c-10.6,1.6-10.3-4.8-10-13.1l14.8,0.1C812.3,503,812.2,506.2,812.2,507.7z"/>
		</g>
		<g>
			<path class="st1" d="M372.4,732.5c-6.1-3.9-13-5.1-18.8-3.2c-9.5,2-16.6,14.5-20.5,21.3c-5.9,10.6-6.2,19.1-1.2,26.2
				c4.4,6.4,12.7,11.2,21.6,16.2l0.9,0.4l32.1-52.3L372.4,732.5z M341.5,769.1c-0.8-2.9,0.3-6.5,3.7-11.6c0.7-1,1.3-2.2,2.1-3.4
				c3-5.1,7.5-12.6,11.7-13.2h0.1c0.1,0,0.3,0,0.6,0c0.1,0,0.1,0,0.2,0h0.2c0.1,0,0.2,0,0.3,0c0.3,0,0.7,0,0.9,0.1
				c0.2,0.1,0.3,0.1,0.4,0.1h0.1l0.1,0.1h0.1c1.7,0.3,3.7,1.6,5.3,2.7c0.2,0.1,0.3,0.2,0.6,0.3L348.4,776
				C344.5,773.7,342.3,771.6,341.5,769.1z"/>
			<path class="st2" d="M370.3,730.8c-5.3-3.4-12-5.1-18.1-3.1c-8.6,1.8-15.3,12.7-19.8,20.7c-12.3,22.4,2.2,30.9,19.9,41l31.1-50.5
				L370.3,730.8z M347.3,774.6L347.3,774.6L347.3,774.6c-10.4-5.1-10.6-10.9-4.5-20.4c3.4-5.2,8.9-16.4,14.6-17.1
				c0.3-0.1,0.8,0,1.1,0c0.4,0,1,0,1.4,0.1c0.2,0.1,0.6,0.1,0.8,0.2c2.4,0.4,5,2.4,7.1,3.7L347.3,774.6z"/>
		</g>
		<g>
			<polygon class="st1" points="238.7,492.5 232.7,492.5 226.7,492.6 226.8,514.7 213.2,514.7 213.1,496.1 201.3,496.1 201.4,514.8 
				189.6,514.8 189.5,492.9 177.3,493 177.5,529 239,528.6 			"/>
			<polygon class="st2" points="230,491 225.2,491 225.3,513 209.5,513.1 209.4,494.5 199.8,494.5 199.9,513.2 185.8,513.2 
				185.8,513.2 185.8,513.2 185.7,491.3 175.7,491.4 176,525.3 235.2,525 235.1,491 			"/>
		</g>
		<g>
			<polygon class="st1" points="353.4,255.5 346.8,245.4 331.2,255.6 324.1,244.6 341.5,233.2 334.8,223 305.7,242.3 339.4,293.6 
				351.1,285.8 337.8,265.7 			"/>
			<polygon class="st2" points="335.4,291.1 345.5,284.5 332.2,264.4 347.7,254 342.3,245.7 326.8,256 318.4,243.3 318.4,243.3 
				318.4,243.3 335.7,231.9 330.3,223.5 302.9,241.5 			"/>
		</g>
		<g>
			<path class="st1" d="M661.8,750.8c-3.5-7.5-10.2-21.4-23.2-22.2l0,0l0,0c-0.2,0-0.4,0-0.6,0c-0.6,0-1.1,0-1.6,0.1
				c-8.5,0.9-15.6,5.3-19.1,11.9c-3.2,6-2.9,13.1,0.8,19.8l0.4,0.9l12.5-6.4l-0.4-1c-1.2-2.3-2.4-5.8-1.4-8.4
				c0.6-1.7,2.1-2.9,4.3-3.8c0.7-0.3,1.4-0.4,2.2-0.7l0.2-0.1h0.1c0.6,0,1.1-0.1,1.6,0h0.1c4.2,0.7,8.1,8.8,11,14.6
				c1,2.1,1.9,4,2.8,5.4c2.9,5.5,3.7,9.5,2.4,12.3c-0.9,2-2.9,3.3-6,4.1c-0.6,0.1-1,0.2-1.4,0.2c-0.6,0-1.2-0.1-1.7-0.4
				c-2.2-1.3-3.3-3.1-4.9-5.7l-1-1.6l-12.5,6.4l0.6,1c2.8,4.4,6.4,9.3,12.6,11.6c0.9,0.3,1.8,0.6,2.7,0.8h0.1
				c0.9,0.1,1.9,0.2,2.8,0.2c3.4,0,7-1,10.7-2.9c5.4-2.5,9.1-6.5,10.6-11.9C668.7,768.5,666.9,759.5,661.8,750.8z"/>
			<path class="st2" d="M660.8,747.6c-4.4-9.4-10.7-20.8-22.3-21.6c-0.7,0-1.4,0-2.1,0c-15.6,1.7-25.5,15.5-17.6,30.1l10.6-5.4
				c-2.8-5.4-3.3-11.1,3.4-13.5c0.9-0.3,1.8-0.6,2.8-0.8c0.7,0,1.4-0.1,2.1,0c6.2,1,11.1,14.6,14.6,20.6c3.9,7.5,5.7,15.4-4.2,18
				c-0.6,0.1-1.1,0.2-1.7,0.2c-0.8,0-1.6-0.2-2.2-0.6l0,0c-2.8-1.6-3.9-3.8-5.7-6.8l-10.6,5.4c3.2,5.1,6.8,9.2,12.2,11.2
				c0.9,0.3,1.7,0.6,2.5,0.8c4.4,0.8,9-0.6,12.9-2.5C669.8,776,668.2,760,660.8,747.6z"/>
		</g>
	</g>
	<g>
		<line class="st3" x1="456.5" y1="1.1" x2="502.1" y2="498"/>
		<line class="st3" x1="541.1" y1="0.8" x2="502.1" y2="497.5"/>
		<line class="st3" x1="946.6" y1="271.9" x2="502.4" y2="498.4"/>
		<line class="st3" x1="502.9" y1="497.5" x2="928.1" y2="759.5"/>
		<line class="st3" x1="502.9" y1="497.5" x2="503.1" y2="999.2"/>
		<line class="st3" x1="502.9" y1="497.5" x2="76.4" y2="763.2"/>
		<line class="st3" x1="502.5" y1="498.7" x2="53.4" y2="275.8"/>
	</g>
</g>
</svg>
