<svg xmlns="http://www.w3.org/2000/svg" width="1000" height="1000" viewBox="0 0 1000 1000">
  <g>
    <path d="M491.1,475.1,369.7,17.1a503.6,503.6,0,0,0-75.6,27.2Z" style="fill: #a1151c"/>
    <path d="M481.7,519.3,127.6,833.7A515.7,515.7,0,0,0,185.8,889Z" style="fill: #a1151c"/>
    <path d="M474.7,507.9,12.1,609.7a498,498,0,0,0,23.8,76.7Z" style="fill: #231f20"/>
    <path d="M493.4,525.8,337.6,973a487.1,487.1,0,0,0,77.8,19.8Z" style="fill: #231f20"/>
    <path d="M487,476.9,290,46.2a494.5,494.5,0,0,0-69.9,39.5Z" style="fill: #231f20"/>
    <path d="M453.2,2.1A493.7,493.7,0,0,0,374.1,16L495.4,473.9Z" style="fill: #231f20"/>
    <path d="M489.2,524.3,260,938.8a503.1,503.1,0,0,0,73.3,32.7Z" style="fill: #a1151c"/>
    <path d="M485.2,522.1,189.3,891.8a499.1,499.1,0,0,0,66.8,44.8Z" style="fill: #231f20"/>
    <path d="M473.7,503.5.6,525.7a498.1,498.1,0,0,0,10.5,79.6Z" style="fill: #a1151c"/>
    <path d="M476.4,512.1,37.6,690.6a501.4,501.4,0,0,0,36.6,71.5Z" style="fill: #a1151c"/>
    <path d="M518.4,519.1,817.5,886.2a499.3,499.3,0,0,0,57.8-55.8Z" style="fill: #231f20"/>
    <path d="M76.6,766a511.8,511.8,0,0,0,48,64.3L478.7,515.9Z" style="fill: #231f20"/>
    <path d="M989.7,601a504,504,0,0,0,8.7-60.7c.5-6.4.9-12.7,1.2-19l-473.3-18Z" style="fill: #231f20"/>
    <path d="M3.5,440.9c-.7,6.3-1.4,12.5-1.9,18.8A528.2,528.2,0,0,0,.4,521.2L473.5,499Z" style="fill: #231f20"/>
    <path d="M477.3,486.2l-382-280a502.9,502.9,0,0,0-41.9,68.6Z" style="fill: #a1151c"/>
    <path d="M475.3,490.3,51.4,278.8a504.8,504.8,0,0,0-29.6,74.7Z" style="fill: #231f20"/>
    <path d="M150.8,142.1A507.4,507.4,0,0,0,98,202.6l382,280Z" style="fill: #231f20"/>
    <path d="M474,494.6,20.5,357.8A497.1,497.1,0,0,0,4.1,436.5Z" style="fill: #a1151c"/>
    <path d="M523.7,511.9,928.1,758.4A486,486,0,0,0,964,686.6Z" style="fill: #231f20"/>
    <path d="M524.6,490.1,976.9,349.3a502.1,502.1,0,0,0-30.3-74.4Z" style="fill: #a1151c"/>
    <path d="M522.5,486l422-215.1A494.9,494.9,0,0,0,902,202.7Z" style="fill: #231f20"/>
    <path d="M521.4,515.7,878.3,827a505.1,505.1,0,0,0,47.5-64.7Z" style="fill: #a1151c"/>
    <path d="M996.1,436.6,526.5,498.8l473.2,18A495.7,495.7,0,0,0,996.1,436.6Z" style="fill: #a1151c"/>
    <path d="M525.9,494.3l469.6-62.2a501.1,501.1,0,0,0-17.3-78.5Z" style="fill: #231f20"/>
    <path d="M483.2,479.5,216.3,88.2A505,505,0,0,0,154.1,139Z" style="fill: #a1151c"/>
    <path d="M497.9,526.5l-78,467.1c13.1,2.1,26.4,3.7,39.8,4.8s26.9,1.6,40.2,1.6Z" style="fill: #a1151c"/>
    <path d="M519.8,482.4,899.4,199.1a498.8,498.8,0,0,0-53.4-60Z" style="fill: #a1151c"/>
    <path d="M525.4,507.7,965.7,682.4a503.9,503.9,0,0,0,23.1-77Z" style="fill: #a1151c"/>
    <path d="M584.4,992.9l-82-466.4,2,473.5A491.7,491.7,0,0,0,584.4,992.9Z" style="fill: #231f20"/>
    <path d="M512.8,476.8,776.3,83.2A499.8,499.8,0,0,0,706,44.3Z" style="fill: #a1151c"/>
    <path d="M515,522,747.7,934.4A510.4,510.4,0,0,0,814,889.1Z" style="fill: #a1151c"/>
    <path d="M780.1,85.7,516.6,479.3,842.8,136A506,506,0,0,0,780.1,85.7Z" style="fill: #231f20"/>
    <path d="M542.5,1.8,504.4,473.9,621.7,15A501.6,501.6,0,0,0,542.5,1.8Z" style="fill: #a1151c"/>
    <path d="M508.7,475,701.9,42.5A486.2,486.2,0,0,0,626,16.1Z" style="fill: #231f20"/>
    <path d="M511,524.2,670.8,970.1a513.2,513.2,0,0,0,73-33.5Z" style="fill: #231f20"/>
    <path d="M538,1.5a500.4,500.4,0,0,0-80.3.2l42.2,471.8Z" style="fill: #229c2e"/>
    <path d="M506.8,525.7l82.1,466.5a503.2,503.2,0,0,0,77.6-20.6Z" style="fill: #a1151c"/>
  </g>
  <g>
    <path d="M512,30.6q-.3-8.7-3.6-13.5a10.9,10.9,0,0,0-9.6-4.5,10.5,10.5,0,0,0-9.3,4.9c-2.1,3.3-3.1,7.9-3,14v8.2c.2,5.9,1.5,10.3,3.7,13.4a11.7,11.7,0,0,0,18.8-.5c2.1-3.3,3.1-7.9,3-14ZM502.7,48c-.7,1.7-1.7,2.5-3.1,2.5s-2.5-.8-3.3-2.5a21.8,21.8,0,0,1-1.1-7.9l-.3-10.9c0-6.3,1.4-9.5,4.1-9.6s2.5.8,3.2,2.6a23.3,23.3,0,0,1,1.2,7.7l.2,10.7A22.7,22.7,0,0,1,502.7,48Z" style="fill: #fff"/>
    <path d="M566.5,17.1a12.9,12.9,0,0,0-6.5.7,10.3,10.3,0,0,0-4.9,3.6,12.7,12.7,0,0,0-2.5,5.8l8.5,1.2a5.2,5.2,0,0,1,1.6-3.3,3.8,3.8,0,0,1,5.9.9,6.3,6.3,0,0,1,.5,4.2,7.3,7.3,0,0,1-1.7,4.2,3.6,3.6,0,0,1-3.6,1.1l-4.1-.5-.9,6.8,4.1.5c3.3.5,4.7,2.9,4.1,7.2a7.2,7.2,0,0,1-1.9,4.1,4,4,0,0,1-3.6,1.1,3.4,3.4,0,0,1-2.9-2,6.1,6.1,0,0,1-.7-4.1l-8.5-1.1a12.1,12.1,0,0,0,10.8,14.2,13.9,13.9,0,0,0,10.2-2.1c2.8-2,4.4-4.9,5-8.8a12.2,12.2,0,0,0-.7-6.4,9.3,9.3,0,0,0-4-4.6,11.5,11.5,0,0,0,4.6-3.3,11,11,0,0,0,2.3-5.3c.5-3.8-.2-7-2.2-9.5S570.5,17.7,566.5,17.1Z" style="fill: #fff"/>
    <path d="M602.6,61.5,588,58.6l7.1-6.8a48.3,48.3,0,0,0,8.2-7.9,16.3,16.3,0,0,0,3.2-7c.8-3.9.4-7.1-1.3-9.7s-4.5-4.2-8.3-5a13.1,13.1,0,0,0-7.1.5,12.1,12.1,0,0,0-5.6,4.2,15.6,15.6,0,0,0-3.1,6.9l8.4,1.7a10.1,10.1,0,0,1,2.2-5.1,4.1,4.1,0,0,1,3.7-1.3,3.5,3.5,0,0,1,2.5,2.2A10.4,10.4,0,0,1,598,36a11.9,11.9,0,0,1-2,4.3,34,34,0,0,1-4.3,4.7L577,57.4l-1.1,5.9,25.3,5.1Z" style="fill: #fff"/>
    <polygon points="633.6 37.8 631.5 44.5 640.4 44 630.2 75.9 638.4 78.5 651.7 36.7 650.8 36.4 633.6 37.8" style="fill: #fff"/>
    <path d="M669.4,87.1c3.2-1.7,5.5-4.6,7.1-8.7s2.1-8.1,1.2-11.2a9.8,9.8,0,0,0-6.4-6.6,8,8,0,0,0-5.3-.3l4.1-8.5L683.4,57l2.6-6.8-19.8-7.7-10,20,5.7,4.1.7-.6a4.5,4.5,0,0,1,4.1-.1,4.3,4.3,0,0,1,2.9,3.1c.4,1.6.1,3.5-.8,5.9a12.9,12.9,0,0,1-3.3,5.2,3.4,3.4,0,0,1-3.7.7,3.3,3.3,0,0,1-2.2-2.4,7.8,7.8,0,0,1,.2-4.5l-7.8-3a12.3,12.3,0,0,0-.8,6.8,11,11,0,0,0,2.7,5.9,12.4,12.4,0,0,0,5.4,3.8A11.5,11.5,0,0,0,669.4,87.1Z" style="fill: #fff"/>
    <polygon points="707.4 108.4 727.6 69.5 726.8 69 709.6 67.5 706.3 73.8 715.2 74.8 699.8 104.5 707.4 108.4" style="fill: #fff"/>
    <path d="M750.4,102.5a25.8,25.8,0,0,0,3.4-8.9,14,14,0,0,0-.6-7.7,11,11,0,0,0-4.5-5.3,11.6,11.6,0,0,0-6.6-1.6,12.6,12.6,0,0,0-6.7,2.5,18.4,18.4,0,0,0-5.5,5.9c-2.3,3.9-3.4,7.4-3.1,10.7a9.1,9.1,0,0,0,4.7,7.5,8.4,8.4,0,0,0,6.5.7c-2,2.6-4.1,4.2-6.4,4.8s-5,.1-7.8-1.6l-.5-.3-3.8,6.3.8.4c5.2,3.1,10.3,3.6,15.2,1.7s9.4-6.1,13.3-12.5Zm-6.5-5.8-2,3.4q-3,2.1-5.1.9a3.6,3.6,0,0,1-1.7-3.6,13.4,13.4,0,0,1,2.1-5.7,13.7,13.7,0,0,1,4-4.5c1.5-1,2.8-1.2,3.8-.5s1.5,1.8,1.3,3.6A15.5,15.5,0,0,1,743.9,96.7Z" style="fill: #fff"/>
    <path d="M795.8,148.1l-2.9-2.4L810.7,125l-6.5-5.6-30,12.2-3.3,4.4,11,9.5-6.2,7.2,6.4,5.5,6.2-7.2,2.8,2.5Zm-9.3-8-5.1-4.3,14.3-6.7h.3Z" style="fill: #fff"/>
    <path d="M837.4,201.8,827.2,191l9.7-1.4a46.6,46.6,0,0,0,11.3-1.7,17.5,17.5,0,0,0,6.7-3.8c2.9-2.8,4.4-5.6,4.5-8.7s-1.2-6-3.8-8.8a12.6,12.6,0,0,0-13.1-3.7,15.7,15.7,0,0,0-6.5,3.9l5.8,6.2a10.1,10.1,0,0,1,4.8-2.8,3.8,3.8,0,0,1,3.7,1.1,3.2,3.2,0,0,1,.8,3.2,9.2,9.2,0,0,1-2.7,3.9,9.8,9.8,0,0,1-4,2.3,30.2,30.2,0,0,1-6.3,1.3L819,183.7l-4.4,4.1,17.6,18.9Z" style="fill: #fff"/>
    <polygon points="865.6 194.4 839.8 215.8 845.3 222.4 879.1 194.4 878.5 193.7 863.3 185.5 857.8 190.1 865.6 194.4" style="fill: #fff"/>
    <path d="M905.9,254.2a10.5,10.5,0,0,1-4.4,1.5,35,35,0,0,1-6.5,0l-19-2.2-5.2,3.2,13.5,22,6.1-3.7-7.8-12.7,9.8.6a47.9,47.9,0,0,0,11.4.6,17,17,0,0,0,7.3-2.4c3.4-2.1,5.5-4.6,6.2-7.6s0-6.1-2-9.4a13.5,13.5,0,0,0-5.2-4.9,12.4,12.4,0,0,0-6.9-1.3,15.4,15.4,0,0,0-7.1,2.4l4.4,7.3a10.8,10.8,0,0,1,5.3-1.8,4,4,0,0,1,3.3,1.8,3.4,3.4,0,0,1,.2,3.4A9.6,9.6,0,0,1,905.9,254.2Z" style="fill: #fff"/>
    <path d="M935.7,312.8a10.6,10.6,0,0,1-4.5.9,34.8,34.8,0,0,1-6.4-.9L906.2,308l-5.5,2.5,10.4,23.6,6.5-2.8-6-13.7,9.6,1.9a47,47,0,0,0,11.2,2.2,17.2,17.2,0,0,0,7.6-1.4c3.6-1.6,6-3.8,7.1-6.6s.9-6.1-.7-9.7a12.7,12.7,0,0,0-4.4-5.5,12.2,12.2,0,0,0-6.7-2.2,16,16,0,0,0-7.4,1.4l3.4,7.9a10.1,10.1,0,0,1,5.5-1.1,3.9,3.9,0,0,1,3.1,2.2,3.2,3.2,0,0,1-.4,3.4A9.1,9.1,0,0,1,935.7,312.8Z" style="fill: #fff"/>
    <path d="M932.9,336l.9.2a4.5,4.5,0,0,1,2.8,2.9,4.6,4.6,0,0,1-.4,4.3,10.5,10.5,0,0,1-4.9,3.3,13.9,13.9,0,0,1-6.1,1,3.6,3.6,0,0,1-3.1-2.4,3.9,3.9,0,0,1,.4-3.3,8.9,8.9,0,0,1,3.6-2.7l-3-7.9a14.1,14.1,0,0,0-5.6,3.9,12.8,12.8,0,0,0-2.7,5.9,13.4,13.4,0,0,0,.7,6.6,12,12,0,0,0,7,7.4c3.4,1.3,7.1,1.1,11.2-.4s7.5-3.8,9.2-6.5,2-5.8.8-9.2a9.4,9.4,0,0,0-3.3-4.2l9-2.5,5,13.4,6.8-2.5-7.3-19.9L932.2,329Z" style="fill: #fff"/>
    <polygon points="962 382.7 929.5 390.8 931.5 399.1 974.1 388.5 973.9 387.6 963.7 373.7 956.8 375.4 962 382.7" style="fill: #fff"/>
    <polygon points="972.7 417.4 934.1 410.4 935.7 419.2 976.5 425.8 981.3 425 976.5 398.9 969.6 400.1 972.7 417.4" style="fill: #fff"/>
    <path d="M973.3,451.9l.6,8.5a5.4,5.4,0,0,1,3.6.9,3.6,3.6,0,0,1,1.6,2.8,3.5,3.5,0,0,1-1.2,3.1,6.8,6.8,0,0,1-4,1.4,7.8,7.8,0,0,1-4.5-.7,4.1,4.1,0,0,1-1.9-3.4l-.3-4.1-6.8.5.3,4.2c.2,3.4-1.8,5.2-6.1,5.5a7.2,7.2,0,0,1-4.5-1,4.1,4.1,0,0,1-1.8-3.3,3.8,3.8,0,0,1,1.3-3.3,6.2,6.2,0,0,1,3.9-1.5l-.6-8.5a12,12,0,0,0-11.7,13.5,13.6,13.6,0,0,0,4.2,9.5,12.2,12.2,0,0,0,9.6,3.1,13.4,13.4,0,0,0,6.2-2,9.1,9.1,0,0,0,3.6-4.9A10.3,10.3,0,0,0,969,476a9.8,9.8,0,0,0,5.6,1.1,12,12,0,0,0,8.9-4c2-2.5,2.9-5.7,2.6-9.7a11.7,11.7,0,0,0-2-6.2,10.5,10.5,0,0,0-4.5-4.1A12.1,12.1,0,0,0,973.3,451.9Z" style="fill: #fff"/>
    <path d="M952.3,481.5l.2,14.5H943v8.5h9.5v3.7h7.1v-3.8l27.2-.3v-8.5l-29-14.6Zm21.6,14.1h.3l-14.6.2v-6.6Z" style="fill: #fff"/>
    <path d="M981.1,558.6a19.1,19.1,0,0,0-6.9-8.1,32.4,32.4,0,0,0-12-4.7l-3.1-.7c-5.3-1-9.8-.7-13.4,1a11.4,11.4,0,0,0-6.6,8.4,12.4,12.4,0,0,0,.6,6.9,12.3,12.3,0,0,0,4.4,5.5,16.9,16.9,0,0,0,7.2,3.2c4.5.9,8.2.7,11.2-.7a8.6,8.6,0,0,0,5.5-6.6,8.7,8.7,0,0,0-1.7-7.4,13.6,13.6,0,0,1,7.2,5,10.7,10.7,0,0,1,1.3,8v.5l7,1.4.3-1.3A17.4,17.4,0,0,0,981.1,558.6Zm-19.4.2a3.8,3.8,0,0,1-2.9,2.8,10.2,10.2,0,0,1-5.8.1,11.2,11.2,0,0,1-5.4-2.3,3.8,3.8,0,0,1-1.5-3.7A3.7,3.7,0,0,1,949,553c1.7-.5,4-.4,7.1.2l3,.6a5.3,5.3,0,0,1,2.1,2.1A3.7,3.7,0,0,1,961.7,558.8Z" style="fill: #fff"/>
    <path d="M966.7,615a16.1,16.1,0,0,0-6.7-3.6l-2.3,8.3a9.1,9.1,0,0,1,4.9,2.6,3.5,3.5,0,0,1,1,3.7,3,3,0,0,1-2.3,2.3,8.5,8.5,0,0,1-4.7-.2,11,11,0,0,1-4.1-2.2,34.6,34.6,0,0,1-4.4-4.7l-11.5-15.4-5.8-1.5L924,629.2l6.9,1.8,3.9-14.3,6.3,7.5a44.4,44.4,0,0,0,7.3,8.7,17.6,17.6,0,0,0,6.8,3.7c3.8,1.1,7.1.8,9.7-.7s4.5-4.2,5.5-7.9a12.3,12.3,0,0,0,0-7.1A11.9,11.9,0,0,0,966.7,615Z" style="fill: #fff"/>
    <polygon points="953 658.4 922.6 633.4 919.7 642 952.2 667.6 956.8 669.2 965.3 644.1 958.6 641.8 953 658.4" style="fill: #fff"/>
    <polygon points="934.5 697.7 904.8 682.1 900.9 689.7 939.7 710.1 940.1 709.3 941.8 692.1 935.5 688.8 934.5 697.7" style="fill: #fff"/>
    <path d="M929.9,719a12.2,12.2,0,0,0-4.7-4.3l-4,7.4a5.9,5.9,0,0,1,2.5,2.7,3.6,3.6,0,0,1-.2,3.2,3.7,3.7,0,0,1-2.7,2,6.1,6.1,0,0,1-4.1-1,8.5,8.5,0,0,1-3.4-3,4.2,4.2,0,0,1,.2-3.9l2-3.6-6-3.3-2,3.7c-1.6,3-4.3,3.4-8.1,1.3a6.2,6.2,0,0,1-3.2-3.2,4,4,0,0,1,.2-3.8,3.8,3.8,0,0,1,2.9-2,6.9,6.9,0,0,1,4.1.8l4-7.5a12.5,12.5,0,0,0-9.7-1.3,12.8,12.8,0,0,0-7.4,6.4,14.2,14.2,0,0,0-1.6,10.3c.9,3.3,3.1,5.8,6.5,7.7a12.4,12.4,0,0,0,6.2,1.7,9.9,9.9,0,0,0,5.7-2.2,11.1,11.1,0,0,0,1.5,5.5,10.5,10.5,0,0,0,4.1,4c3.4,1.8,6.6,2.3,9.7,1.3s5.5-3.2,7.4-6.7a12.9,12.9,0,0,0,1.7-6.3A11.1,11.1,0,0,0,929.9,719Z" style="fill: #fff"/>
    <path d="M898.5,760l-4.9,7a4.8,4.8,0,0,1,2.2,2.9,3.4,3.4,0,0,1-.5,3.2,3.7,3.7,0,0,1-2.9,1.6,6.3,6.3,0,0,1-4-1.4,7.9,7.9,0,0,1-3-3.4,3.9,3.9,0,0,1,.6-3.8l2.4-3.3-5.7-4-2.3,3.5c-2,2.7-4.7,2.9-8.3.4a7.1,7.1,0,0,1-2.8-3.5,4.1,4.1,0,0,1,.7-3.8,3.9,3.9,0,0,1,3.1-1.7A6.7,6.7,0,0,1,877,755l4.9-7a11.8,11.8,0,0,0-17.6,3.2,13.6,13.6,0,0,0-2.7,10,12.2,12.2,0,0,0,5.6,8.4,12.5,12.5,0,0,0,6,2.3,9.2,9.2,0,0,0,5.9-1.5,10.9,10.9,0,0,0,4.5,10c3.2,2.2,6.4,3,9.5,2.4s5.9-2.6,8.2-5.9a12.7,12.7,0,0,0,2.3-6.1,11.2,11.2,0,0,0-1-6A12.6,12.6,0,0,0,898.5,760Z" style="fill: #fff"/>
    <path d="M871.6,777l-2.5-2c-4.2-3.3-8.4-5-12.3-5.1a12,12,0,0,0-12.3,10.9,12.2,12.2,0,0,0,1.3,6.9,19.6,19.6,0,0,0,5.1,6.1c3.6,2.8,7,4.3,10.3,4.5a8.9,8.9,0,0,0,7.9-3.5,8.7,8.7,0,0,0,1.8-7.3,13.1,13.1,0,0,1,4.1,7.6,10.2,10.2,0,0,1-2.4,7.8l-.3.4,5.7,4.4.8-1a18.2,18.2,0,0,0,3.9-9.7,17.8,17.8,0,0,0-2.6-10.3A31.8,31.8,0,0,0,871.6,777Zm-6.3,11.4a4.1,4.1,0,0,1-3.9,1.3,12.3,12.3,0,0,1-5.3-2.6,11.7,11.7,0,0,1-3.7-4.5,4,4,0,0,1,.3-4,3.9,3.9,0,0,1,3.9-1.1c1.7.3,3.7,1.4,6.2,3.4l2.4,1.9a5.8,5.8,0,0,1,.9,2.8A4.2,4.2,0,0,1,865.3,788.4Z" style="fill: #fff"/>
    <polygon points="842 831.8 818.1 808.4 812.1 814.5 843.4 845.2 844.1 844.6 850.6 828.6 845.5 823.6 842 831.8" style="fill: #fff"/>
    <polygon points="820.8 852.4 798.4 827.5 792 833.2 821.4 865.8 822.1 865.2 829.6 849.7 824.8 844.4 820.8 852.4" style="fill: #fff"/>
    <path d="M789.1,877.8l-6.9,5a5.2,5.2,0,0,1,1.1,3.5,3.7,3.7,0,0,1-1.6,2.8,3.9,3.9,0,0,1-3.3.6,8.5,8.5,0,0,1-4.9-6.9,3.6,3.6,0,0,1,1.8-3.3l3.3-2.4-4-5.6-3.4,2.5c-2.7,1.9-5.3,1.1-7.9-2.4a7.4,7.4,0,0,1-1.5-4.2,4.4,4.4,0,0,1,1.9-3.4,3.9,3.9,0,0,1,3.5-.5,5.9,5.9,0,0,1,3.3,2.4l6.9-5a12.1,12.1,0,0,0-17.7-2.8,14,14,0,0,0-5.8,8.6,12.4,12.4,0,0,0,2.5,9.8,13,13,0,0,0,4.9,4.2,9.3,9.3,0,0,0,6,.5,11.3,11.3,0,0,0-1,5.5,10.5,10.5,0,0,0,2,5.4q3.5,4.8,8.1,5.4c3.2.5,6.4-.5,9.7-2.8a12.6,12.6,0,0,0,4.2-5,11.3,11.3,0,0,0,1.1-6A12,12,0,0,0,789.1,877.8Z" style="fill: #fff"/>
    <path d="M756.7,882.5c-3.2-4.8-6.5-8-10.1-9.5a10.8,10.8,0,0,0-10.4,1.1,10.5,10.5,0,0,0-5.3,9.1c-.2,3.9,1.4,8.4,4.6,13.5l4.3,6.7c3.2,5,6.5,8.2,10.1,9.7a10.8,10.8,0,0,0,10.5-1,11,11,0,0,0,5.4-9.1c.1-3.9-1.4-8.4-4.7-13.5Zm-.1,23.6c-1.2.8-2.6.6-4.1-.5s-3.2-3.1-5-6l-5.7-9a19.6,19.6,0,0,1-3.1-6.9,3.2,3.2,0,0,1,1.3-3.6c1.3-.8,2.6-.7,4.1.4a19.5,19.5,0,0,1,5.1,6.1l5.9,9.3Q760.1,904,756.6,906.1Z" style="fill: #fff"/>
    <path d="M706.4,922.3a10.2,10.2,0,0,0-5.1-1.9,10.6,10.6,0,0,0,2-5.7,12.3,12.3,0,0,0-18.2-12.2c-3.5,1.7-5.8,4.1-6.8,7.1s-.7,6.3,1,9.8a12.1,12.1,0,0,0,4.2,5,11.4,11.4,0,0,0,5.6,1.9,11.7,11.7,0,0,0-1.6,5.2,10.8,10.8,0,0,0,1.3,5.7,11.8,11.8,0,0,0,6.8,6.6c2.8,1.1,5.9.8,9.2-.8s5.4-3.8,6.3-6.7a12,12,0,0,0-1-9.5A11.8,11.8,0,0,0,706.4,922.3ZM693.6,920a3.4,3.4,0,0,1-3.4-.1,8.1,8.1,0,0,1-2.9-3.7,7.6,7.6,0,0,1-1.1-4.5,3.2,3.2,0,0,1,1.9-2.8,3.6,3.6,0,0,1,3.5.1,9.3,9.3,0,0,1,3,3.6,8.5,8.5,0,0,1,1,4.6A3.2,3.2,0,0,1,693.6,920Zm8.1,16.6a2.7,2.7,0,0,1-3-.2,10.1,10.1,0,0,1-2.5-3.3,10.9,10.9,0,0,1-1.1-4.2,2.7,2.7,0,0,1,1.6-2.5,2.4,2.4,0,0,1,2.9.4,8.1,8.1,0,0,1,2.6,3.3,9.3,9.3,0,0,1,1.1,4.1A2.5,2.5,0,0,1,701.7,936.6Z" style="fill: #fff"/>
    <path d="M638.1,952.6a10.6,10.6,0,0,1,.3,5.5,3.7,3.7,0,0,1-2.6,2.8,3.2,3.2,0,0,1-3.3-.8,8.3,8.3,0,0,1-2.2-4.1,11.6,11.6,0,0,1-.3-4.6,34.8,34.8,0,0,1,1.7-6.2l7.1-17.9-1.7-5.7-24.8,7.3,2,6.7,14.3-4.2-3.1,9.3a43.9,43.9,0,0,0-3.6,10.9,18,18,0,0,0,.4,7.7c1.1,3.8,3,6.4,5.7,7.9s5.9,1.6,9.6.5a12.3,12.3,0,0,0,6.1-3.7,11.6,11.6,0,0,0,3-6.3,16,16,0,0,0-.4-7.5Z" style="fill: #fff"/>
    <path d="M610.1,962.7a5.1,5.1,0,0,1-.4,3.7,3.7,3.7,0,0,1-5.8,1.2,6.9,6.9,0,0,1-2-3.7,8.4,8.4,0,0,1,.1-4.5,3.9,3.9,0,0,1,3-2.4l4.1-.9-1.6-6.7-4.1.9c-3.2.8-5.3-1-6.3-5.2a6.7,6.7,0,0,1,.3-4.5,4.3,4.3,0,0,1,3-2.4,3.8,3.8,0,0,1,3.4.9,5.5,5.5,0,0,1,2.1,3.6l8.3-1.9a11.8,11.8,0,0,0-15.1-9.5c-3.9.9-6.9,2.7-8.8,5.6a12,12,0,0,0-1.5,9.9,11.8,11.8,0,0,0,2.9,5.8,9,9,0,0,0,5.3,2.9,10.8,10.8,0,0,0-3.4,10.4c.9,3.8,2.7,6.5,5.4,8.2s6.1,2,10,1.1a12.7,12.7,0,0,0,5.8-2.9,11,11,0,0,0,3.4-5.1,12.5,12.5,0,0,0,.2-6.4Z" style="fill: #fff"/>
    <polygon points="560.5 972.3 556.7 939.1 548.2 940 553.2 983.7 554.1 983.6 569.2 975.2 568.4 968.2 560.5 972.3" style="fill: #fff"/>
    <path d="M541.5,959.1c-.4-5.8-1.8-10.2-4.1-13.2a11.7,11.7,0,0,0-18.8,1.1c-2,3.4-2.8,8-2.5,14.1l.4,8c.4,5.8,1.7,10.3,4.1,13.3a10.5,10.5,0,0,0,9.6,4.3,10.8,10.8,0,0,0,9.2-5.3c2-3.3,2.8-8,2.5-14Zm-11.7,20.5q-2.1.1-3.3-2.4c-.8-1.7-1.2-4.2-1.4-7.7l-.6-10.7a21.1,21.1,0,0,1,.7-7.4,3.3,3.3,0,0,1,3-2.6q2.1-.1,3.3,2.4A22.3,22.3,0,0,1,533,959l.6,10.9C533.8,976.3,532.6,979.5,529.8,979.6Z" style="fill: #fff"/>
    <path d="M463.5,948.7a3.4,3.4,0,0,1,2.8,1.8,7.8,7.8,0,0,1,1,4.3l8.4.8a13.6,13.6,0,0,0-1.1-6.7,12.5,12.5,0,0,0-10.5-7.2,11.6,11.6,0,0,0-9.6,3.1c-2.6,2.5-4.1,5.9-4.5,10.3s.2,8.4,1.9,11.1a9.9,9.9,0,0,0,8,4.6,8.3,8.3,0,0,0,5.2-1.2l-1.7,9.3-14.1-1.3-.7,7.3,21.1,1.9,4.3-22-6.6-2.3-.6.7a4.8,4.8,0,0,1-3.9,1.3,4.5,4.5,0,0,1-3.7-2.3,11,11,0,0,1-.8-5.8c.3-2.7.8-4.7,1.7-6A3.7,3.7,0,0,1,463.5,948.7Z" style="fill: #fff"/>
    <path d="M387.3,936l14.6,3.3-7.3,6.6a43.9,43.9,0,0,0-8.4,7.7,18.9,18.9,0,0,0-3.4,7c-.9,3.8-.5,7.1,1.1,9.6a12.3,12.3,0,0,0,8.2,5.2,12.2,12.2,0,0,0,7.1-.3,11.9,11.9,0,0,0,5.7-4,16,16,0,0,0,3.3-6.8l-8.4-1.9a11.1,11.1,0,0,1-2.3,5,3.5,3.5,0,0,1-3.7,1.1,3,3,0,0,1-2.4-2.2,7.5,7.5,0,0,1,0-4.7,11.5,11.5,0,0,1,2-4.2,31.6,31.6,0,0,1,4.5-4.6l14.9-12.1,1.3-5.9-25.2-5.7Z" style="fill: #fff"/>
    <path d="M385.2,938l-13.9-4.1,2.6-9.1-8.1-2.4-2.7,9.1-3.6-1.1-2,6.8,3.6,1.1-7.6,26.2,8.2,2.4L384,943.4Zm-19.8,16.5-.2.3,4.1-14.1,6.4,1.8Z" style="fill: #fff"/>
    <polygon points="326.5 907.7 309.6 948.2 310.5 948.6 327.7 948.7 330.5 942.1 321.5 941.9 334.4 911 326.5 907.7" style="fill: #fff"/>
    <path d="M313.4,906.1a11.2,11.2,0,0,0-6.5-8.5,11.6,11.6,0,0,0-6.8-1.2,12.3,12.3,0,0,0-6.4,2.8,17.8,17.8,0,0,0-4.9,6.2c-2,4.1-2.7,7.8-2.2,11a8.8,8.8,0,0,0,5,7,8.6,8.6,0,0,0,7.5.2,13,13,0,0,1-6.5,5.7,10.1,10.1,0,0,1-8.1-.8l-.5-.2-3.1,6.5,1.1.6a17.5,17.5,0,0,0,19.9-2.9,34,34,0,0,0,7.7-10.4l1.4-2.9C313.3,914.4,314.2,910,313.4,906.1Zm-9.5,8.2-1.3,2.7a6,6,0,0,1-2.6,1.6,3.7,3.7,0,0,1-2.9-.3,3.9,3.9,0,0,1-2-3.5,10.7,10.7,0,0,1,1.3-5.7,12.3,12.3,0,0,1,3.6-4.5,3.8,3.8,0,0,1,4-.6,3.8,3.8,0,0,1,1.9,3.5A16,16,0,0,1,303.9,914.3Z" style="fill: #fff"/>
    <path d="M264.5,874.6a13.3,13.3,0,0,0-10.2-2.2c-3.3.6-6,2.6-8.1,5.9a12.1,12.1,0,0,0-2.1,6.1,9.1,9.1,0,0,0,1.8,5.8,10.7,10.7,0,0,0-9.8,5,12,12,0,0,0-2,9.5,13.1,13.1,0,0,0,6.2,7.9,12.1,12.1,0,0,0,6.2,2.1,11.2,11.2,0,0,0,10.6-5.6l-7.2-4.5a5.2,5.2,0,0,1-2.8,2.3,3.3,3.3,0,0,1-3.2-.4,3.6,3.6,0,0,1-1.8-2.8,6.4,6.4,0,0,1,1.3-4.1,7.3,7.3,0,0,1,3.2-3.1,3.8,3.8,0,0,1,3.8.5l3.5,2.2,3.7-5.8-3.5-2.3c-2.9-1.8-3.1-4.5-.8-8.2a6.2,6.2,0,0,1,3.4-2.9,4,4,0,0,1,3.8.5,3.4,3.4,0,0,1,1.8,3,6.3,6.3,0,0,1-1.1,4l7.2,4.5c2-3.2,2.7-6.4,1.9-9.6A12.1,12.1,0,0,0,264.5,874.6Z" style="fill: #fff"/>
    <path d="M233.6,864.2a4,4,0,0,1,3.8.7A3.7,3.7,0,0,1,239,868a5.9,5.9,0,0,1-1.3,3.9l6.9,5a11.9,11.9,0,0,0,2.5-9.4,12.3,12.3,0,0,0-5.3-8.2,13.8,13.8,0,0,0-10-2.9,12.4,12.4,0,0,0-8.5,5.4,12.9,12.9,0,0,0-2.5,6,9.8,9.8,0,0,0,1.4,5.9,11,11,0,0,0-5.6.8,9.5,9.5,0,0,0-4.4,3.5c-2.3,3.2-3.2,6.3-2.6,9.5s2.4,5.9,5.7,8.2a13.1,13.1,0,0,0,6,2.5,10.6,10.6,0,0,0,6.1-.9,12.4,12.4,0,0,0,4.9-4l-6.9-5a5.2,5.2,0,0,1-3,2.1,3.4,3.4,0,0,1-3.2-.5,3.7,3.7,0,0,1-1.5-3,6.5,6.5,0,0,1,1.4-4,9.2,9.2,0,0,1,3.5-2.9,3.9,3.9,0,0,1,3.7.7l3.4,2.4,4-5.5-3.4-2.5c-2.7-2-2.8-4.7-.2-8.2A5.9,5.9,0,0,1,233.6,864.2Z" style="fill: #fff"/>
    <polygon points="190.8 817.4 160.7 849.4 161.4 850 177.5 856.2 182.4 851 174.1 847.6 197 823.2 190.8 817.4" style="fill: #fff"/>
    <path d="M138.5,768.4l9.2,11.7-9.8.6a46.6,46.6,0,0,0-11.4.7,18,18,0,0,0-7,3.2c-3.1,2.5-4.8,5.2-5.2,8.3s.7,6.1,3.1,9.1a13.9,13.9,0,0,0,5.7,4.3,12.7,12.7,0,0,0,7,.4,17,17,0,0,0,6.8-3.2l-5.3-6.7a10.8,10.8,0,0,1-5,2.4,3.7,3.7,0,0,1-3.5-1.4,3.1,3.1,0,0,1-.5-3.3,8.6,8.6,0,0,1,2.9-3.7,11.5,11.5,0,0,1,4.2-1.9,33.6,33.6,0,0,1,6.4-.8h19.2l4.7-3.7L144,764Z" style="fill: #fff"/>
    <path d="M128.7,772.7c4.7-3.4,7.8-6.9,9.1-10.5a10.7,10.7,0,0,0-1.5-10.3,10.6,10.6,0,0,0-9.3-5c-3.9,0-8.4,1.8-13.3,5.2l-6.6,4.6q-7.2,4.9-9.3,10.5a10.9,10.9,0,0,0,1.5,10.4,10.7,10.7,0,0,0,9.3,5c3.9,0,8.3-1.7,13.3-5.2Zm-23.6.9c-.8-1.2-.7-2.6.3-4.1a23.8,23.8,0,0,1,5.8-5.3l8.8-6.1c2.8-1.9,5-3,6.7-3.3a3.4,3.4,0,0,1,3.8,1.1q1.2,1.8-.3,4.2a22.9,22.9,0,0,1-5.9,5.3l-9,6.2C110.1,775.2,106.7,775.8,105.1,773.6Z" style="fill: #fff"/>
    <polygon points="113.5 717 109.4 709.5 70.9 730.5 71.3 731.3 84.7 742.2 91 738.8 84.1 733 113.5 717" style="fill: #fff"/>
    <path d="M96.8,705.7l-6.1-13.2,8.6-4-3.6-7.7-8.6,4-1.6-3.4-6.4,3,1.6,3.4L55.9,699.3l3.6,7.8L92,708.3Zm-25.5-4H71l13.3-6.2,2.8,6Z" style="fill: #fff"/>
    <path d="M62.9,649.8c-1.1-3.2.5-5.5,4.5-6.9a7.3,7.3,0,0,1,4.6-.1,3.9,3.9,0,0,1,2.6,2.7,3.7,3.7,0,0,1-.5,3.5,6,6,0,0,1-3.3,2.4l2.7,8.1a12.1,12.1,0,0,0,7.9-16c-1.3-3.9-3.5-6.6-6.5-8.1a12.2,12.2,0,0,0-10.1-.5,11.9,11.9,0,0,0-5.4,3.4,9.8,9.8,0,0,0-2.3,5.7,10,10,0,0,0-5-2.6,9.3,9.3,0,0,0-5.7.3,12.1,12.1,0,0,0-7.6,6.2,13.2,13.2,0,0,0-.1,10,13,13,0,0,0,3.5,5.5,10.7,10.7,0,0,0,5.5,2.8,11.4,11.4,0,0,0,6.3-.5l-2.7-8a5.2,5.2,0,0,1-3.7,0,3.2,3.2,0,0,1-2.2-2.3,3.3,3.3,0,0,1,.4-3.3,6.4,6.4,0,0,1,3.5-2.4,8,8,0,0,1,4.5-.4,4.1,4.1,0,0,1,2.6,2.8l1.4,3.9,6.5-2.2Z" style="fill: #fff"/>
    <polygon points="46.1 635 40.8 627.8 73.1 619 70.9 610.7 28.5 622.3 28.8 623.1 39.3 636.9 46.1 635" style="fill: #fff"/>
    <path d="M43.3,570a9.2,9.2,0,0,0,2.5-8.5,8.2,8.2,0,0,0-3.8-5.3,12.1,12.1,0,0,1,7.9,1.6q3,2.1,3.9,6.9v.6l7.2-1.3v-.9c-1.2-5.9-4.2-10.1-8.9-12.6s-10.8-3-18.1-1.6l-3.1.6a24.2,24.2,0,0,0-8.9,3.3,14.2,14.2,0,0,0-5.4,5.5,10.9,10.9,0,0,0-.9,6.9,11.2,11.2,0,0,0,3.1,6,13.9,13.9,0,0,0,6.3,3.5,20,20,0,0,0,8.1.1C37.6,574,41,572.4,43.3,570Zm-17.7-3.6c-1.7-.4-2.7-1.2-2.9-2.4s.3-2.4,1.8-3.5a18.6,18.6,0,0,1,6.4-2.4l3.9-.7c2.4.5,3.7,1.6,4,3.2a3.4,3.4,0,0,1-1.5,3.6,12.6,12.6,0,0,1-5.7,2.3A13.3,13.3,0,0,1,25.6,566.4Z" style="fill: #fff"/>
    <path d="M26.8,510.1v-8.5a11.3,11.3,0,0,1-5.4-1.3,4.2,4.2,0,0,1-1.9-3.4,3.3,3.3,0,0,1,1.7-2.8,8.7,8.7,0,0,1,4.6-1,10.6,10.6,0,0,1,4.5,1.1,41.6,41.6,0,0,1,5.5,3.4l14.9,12.1h6.1l.3-25.9H50.1l-.2,14.9-8-5.7a40.7,40.7,0,0,0-9.3-6.6,17.3,17.3,0,0,0-7.4-1.9c-4,0-7.1,1-9.3,3.1s-3.3,5.2-3.3,9.1a12.1,12.1,0,0,0,6.9,11.6A14.9,14.9,0,0,0,26.8,510.1Z" style="fill: #fff"/>
    <path d="M20.1,476.7a16.4,16.4,0,0,0,7.3,2.2l.5-8.6a9.5,9.5,0,0,1-5.3-1.5,3.9,3.9,0,0,1-1.7-3.5,3.4,3.4,0,0,1,1.8-2.8,9.3,9.3,0,0,1,4.7-.7,11.3,11.3,0,0,1,4.4,1.4,30.6,30.6,0,0,1,5.3,3.7l14.3,12.8,6,.4L59,454.3l-7-.5-1,14.9-7.6-6.1a42,42,0,0,0-9-7.1,17.2,17.2,0,0,0-7.4-2.3c-3.9-.2-7.1.6-9.3,2.7s-3.6,4.9-3.9,8.8a13.6,13.6,0,0,0,1.4,7A12.4,12.4,0,0,0,20.1,476.7Z" style="fill: #fff"/>
    <polygon points="32.5 428.8 30.8 420 63.8 426 65.3 417.6 22.1 409.7 22 410.6 25.5 427.5 32.5 428.8" style="fill: #fff"/>
    <path d="M35,402.1a11.4,11.4,0,0,0,5.8,0,10.6,10.6,0,0,0,4.7-2.7,12.1,12.1,0,0,0,3.1,5.2,11.9,11.9,0,0,0,5.8,3,12.1,12.1,0,0,0,9.8-1.1c2.7-1.7,4.5-4.4,5.5-8.1a12.9,12.9,0,0,0-1.1-9.8c-1.7-2.7-4.4-4.5-8.2-5.5a14.3,14.3,0,0,0-6.5,0,11.4,11.4,0,0,0-5.1,3.2,11.2,11.2,0,0,0-8.1-7.3c-3.7-.9-6.9-.6-9.5,1a11.7,11.7,0,0,0-5.3,7.6c-.8,3.5-.5,6.6,1.1,9.2S31.3,401.1,35,402.1Zm15.7-8.4a3.6,3.6,0,0,1,2.3-2.5,8.4,8.4,0,0,1,4.7.1,7.6,7.6,0,0,1,4.2,2.1,3.3,3.3,0,0,1,.9,3.3,3.4,3.4,0,0,1-2.3,2.5,7.5,7.5,0,0,1-4.7,0,8.3,8.3,0,0,1-4.2-2.2A3.3,3.3,0,0,1,50.7,393.7Zm-17.9-4.4a2.8,2.8,0,0,1,2.1-2.1,8.8,8.8,0,0,1,4.2.2,9,9,0,0,1,3.8,1.8,2.7,2.7,0,0,1,1,2.8,2.8,2.8,0,0,1-2.2,2.1,10.3,10.3,0,0,1-4.2-.2,11.8,11.8,0,0,1-3.9-1.8A2.7,2.7,0,0,1,32.8,389.3Z" style="fill: #fff"/>
    <path d="M44.8,345.8a16,16,0,0,0,6.3,4.1l3-8a9.4,9.4,0,0,1-4.7-3.1,3.6,3.6,0,0,1-.7-3.7,3.3,3.3,0,0,1,2.6-2.2,9.1,9.1,0,0,1,4.6.7,9.3,9.3,0,0,1,3.9,2.5,33.4,33.4,0,0,1,4,5l10.1,16.4,5.7,2,8.8-24.2-6.6-2.5-5.1,14-5.6-8a54.4,54.4,0,0,0-6.6-9.3,16.8,16.8,0,0,0-6.5-4.3c-3.7-1.4-7-1.4-9.7-.1s-4.8,3.7-6.2,7.4a12.5,12.5,0,0,0-.6,7.1A12.9,12.9,0,0,0,44.8,345.8Z" style="fill: #fff"/>
    <path d="M55.9,317.6a18,18,0,0,0,6.6,4.7c4.1,1.8,7.7,2.3,11,1.6a8.8,8.8,0,0,0,6.8-5.6,8.2,8.2,0,0,0-.1-6.5,12.4,12.4,0,0,1,5.6,5.8c.9,2.2.7,4.8-.7,7.9l-.2.5,6.7,3,.4-.8c2.3-5.6,2.2-10.7-.3-15.4s-7.2-8.5-14.1-11.5L74.8,300a27.6,27.6,0,0,0-9.2-2.3,14.2,14.2,0,0,0-7.6,1.6,10.6,10.6,0,0,0-4.6,5.2,10.4,10.4,0,0,0-.8,6.7A12.7,12.7,0,0,0,55.9,317.6Zm3.9-10.2c.5-1.2,1.7-1.8,3.5-1.8a14.3,14.3,0,0,1,6.6,1.6l3.6,1.6c1.7,1.7,2.2,3.4,1.6,4.9a3.9,3.9,0,0,1-3.3,2.1,13.3,13.3,0,0,1-6-1.3,14.8,14.8,0,0,1-5-3.5C59.7,309.7,59.3,308.5,59.8,307.4Z" style="fill: #fff"/>
    <polygon points="93.3 246 117.2 277.3 121.9 269.6 96.1 237.3 92 234.7 78 257.3 84 261 93.3 246" style="fill: #fff"/>
    <path d="M126.8,208.9l5.5-6.5a10.7,10.7,0,0,1-3.4-4.4,3.7,3.7,0,0,1,.6-3.8,3.1,3.1,0,0,1,3.1-1.2,9.2,9.2,0,0,1,4.2,2.1,12.5,12.5,0,0,1,2.8,3.8,25.8,25.8,0,0,1,2.1,6l4.1,18.8,4.6,3.8,16.5-19.9-5.5-4.5-9.5,11.5-2.6-9.5a42.8,42.8,0,0,0-3.1-10.9,17.3,17.3,0,0,0-4.6-6.2c-3.1-2.6-6.1-3.7-9.2-3.4s-5.8,1.9-8.3,5a12.5,12.5,0,0,0-1.9,13.3A16.7,16.7,0,0,0,126.8,208.9Z" style="fill: #fff"/>
    <path d="M145.1,183.8a12.2,12.2,0,0,0,5,2.9,11.4,11.4,0,0,0,5.5-.1,11.1,11.1,0,0,0,.1,6,12,12,0,0,0,3.6,5.5c2.8,2.7,5.8,4,9,3.8s6.2-1.6,8.8-4.4,4-5.8,3.9-9a12.8,12.8,0,0,0-4.5-8.8,12.5,12.5,0,0,0-5.7-3.2,11.2,11.2,0,0,0-6,.3,10.3,10.3,0,0,0-.3-5.5,11.3,11.3,0,0,0-3.2-4.8c-2.8-2.6-5.7-3.9-8.7-3.8s-5.9,1.4-8.4,4a12.1,12.1,0,0,0-3.5,8.6C140.8,178.3,142.3,181.2,145.1,183.8Zm17.8.4a3.1,3.1,0,0,1,3.2-1,8.2,8.2,0,0,1,4.1,2.3,8.1,8.1,0,0,1,2.6,3.9,3.4,3.4,0,0,1-.8,3.3,3.7,3.7,0,0,1-3.3,1.1,8.2,8.2,0,0,1-4.1-2.3,8.8,8.8,0,0,1-2.6-4A3.3,3.3,0,0,1,162.9,184.2Zm-13.5-12.6a2.6,2.6,0,0,1,2.9-.8,8.1,8.1,0,0,1,3.5,2.2,8.9,8.9,0,0,1,2.5,3.4,2.8,2.8,0,0,1-.5,2.9,2.9,2.9,0,0,1-2.9.8,9.8,9.8,0,0,1-3.7-2.2,9.5,9.5,0,0,1-2.4-3.5A2.8,2.8,0,0,1,149.4,171.6Z" style="fill: #fff"/>
    <polygon points="184.6 129.3 176.8 144.7 181.4 150 185.6 142.2 207.5 167.6 213.9 162 185.3 128.7 184.6 129.3" style="fill: #fff"/>
    <path d="M202.1,132.6l6.8-5.2a9.9,9.9,0,0,1-2.3-5.1,3.8,3.8,0,0,1,1.5-3.5,3,3,0,0,1,3.3-.4,8.7,8.7,0,0,1,3.6,3,11.2,11.2,0,0,1,1.8,4.3,34.6,34.6,0,0,1,.7,6.4l-.3,19.2,3.6,4.8,20.6-15.7-4.3-5.6-11.9,9-.3-9.8a48,48,0,0,0-.5-11.4,18.3,18.3,0,0,0-3.1-7.1c-2.4-3.1-5.1-4.9-8.2-5.3s-6.1.5-9.2,2.9a12.3,12.3,0,0,0-4.3,5.6,11.8,11.8,0,0,0-.6,7A16.4,16.4,0,0,0,202.1,132.6Z" style="fill: #fff"/>
    <path d="M278.2,113a12.2,12.2,0,0,0-1.6-9.9,12.7,12.7,0,0,0-4.6-4.6,8.7,8.7,0,0,0-6-1,10.8,10.8,0,0,0,0-11c-2-3.3-4.6-5.4-7.7-6.1a12.9,12.9,0,0,0-9.8,2,12.7,12.7,0,0,0-4.6,4.6,10.3,10.3,0,0,0-1.6,5.9,11.6,11.6,0,0,0,1.8,6.1l7.3-4.4a5.3,5.3,0,0,1-.8-3.6,3.3,3.3,0,0,1,1.7-2.6,3.5,3.5,0,0,1,3.4-.3,6.3,6.3,0,0,1,3,2.9,7.8,7.8,0,0,1,1.4,4.3,4.1,4.1,0,0,1-2.1,3.2l-3.6,2.1,3.6,5.9,3.5-2.2c2.9-1.7,5.5-.7,7.7,3a6.9,6.9,0,0,1,1.1,4.4,4.1,4.1,0,0,1-5.6,3.4,6.2,6.2,0,0,1-3.1-2.7l-7.3,4.4a12,12,0,0,0,17.3,4.3A13.6,13.6,0,0,0,278.2,113Z" style="fill: #fff"/>
    <path d="M282.4,91.4l.2-.9a4.8,4.8,0,0,1,6.8-3.2,10.1,10.1,0,0,1,3.9,4.4,12.5,12.5,0,0,1,1.7,5.9,3.4,3.4,0,0,1-1.9,3.3,3.3,3.3,0,0,1-3.3,0,7.8,7.8,0,0,1-3.2-3.1l-7.5,3.9a13.4,13.4,0,0,0,4.6,5.1,12.6,12.6,0,0,0,6.3,1.9,14.3,14.3,0,0,0,6.4-1.5,11.7,11.7,0,0,0,6.4-7.9q1.3-5.2-1.8-11.1c-2.1-4.1-4.7-6.9-7.6-8.3s-6-1.2-9.2.4a9.3,9.3,0,0,0-3.7,3.9l-3.7-8.7,12.7-6.6-3.4-6.5-18.8,9.8L275.6,93Z" style="fill: #fff"/>
    <path d="M358.6,76c1.5-3.1,1.4-6.5,0-10.1a12.2,12.2,0,0,0-3.8-5.2,9.4,9.4,0,0,0-5.7-2,10.8,10.8,0,0,0,2.3-5.1,11,11,0,0,0-.6-5.7q-2.2-5.4-6.6-7.2c-3-1.3-6.3-1.1-10.1.4a13.6,13.6,0,0,0-5.3,3.8,11.4,11.4,0,0,0-2.5,5.6,12.5,12.5,0,0,0,.8,6.3l8-3.2a4.8,4.8,0,0,1-.3-3.7,3.6,3.6,0,0,1,2.2-2.3,3.5,3.5,0,0,1,3.3.2,6.3,6.3,0,0,1,2.6,3.4,7.1,7.1,0,0,1,.6,4.4,3.7,3.7,0,0,1-2.6,2.8L337.1,60l2.6,6.4,3.9-1.6c3.1-1.2,5.4.1,7,4.1a6.7,6.7,0,0,1,.5,4.5,4.4,4.4,0,0,1-2.6,2.9,4,4,0,0,1-3.5-.4,5.8,5.8,0,0,1-2.7-3.2l-7.9,3.2a12.6,12.6,0,0,0,6.7,7.2,12.4,12.4,0,0,0,9.8-.2A13.6,13.6,0,0,0,358.6,76Z" style="fill: #fff"/>
    <path d="M408.5,59.2l3.9-9a41.8,41.8,0,0,0,4.5-10.5,16.9,16.9,0,0,0,.3-7.7c-.8-3.9-2.5-6.7-5-8.4s-5.8-2.1-9.6-1.3a12.5,12.5,0,0,0-6.3,3.1,12.3,12.3,0,0,0-3.6,6.1,15.8,15.8,0,0,0-.2,7.5l8.4-1.7a10,10,0,0,1,.1-5.5,4,4,0,0,1,2.9-2.6,3.1,3.1,0,0,1,3.1,1.1,7.8,7.8,0,0,1,1.9,4.3,10.3,10.3,0,0,1-.1,4.6,33,33,0,0,1-2.2,6.1L398,62.4l1.2,5.9,25.3-5.1-1.4-7Z" style="fill: #fff"/>
    <path d="M423.9,46c.8,5.3,2.6,9.4,5.4,12.2a11.3,11.3,0,0,0,10.1,3.5,12.1,12.1,0,0,0,10.1-8.8A18.8,18.8,0,0,0,450,45c-.6-4.5-2-7.9-4.3-10.3a8.5,8.5,0,0,0-8.1-3,8.7,8.7,0,0,0-6.3,4,12.8,12.8,0,0,1,2.3-8.3,9.7,9.7,0,0,1,7.1-3.9h.5l-1-7.2-1.3.2a17.8,17.8,0,0,0-9.5,4.3,18.5,18.5,0,0,0-5.4,9.2,32.4,32.4,0,0,0-.5,12.9Zm9.5-5.6a3.5,3.5,0,0,1,2.5-1.4,4,4,0,0,1,3.7,1.7,11.9,11.9,0,0,1,2,5.5,10.8,10.8,0,0,1-.4,5.8,3.7,3.7,0,0,1-3,2.7,3.6,3.6,0,0,1-3.5-1.8c-1-1.4-1.7-3.7-2.2-6.7l-.4-3.1A6.8,6.8,0,0,1,433.4,40.4Z" style="fill: #fff"/>
  </g>
</svg>
