<svg xmlns="http://www.w3.org/2000/svg" viewBox="0 0 305.36 305.36"><defs><style>.cls-1,.cls-5{fill:#fff;}.cls-2{fill:#f11829;}.cls-3{fill:#00c147;}.cls-4{fill:#a5a5a5;}.cls-5{stroke:#9b9b9b;stroke-width:3px;}.cls-6{fill:#ead5be;}.cls-7{font-size:30px;fill:#91806e;font-family:RobotoCondensed-Bold, Roboto Condensed;font-weight:700;}</style></defs><title>wheel</title><g id="Layer_2" data-name="Layer 2"><path class="cls-1" d="M373.45,533.89A151.83,151.83,0,1,0,525.28,685.72,151.83,151.83,0,0,0,373.45,533.89Zm0,247.15a92.17,92.17,0,1,1,92.17-92.17A92.17,92.17,0,0,1,373.45,781Z" transform="translate(-220.77 -533.89)"/></g><g id="Layer_5" data-name="Layer 5"><g id="Layer_3" data-name="Layer 3"><path d="M311.53,549.64l25.78,54.41s-8.92,4-13.06,6.89l-34.52-49.19S306,550.16,311.53,549.64Z" transform="translate(-220.77 -533.89)"/><path d="M361,536.82l4.42,60.27a106.27,106.27,0,0,0-13.43,2l-15.46-57.93S355.7,535.25,361,536.82Z" transform="translate(-220.77 -533.89)"/><path d="M269.85,577.72l41.46,43.07s-6.95,6.88-10.09,10.81l-48.38-34S264.8,580,269.85,577.72Z" transform="translate(-220.77 -533.89)"/><path class="cls-2" d="M290.08,561.77,324.3,611s-7.06,4.87-13,9.85L269.9,577.74S284.75,563.3,290.08,561.77Z" transform="translate(-220.77 -533.89)"/><path class="cls-2" d="M336.55,541.21,352,599.14s-9.72,3-14.7,4.91l-25.78-54.41S331,540.64,336.55,541.21Z" transform="translate(-220.77 -533.89)"/><path class="cls-2" d="M252.84,597.58l48.38,34s-6.32,8.37-8.53,12.8l-52.52-26.51S248.29,600.75,252.84,597.58Z" transform="translate(-220.77 -533.89)"/></g><g id="Layer_6" data-name="Layer 6"><path d="M458.67,562.42l-33,50.49s-8.13-5.32-12.74-7.35l24-55.39S455.34,558,458.67,562.42Z" transform="translate(-220.77 -533.89)"/><path d="M494.76,596.65l-48.39,35.86a102.91,102.91,0,0,0-8.75-9.79l41.32-43.39S493.31,591.3,494.76,596.65Z" transform="translate(-220.77 -533.89)"/><path d="M412.93,541.59l-15,58.38s-9.48-2.4-14.65-2.76l3.88-59.73S408.34,538.47,412.93,541.59Z" transform="translate(-220.77 -533.89)"/><path class="cls-2" d="M437.11,550.48l-24.18,55.08a92.79,92.79,0,0,0-15-5.59l15.05-58.33S433,546.73,437.11,550.48Z" transform="translate(-220.77 -533.89)"/><path class="cls-2" d="M478.82,579.39l-41.2,43.33s-7.69-6.59-11.95-9.81l32.88-50.44S476.42,574.38,478.82,579.39Z" transform="translate(-220.77 -533.89)"/><path class="cls-2" d="M387.12,537.48l-3.88,59.73s-11.07-1-16.11-.3l-4-59.6S382,535.26,387.12,537.48Z" transform="translate(-220.77 -533.89)"/></g><g id="Layer_7" data-name="Layer 7"><path d="M222.88,668.33l60,5.55s-1.09,9.73-.74,14.75l-59.91,4.62S220.52,673.34,222.88,668.33Z" transform="translate(-220.77 -533.89)"/><path d="M237.09,619.22l54.1,26.92a106.75,106.75,0,0,0-5.09,12.59l-57.71-16.22S233,623,237.09,619.22Z" transform="translate(-220.77 -533.89)"/><path d="M225.8,718.5,284,704.79s2.38,9.49,4.16,14.19l-53.93,24.28S225.19,724,225.8,718.5Z" transform="translate(-220.77 -533.89)"/><path class="cls-2" d="M222.39,693l59.76-4.36s.59,8.56,1.83,16.23l-58.14,13.64S221,698.33,222.39,693Z" transform="translate(-220.77 -533.89)"/><path class="cls-2" d="M228.39,642.51l57.71,16.22s-2.4,9.88-3.26,15.15l-60-5.55S225.09,647,228.39,642.51Z" transform="translate(-220.77 -533.89)"/><path class="cls-2" d="M234.21,743.26,288.14,719s4,9.7,6.66,13.86l-49.57,31.67S234.61,748.79,234.21,743.26Z" transform="translate(-220.77 -533.89)"/></g><g id="Layer_8" data-name="Layer 8"><path d="M525.17,693.61,464.87,692s.26-9.71-.43-14.7l59.75-8.6S527.19,688.45,525.17,693.61Z" transform="translate(-220.77 -533.89)"/><path d="M514.94,742.29,459,719.91a104.25,104.25,0,0,0,3.74-12.59l58.62,12.43S518.75,738.26,514.94,742.29Z" transform="translate(-220.77 -533.89)"/><path d="M518.91,643.75,461.3,661.56s-2.92-9.32-5.33-13.92l52.89-28S519.15,638.2,518.91,643.75Z" transform="translate(-220.77 -533.89)"/><path class="cls-2" d="M524,669l-59.58,8.3a92,92,0,0,0-3.14-15.74l57.57-17.78S525.06,663.55,524,669Z" transform="translate(-220.77 -533.89)"/><path class="cls-2" d="M521.29,719.67l-58.51-12.35s1.58-10,2.09-15.32l60.19,1.54S524.29,715,521.29,719.67Z" transform="translate(-220.77 -533.89)"/><path class="cls-2" d="M508.86,619.61l-52.89,28s-5-9.93-8.19-13.87l48.67-34.63S508.09,614.12,508.86,619.61Z" transform="translate(-220.77 -533.89)"/></g><g id="Layer_9" data-name="Layer 9"><path d="M448.69,818.25,418,766.3s8.36-4.93,12.22-8.16l39,46S454.14,817.22,448.69,818.25Z" transform="translate(-220.77 -533.89)"/><path d="M402,835.45,391.28,776.2a102.92,102.92,0,0,0,12.65-3.52l20.62,56.26S407.46,836.53,402,835.45Z" transform="translate(-220.77 -533.89)"/><path d="M487.61,786.44l-45.7-39.33s6.34-7.43,9-11.91l51.85,29.91S492.44,783.7,487.61,786.44Z" transform="translate(-220.77 -533.89)"/><path class="cls-2" d="M468.93,804.19l-38.69-46.05a92.22,92.22,0,0,0,11.67-11l45.65,39.32S474.1,802.18,468.93,804.19Z" transform="translate(-220.77 -533.89)"/><path class="cls-2" d="M424.56,828.8l-20.63-56.12s9.31-4,14.09-6.38l30.68,51.81S430.11,828.86,424.56,828.8Z" transform="translate(-220.77 -533.89)"/><path class="cls-2" d="M502.72,765.11,450.87,735.2s5.77-9.49,7.4-14.32l55.2,22.83S507,761.53,502.72,765.11Z" transform="translate(-220.77 -533.89)"/></g><g id="Layer_11" data-name="Layer 11"><path class="cls-3" d="M375,837.77l-1.18-60s11.62-.29,16.28-1.13l9.68,58.6S380.15,839.92,375,837.77Z" transform="translate(-220.77 -533.89)"/></g><g id="Layer_10" data-name="Layer 10"><path d="M279.94,805l35.88-48.35s7.75,6,12.22,8.28l-27.16,53.6S283,809.61,279.94,805Z" transform="translate(-220.77 -533.89)"/><path d="M245.35,767.35l51.1-32.26A106.52,106.52,0,0,0,304.57,746l-43.84,40.89S246.46,772.78,245.35,767.35Z" transform="translate(-220.77 -533.89)"/><path d="M324.33,828.55l18.49-56.85s9.35,2.9,14.29,3.82l-7.26,58.7S328.72,831.94,324.33,828.55Z" transform="translate(-220.77 -533.89)"/><path class="cls-2" d="M300.73,818.2,328,764.87s7.62,3.93,14.82,6.85L324.33,828.5S304.59,822.19,300.73,818.2Z" transform="translate(-220.77 -533.89)"/><path class="cls-2" d="M260.73,786.87,304.57,746s7.19,7.18,11.25,10.66L279.94,805S262.82,792,260.73,786.87Z" transform="translate(-220.77 -533.89)"/><path class="cls-2" d="M349.85,834.22l7.26-58.7s10.36,1.63,15.3,1.5l1.33,58.82S354.79,836.74,349.85,834.22Z" transform="translate(-220.77 -533.89)"/></g></g><g id="Layer_4" data-name="Layer 4"><path class="cls-4" d="M373.45,533.89A152.69,152.69,0,1,0,526.13,686.57,152.68,152.68,0,0,0,373.45,533.89Zm.4,302A149.39,149.39,0,1,1,523.24,686.47,149.38,149.38,0,0,1,373.85,835.85Z" transform="translate(-220.77 -533.89)"/></g><g id="Layer_14" data-name="Layer 14"><ellipse class="cls-5" cx="153.09" cy="152.68" rx="107.92" ry="108.85"/><path class="cls-6" d="M374.1,685l-8.24-105.49s53.71-8.7,93.54,43.34Z" transform="translate(-220.77 -533.89)"/><path class="cls-6" d="M460.51,624.53,376,687.06l97,38.54S495.87,673.85,460.51,624.53Z" transform="translate(-220.77 -533.89)"/><path class="cls-6" d="M472.32,727.47,375.66,690.3,394.17,792S450.3,783.77,472.32,727.47Z" transform="translate(-220.77 -533.89)"/><path class="cls-6" d="M392.4,792.34,374.1,691.66l.08,102.3S385.89,793.8,392.4,792.34Z" transform="translate(-220.77 -533.89)"/><path class="cls-6" d="M372.46,793.86l-.1-103.56-88.88,53S309.57,792.29,372.46,793.86Z" transform="translate(-220.77 -533.89)"/><path class="cls-6" d="M282.07,741l88.1-52.71-92-48.68S251.35,690.82,282.07,741Z" transform="translate(-220.77 -533.89)"/><path class="cls-6" d="M279.25,637.4l92.66,47.51-7.73-105.29S309.3,581,279.25,637.4Z" transform="translate(-220.77 -533.89)"/></g><g id="Layer_15" data-name="Layer 15"><text class="cls-7" transform="matrix(0.9, 0.44, -0.44, 0.9, 179.73, 80.8)">D</text><text class="cls-7" transform="translate(229.19 134.29) rotate(85.17)">E</text><text class="cls-7" transform="matrix(-0.79, 0.62, -0.62, -0.79, 207.03, 202.53)">F</text><text class="cls-7" transform="matrix(-0.86, -0.51, 0.51, -0.86, 120.65, 217.45)">A</text><text class="cls-7" transform="translate(76.78 160.53) rotate(-92.25)">B</text><text class="cls-7" transform="translate(107.55 95.42) rotate(-41.98)">C</text></g></svg>