<svg xmlns="http://www.w3.org/2000/svg" viewBox="0 0 156 156"><defs><style>.cls-1{fill:#093b20;}.cls-2{fill:#1a5f34;}</style></defs><title>grid</title><g id="Layer_3" data-name="Layer 3"><rect class="cls-1" width="156" height="156"/></g><g id="Layer_1" data-name="Layer 1"><path class="cls-2" d="M359.59,453.31l44.09-48.81s-33.07,7.87-44.09,37.79" transform="translate(-284 -388)"/><path class="cls-2" d="M359.59,453.31,315.5,404.5s33.07,7.87,44.09,37.79" transform="translate(-284 -388)"/><path class="cls-2" d="M359.59,492.21c11,29.92,44.09,37.79,44.09,37.79l-44.09-48.81L315.5,530s33.07-7.87,44.09-37.79" transform="translate(-284 -388)"/><path class="cls-2" d="M345.65,467.25l-48.81-44.09s7.87,33.07,37.79,44.09" transform="translate(-284 -388)"/><path class="cls-2" d="M345.65,467.25l-48.81,44.09s7.87-33.07,37.79-44.09" transform="translate(-284 -388)"/><path class="cls-2" d="M384.55,467.25c29.92-11,37.79-44.09,37.79-44.09l-48.81,44.09,48.81,44.09s-7.87-33.07-37.79-44.09" transform="translate(-284 -388)"/><path class="cls-2" d="M420.13,467.08C441.34,464,439.34,451,439.34,451l-24.81,16.08L439.34,481s3-13-19.21-13.92" transform="translate(-284 -388)"/><path class="cls-2" d="M303.74,467.08" transform="translate(-284 -388)"/><path class="cls-2" d="M303.87,467.08C282.66,464,284.66,451,284.66,451l24.81,16.08L284.66,481s-3-13,19.21-13.92" transform="translate(-284 -388)"/><path class="cls-2" d="M361.08,407.87C358,386.66,345,388.66,345,388.66l16.08,24.81L375,388.66s-13-3-13.92,19.21" transform="translate(-284 -388)"/><path class="cls-2" d="M361.08,524.13C358,545.34,345,543.34,345,543.34l16.08-24.81L375,543.34s-13,3-13.92-19.21" transform="translate(-284 -388)"/></g></svg>