<svg xmlns="http://www.w3.org/2000/svg" viewBox="0 0 305.37 305.37"><defs><style>.cls-1{isolation:isolate;}.cls-2,.cls-5,.cls-6,.cls-7,.cls-8,.cls-9{fill:#fff;}.cls-3{fill:#f11829;}.cls-4{fill:#00c147;}.cls-5{font-size:19.93px;}.cls-14,.cls-15,.cls-5,.cls-6,.cls-7,.cls-8,.cls-9{font-family:RobotoCondensed-Bold, Roboto Condensed;font-weight:700;}.cls-6{font-size:17.56px;}.cls-7{font-size:18.15px;}.cls-8{font-size:17.46px;}.cls-9{font-size:17.63px;}.cls-10{fill:#ead5be;}.cls-11{fill:#a5a5a5;}.cls-12{fill:none;stroke:#9b9b9b;stroke-width:4px;}.cls-13{opacity:0.1;mix-blend-mode:multiply;}.cls-14,.cls-15{font-size:30px;}.cls-14{stroke:#000;}.cls-15{fill:#91806e;stroke:#ead5be;}</style></defs><title>wheelf</title><g class="cls-1"><g id="Layer_2" data-name="Layer 2"><path class="cls-2" d="M366.58,839.1A151.83,151.83,0,1,0,221.73,680.6,151.83,151.83,0,0,0,366.58,839.1Zm11.11-246.9a92.17,92.17,0,1,1-96.22,87.94A92.17,92.17,0,0,1,377.69,592.2Z" transform="translate(-220.76 -533.89)"/></g><g id="b_r" data-name="b&amp;r"><g id="Layer_3" data-name="Layer 3"><path class="cls-3" d="M489.93,780.91l-46.8-36.17s6.68-8.08,9.09-12.4l51.28,28.84S494.62,777.94,489.93,780.91Z" transform="translate(-220.76 -533.89)"/><path d="M451.25,815.22l-32.06-50.87c-4.27,2.67-13.36,6.29-13.36,6.29l23.31,55.52C434.68,825.88,451.25,815.22,451.25,815.22Zm-21.44-34,20.95,33.21-.72.45-21-33.18Z" transform="translate(-220.76 -533.89)"/><path d="M377.42,776.33l1.71,60.4c5.24,1.81,24.64-3.28,24.64-3.28l-.07-.32-.74.16-8.5-38.11.87-.19,3.21,14.64-7.61-34.74A107.05,107.05,0,0,1,377.42,776.33Z" transform="translate(-220.76 -533.89)"/><path d="M489.93,780.91l-11-8.53,10.63,8.26-.51.66-31.13-24.17.48-.62-15.24-11.77c-3.31,3.79-10.57,10.35-10.57,10.35L472.39,800C477.55,797.94,489.93,780.91,489.93,780.91Z" transform="translate(-220.76 -533.89)"/><path class="cls-3" d="M472.32,799.91,432.6,755.07c-6.19,4.7-13.45,9.25-13.45,9.25l32,50.68C456.51,813.72,472.32,799.91,472.32,799.91Zm-26.73-30.17L471.48,799l-.57.49-26-29.14Z" transform="translate(-220.76 -533.89)"/><path class="cls-3" d="M390.93,774.89l12.84,58.56c5.48.82,25.37-7.29,25.37-7.29l-7.55-18,7.19,17.13-.7.29-15-35.78.68-.28-7.93-18.88C400.77,772.36,390.93,774.89,390.93,774.89Z" transform="translate(-220.76 -533.89)"/><polygon class="cls-3" points="192.99 255.63 192.99 255.63 200.82 274.27 192.99 255.63"/></g><g id="Layer_6" data-name="Layer 6"><path class="cls-3" d="M303.61,819.84l26.6-54.18a86.41,86.41,0,0,0,14.38,6.08l-17.89,57.6S307.53,823.76,303.61,819.84Z" transform="translate(-220.76 -533.89)"/><path class="cls-3" d="M262.66,789l43.11-41.44s7.38,6.93,11.5,10.34l-35.12,48.91S264.83,794.13,262.66,789Z" transform="translate(-220.76 -533.89)"/><path class="cls-3" d="M353.3,835,360,775.45s10.71,1.42,15.78,1L377,836.15S358.28,837.44,353.3,835Z" transform="translate(-220.76 -533.89)"/></g><g id="Layer_7" data-name="Layer 7"><path d="M523,711.57l-59.61-8.24S464.92,694,464.8,689l60-1.55S525.59,706.66,523,711.57Z" transform="translate(-220.76 -533.89)"/><path d="M506.64,760,453.8,730.66a105.15,105.15,0,0,0,5.69-12.36l57,18.87S510.87,756.4,506.64,760Z" transform="translate(-220.76 -533.89)"/><path d="M522.27,660.93l-58.72,11.32s-1.7-8.94-3.27-13.72l55-21.82S523.13,655.45,522.27,660.93Z" transform="translate(-220.76 -533.89)"/><path class="cls-3" d="M524.79,686.85l-60,1.55s-.19-7.87-1.08-15.59l58.69-11.3S526.44,681.56,524.79,686.85Z" transform="translate(-220.76 -533.89)"/><path class="cls-3" d="M516.72,736.63l-57.05-18.88s2.49-8.58,3.59-13.81l59.7,7.92S520.22,732.33,516.72,736.63Z" transform="translate(-220.76 -533.89)"/><path class="cls-3" d="M515.08,636.17,460.1,658s-3.52-9.81-6-14.09l51-29.41S514.92,630.63,515.08,636.17Z" transform="translate(-220.76 -533.89)"/></g><g id="Layer_8" data-name="Layer 8"><path d="M222.3,672.9l60.16,4.33s-.79,9.5-.33,14.51L222,696.68S220.05,678,222.3,672.9Z" transform="translate(-220.76 -533.89)"/><path d="M234.6,624.55l54.84,24.87A102.64,102.64,0,0,0,285,662.06l-57.84-15.28S230.62,628.41,234.6,624.55Z" transform="translate(-220.76 -533.89)"/><path d="M226.33,722.43l58.31-14.55s2.42,9.17,4.62,13.88l-54.2,25.36S225.84,728,226.33,722.43Z" transform="translate(-220.76 -533.89)"/><path class="cls-3" d="M222.08,697.26l60.11-4.94a82.71,82.71,0,0,0,2.32,15l-58.32,14.56S220.79,702.65,222.08,697.26Z" transform="translate(-220.76 -533.89)"/><path class="cls-3" d="M227,647.3l57.81,15.32s-1.58,8.82-2.33,14.11l-60.15-4.33S223.81,651.83,227,647.3Z" transform="translate(-220.76 -533.89)"/><path class="cls-3" d="M235.2,747.69l54.35-25.41s4.23,9.62,7.27,13.71l-50.18,32.4S235.72,753.21,235.2,747.69Z" transform="translate(-220.76 -533.89)"/></g><g id="Layer_9" data-name="Layer 9"><path d="M304.22,551.76,332.32,605a116.58,116.58,0,0,0-12.19,7.37l-36.48-47.87S298.73,552.54,304.22,551.76Z" transform="translate(-220.76 -533.89)"/><path d="M351.59,536.56l8.07,59.68A100.47,100.47,0,0,0,347,599.15L328.85,542S346.21,535.24,351.59,536.56Z" transform="translate(-220.76 -533.89)"/><path d="M263.7,581.73l43.88,41.34a136.27,136.27,0,0,0-9.2,11.6L247.74,602.3S259,584.19,263.7,581.73Z" transform="translate(-220.76 -533.89)"/><path class="cls-3" d="M283.19,564.89l36.45,47.83a72.55,72.55,0,0,0-11.77,9.84L264.22,581.4S277.93,566.67,283.19,564.89Z" transform="translate(-220.76 -533.89)"/><path class="cls-3" d="M328.32,542.26l18.17,57.08s-8.78,3.25-13.66,5.43L304.74,551.5S322.79,542,328.32,542.26Z" transform="translate(-220.76 -533.89)"/><path class="cls-3" d="M247.34,602.73l50.73,32.43s-6,8.58-7.82,13.33L236.14,623.2S242.94,606.12,247.34,602.73Z" transform="translate(-220.76 -533.89)"/></g><g id="Layer_11" data-name="Layer 11"><path class="cls-4" d="M378.66,535.46l-1.52,60s-11.62-.23-16.31.4l-7-59S373.65,533.08,378.66,535.46Z" transform="translate(-220.76 -533.89)"/></g><g id="Layer_10" data-name="Layer 10"><path d="M472.19,572.49l-38,46.72s-7.47-6.39-11.84-8.9l30-52S469.34,567.73,472.19,572.49Z" transform="translate(-220.76 -533.89)"/><path d="M505.05,611.64l-52.5,29.93A104.43,104.43,0,0,0,445,630.45l45.62-38.89S504.18,606.17,505.05,611.64Z" transform="translate(-220.76 -533.89)"/><path d="M428.85,546.94l-21.06,55.92s-8.77-3.16-13.67-4.3l10.08-58.33S424.62,543.36,428.85,546.94Z" transform="translate(-220.76 -533.89)"/><path class="cls-3" d="M451.79,558.12l-30,51.9s-6.45-3.67-13.51-6.91l21.06-55.93S448.12,554,451.79,558.12Z" transform="translate(-220.76 -533.89)"/><path class="cls-3" d="M490.38,591l-45.74,39s-6.12-6.77-10-10.43l38-46.7S488.52,585.79,490.38,591Z" transform="translate(-220.76 -533.89)"/><path class="cls-3" d="M403.63,540.11l-10.08,58.31s-10.06-2.07-15-2.16l1.32-58.81S398.81,537.36,403.63,540.11Z" transform="translate(-220.76 -533.89)"/></g><polygon points="109.45 231.87 109.45 231.87 82.85 286.04 82.85 286.04 109.45 231.87"/><path d="M330.19,765.75c-4.51-2.25-12.22-7.84-12.22-7.84l-35.17,49c2.78,4.07,17,11.2,20.19,12.74l26.58-54.2Z" transform="translate(-220.76 -533.89)"/><path d="M297.6,737.4,247.66,771c1.06,4.8,12.1,15.24,14.6,17.57l43.18-41.52A109.43,109.43,0,0,1,297.6,737.4Z" transform="translate(-220.76 -533.89)"/><path d="M359.24,775.29l.72.09c-5.16-.6-14.81-3.47-14.81-3.47l-17.89,57.6c4.44,3.32,26.05,5.41,26.05,5.41l-.69-.08Z" transform="translate(-220.76 -533.89)"/><path d="M303,819.64l.63.3h0l-.62-.3Z" transform="translate(-220.76 -533.89)"/><path d="M330.21,765.76h0Z" transform="translate(-220.76 -533.89)"/></g><g id="numbers"><text class="cls-5" transform="translate(149.77 281.46) rotate(-177.43)">5</text><text class="cls-6" transform="translate(132.17 281.44) rotate(-165.21)">24</text><text class="cls-6" transform="translate(109.97 274.74) rotate(-161.12)">16</text><text class="cls-6" transform="translate(89.3 266.85) rotate(-145.26)">33</text><text class="cls-6" transform="matrix(-0.77, -0.64, 0.64, -0.77, 67.74, 251.02)">1</text><text class="cls-6" transform="matrix(-0.63, -0.78, 0.78, -0.63, 57, 239.3)">20</text><text class="cls-7" transform="translate(41.6 221.1) rotate(-119.33)">14</text><text class="cls-7" transform="matrix(-0.26, -0.96, 0.96, -0.26, 30.76, 201.89)">31</text><text class="cls-7" transform="translate(23.25 176.63) rotate(-94.42)">9</text><text class="cls-7" transform="translate(21.05 158.19) rotate(-88.07)">22</text><text class="cls-7" transform="translate(22.56 137.67) rotate(-82.29)">18</text><text class="cls-7" transform="translate(25.37 115.82) rotate(-68.39)">29</text><text class="cls-7" transform="matrix(0.48, -0.88, 0.88, 0.48, 36.21, 89.82)">7</text><text class="cls-7" transform="translate(43.99 75.96) rotate(-51.37)">28</text><text class="cls-7" transform="translate(58.36 58.8) rotate(-40.88)">12</text><text class="cls-7" transform="translate(76.1 44.58) rotate(-34.74)">35</text><text class="cls-7" transform="translate(99.96 30.76) rotate(-24.97)">3</text><text class="cls-7" transform="matrix(0.98, -0.22, 0.22, 0.98, 114.86, 24.36)">26</text><text class="cls-7" transform="translate(141.27 19.99) rotate(0.5)">0</text><text class="cls-7" transform="translate(160.66 20.01) rotate(5.85)">32</text><text class="cls-8" transform="translate(180.81 22.45) rotate(18.2) scale(1.03 1)">15</text><text class="cls-8" transform="translate(202.92 29.72) rotate(26.87) scale(1.03 1)">19</text><text class="cls-8" transform="matrix(0.8, 0.66, -0.64, 0.77, 226.9, 42)">4</text><text class="cls-8" transform="translate(241.28 54.75) rotate(46.2) scale(1.03 1)">21</text><text class="cls-8" transform="matrix(0.54, 0.88, -0.85, 0.53, 259.29, 74.07)">2</text><text class="cls-8" transform="translate(269.59 90.6) rotate(69.07) scale(1.03 1)">25</text><text class="cls-8" transform="translate(277.25 109.11) rotate(77.05) scale(1.03 1)">17</text><text class="cls-8" transform="matrix(0.04, 1.03, -1, 0.04, 282.93, 131)">34</text><text class="cls-8" transform="translate(283.97 157.94) rotate(99.73) scale(1.03 1)">6</text><text class="cls-8" transform="translate(280.42 176.83) rotate(100.12) scale(1.03 1)">27</text><text class="cls-8" transform="translate(276.36 197.24) rotate(112.93) scale(1.03 1)">13</text><text class="cls-8" transform="translate(265.11 218.95) rotate(126.49) scale(1.03 1)">36</text><text class="cls-8" transform="matrix(-0.73, 0.73, -0.71, -0.71, 252.36, 236.22)">11</text><text class="cls-9" transform="translate(237.27 251.33) rotate(145.64) scale(1.01 1)">30</text><text class="cls-9" transform="translate(214.99 266.27) rotate(152.34) scale(1.01 1)">8</text><text class="cls-9" transform="matrix(-0.97, 0.27, -0.27, -0.96, 198.65, 273.88)">23</text><text class="cls-9" transform="matrix(-1.01, 0.05, -0.04, -1, 177.58, 280.4)">10</text></g><g id="pizza"><path class="cls-10" d="M373,686.66l3.17,107.21s-54,6.28-91.5-47.5Z" transform="translate(-220.76 -533.89)"/><path class="cls-10" d="M283.68,744.64l89.36-58-97.33-43.55S250.57,693.78,283.68,744.64Z" transform="translate(-220.76 -533.89)"/><path class="cls-10" d="M276.52,641.28,373,686.66,357.48,580.37S301,586,276.52,641.28Z" transform="translate(-220.76 -533.89)"/><path class="cls-10" d="M359.26,580.06,373,686.66l4.5-107.4S365.83,578.89,359.26,580.06Z" transform="translate(-220.76 -533.89)"/><path class="cls-10" d="M379.25,579.44,373,686.66,465.87,634S442,583.84,379.25,579.44Z" transform="translate(-220.76 -533.89)"/><path class="cls-10" d="M467.18,636.33,373,686.66l93.52,51.14S495.61,687.82,467.18,636.33Z" transform="translate(-220.76 -533.89)"/><path class="cls-10" d="M465.34,739.94,373,686.56l4.86,107.28S432.78,795,465.34,739.94Z" transform="translate(-220.76 -533.89)"/></g><g id="Layer_17" data-name="Layer 17"><rect class="cls-2" x="303.45" y="579.48" width="3" height="151.69" transform="translate(806.99 121.24) rotate(114.94)"/><rect class="cls-2" x="361.59" y="537.75" width="2.04" height="151.02" transform="translate(580.07 641.1) rotate(172.64)"/><rect class="cls-2" x="375.64" y="537.4" width="2.25" height="151.02" transform="translate(504.82 708.24) rotate(-177.42)"/><rect class="cls-2" x="308.15" y="652.68" width="2.61" height="152.56" transform="translate(525.02 -465.81) rotate(56.44)"/><rect class="cls-2" x="374.58" y="687.29" width="2.61" height="151.38" transform="translate(-246.78 -520.51) rotate(-1.97)"/><rect class="cls-2" x="438.41" y="648.16" width="2.61" height="151.38" transform="translate(-627.41 221.53) rotate(-60.86)"/><rect class="cls-2" x="436.96" y="576.63" width="3.31" height="148.53" transform="translate(-138.25 816.45) rotate(-119.04)"/></g><g id="border"><path class="cls-11" d="M366.58,839.1A152.68,152.68,0,1,0,220.92,679.71,152.68,152.68,0,0,0,366.58,839.1Zm13.17-301.67A149.39,149.39,0,1,1,223.8,680,149.39,149.39,0,0,1,379.75,537.43Z" transform="translate(-220.76 -533.89)"/><ellipse class="cls-12" cx="373.04" cy="686.56" rx="108.85" ry="107.92" transform="translate(-550.36 494.46) rotate(-87.42)"/></g><g id="pizza_letters" data-name="pizza letters"><g class="cls-13"><text class="cls-14" transform="translate(123.38 224.26) rotate(-151.39)">D</text><text class="cls-14" transform="matrix(-0.04, -1, 1, -0.04, 76.4, 168.63)">E</text><text class="cls-14" transform="translate(101.64 101.49) rotate(-35.67)">F</text><text class="cls-14" transform="translate(188.59 90.36) rotate(33.52)">A</text><text class="cls-14" transform="translate(229.87 149.3) rotate(90.33)">B</text><text class="cls-14" transform="translate(196.24 212.95) rotate(140.6)">C</text></g><text class="cls-15" transform="translate(122.38 223.26) rotate(-151.39)">D</text><text class="cls-15" transform="matrix(-0.04, -1, 1, -0.04, 75.4, 167.63)">E</text><text class="cls-15" transform="translate(100.64 100.49) rotate(-35.67)">F</text><text class="cls-15" transform="translate(187.59 89.36) rotate(33.52)">A</text><text class="cls-15" transform="translate(228.87 148.3) rotate(90.33)">B</text><text class="cls-15" transform="translate(195.24 211.95) rotate(140.6)">C</text></g></g></svg>